<?xml version="1.0" encoding="utf-8"?>
<!-- Generator: Adobe Illustrator 27.5.0, SVG Export Plug-In . SVG Version: 6.00 Build 0)  -->
<svg version="1.1" xmlns="http://www.w3.org/2000/svg" xmlns:xlink="http://www.w3.org/1999/xlink" x="0px" y="0px"
	 viewBox="0 0 500 500" style="enable-background:new 0 0 500 500;" xml:space="preserve">
<g id="BACKGROUND">
	<rect style="fill:#FFFFFF;" width="500" height="500"/>
</g>
<g id="OBJECTS">
	<g>
		<path style="fill:#E3FBFF;" d="M64.944,395.637h373.38c0,0,55.798-55.798,15.644-104.296
			c-40.154-48.498-82.394-30.767-131.413-86.566c-49.019-55.798-68.835-96.995-142.886-94.909
			C105.619,111.952,3.409,220.42,64.944,395.637z"/>
		<g>
			<path style="fill:#E3FBFF;" d="M385.163,171.046c-11.338-6.989-18.628-19.71-30.748-25.233
				c-8.356-4.711-43.578-9.908-31.614,8.274c16.129,24.511,0.536,49.177,37.151,65.757c22.688,9.391,74.801,22.877,78.511-13.303
				C433.691,183.082,402.554,181.572,385.163,171.046z"/>
		</g>
	</g>
	<g>
		<g>
			<path style="fill:#2CBF7B;" d="M313.697,215.9c-2.551,0.189-4.68,2.317-5.87,4.582c-0.896,1.706-1.222,3.645-1.866,5.461
				s-1.743,3.635-3.533,4.349c-1.85,0.738-4.141,0.174-5.766,1.326c-2.301,1.632-1.61,5.371-3.333,7.604
				c-0.801,1.037-2.071,1.665-2.761,2.779c-1.535,2.477,0.53,5.66,0.228,8.559c-0.358,3.433-3.961,5.873-4.262,9.312
				c-0.193,2.209,1.042,4.339,0.942,6.554c-0.063,1.399-0.653,2.713-0.966,4.078c-1.024,4.46,1.292,9.47,5.353,11.58
				c4.532,2.354,11.724,2.544,16.78-0.304c3.44-1.939,6.987-7.094,5.551-10.773c-0.489-1.252-1.309-2.428-1.346-3.772
				c-0.029-1.075,0.455-2.094,0.999-3.021c1.394-2.372,3.282-4.504,4.109-7.128c0.236-0.749,0.379-1.561,0.159-2.315
				c-0.57-1.953-3.212-2.624-3.972-4.512c-0.502-1.247-0.024-2.684,0.699-3.817c0.724-1.133,1.689-2.109,2.305-3.304
				c0.883-1.714,0.909-3.962-0.313-5.453c-1.076-1.314-2.915-1.869-3.862-3.279c-0.882-1.312-0.771-3.077-0.222-4.559
				s1.479-2.788,2.202-4.193c1.046-2.035,1.657-4.348,1.38-6.619C316.178,217.753,315.563,215.762,313.697,215.9z"/>
		</g>
		<g>
			<path style="fill:#033A3F;" d="M313.743,215.786c-0.063-0.025-0.134,0.005-0.16,0.068c-4.154,10.352-7.296,21.633-9.632,31.976
				c-2.273-5.889-7.128-16.16-7.177-16.265c-0.029-0.062-0.102-0.087-0.163-0.058c-0.061,0.029-0.087,0.102-0.058,0.163
				c0.051,0.107,5.095,10.779,7.302,16.593c-0.218,0.972-0.429,1.935-0.633,2.888c0,0,0,0,0,0c-0.029,0.032-0.035,0.076-0.024,0.115
				c-0.39,1.825-0.754,3.612-1.093,5.352c-4.263-9.87-11.395-14.672-11.467-14.72c-0.057-0.037-0.133-0.022-0.17,0.035
				c-0.037,0.056-0.022,0.132,0.035,0.17c0.073,0.048,7.304,4.912,11.52,14.938c-0.641,3.308-1.193,6.433-1.666,9.304c0,0,0,0,0,0
				c-0.025,0.032-0.029,0.073-0.018,0.109c-0.235,1.432-0.45,2.799-0.646,4.092c-5.322-7.457-12.851-11.692-12.928-11.734
				c-0.059-0.033-0.134-0.012-0.167,0.048c-0.033,0.059-0.012,0.134,0.048,0.167c0.076,0.042,7.698,4.328,12.994,11.866
				c-1.167,7.749-1.641,12.756-1.654,12.892c-0.006,0.068,0.043,0.127,0.111,0.134c0.015,0.001,0.031,0,0.045-0.004
				c0.047-0.013,0.084-0.055,0.089-0.107c0.015-0.161,0.674-7.118,2.358-17.36c2.687-3.443,16.933-12.472,17.077-12.563
				c0.057-0.036,0.074-0.112,0.038-0.169c-0.036-0.057-0.11-0.073-0.169-0.038c-0.573,0.362-13.611,8.626-16.867,12.294
				c0.731-4.406,1.649-9.397,2.783-14.705c0.659-0.731,8.821-9.731,13.82-12.95c0.057-0.037,0.073-0.113,0.037-0.17
				c-0.037-0.057-0.112-0.073-0.17-0.037c-4.635,2.984-11.955,10.892-13.585,12.679c2.389-11.096,5.72-23.526,10.261-34.843
				C313.836,215.883,313.806,215.812,313.743,215.786z"/>
		</g>
		<g>
			<path style="fill:#027369;" d="M300.821,299.46c29.312-4.607,41.44-17.697,50.211-31.198c-3.152-1.161-7.313-2.665-7.313-2.665
				c1.445-0.82,6.273-1.263,9.986-1.596c1.544-2.535,3.019-5.055,4.519-7.504c10.251-16.735,23.626-35.598,23.831-35.892
				c-0.351,0.115-21.665,7.085-40.114,16.073c-0.737,2.818-1.512,6.351-1.274,7.912c-0.057-0.15-1.258-3.32-1.949-6.306
				c-6.027,3.077-11.576,6.348-15.761,9.633C305.413,261.687,300.821,299.46,300.821,299.46z"/>
		</g>
		<g>
			<path style="fill:#033A3F;" d="M300.681,299.349c0.12-0.154,7.172-9.196,16.375-20.07c-1.474-2.868-2.887-20.534-2.948-21.295
				c-0.008-0.098,0.066-0.185,0.164-0.192c0.098-0.009,0.184,0.065,0.192,0.164c0.014,0.183,1.428,17.864,2.844,21.025
				c1.025-1.21,2.076-2.441,3.147-3.686c0.013-0.023,0.029-0.043,0.049-0.058c3.043-3.534,6.241-7.164,9.446-10.671
				c-1.244-3.225,0.629-21.206,0.711-21.979c0.01-0.098,0.098-0.169,0.196-0.159c0.099,0.015,0.169,0.098,0.159,0.197
				c-0.019,0.185-1.886,18.089-0.792,21.641c2.703-2.951,5.408-5.809,8.024-8.443c2.519-2.535,5.256-5.098,8.089-7.625
				c-0.525-2.881,1.755-14.083,1.854-14.564c0.02-0.097,0.114-0.159,0.21-0.139c0,0,0,0,0.001,0c0.097,0.02,0.159,0.114,0.139,0.211
				c-0.023,0.115-2.255,11.072-1.886,14.209c3.783-3.362,7.729-6.654,11.555-9.727c0.019-0.024,0.041-0.044,0.069-0.055
				c12.393-9.946,23.507-17.565,23.679-17.682c0.082-0.056,0.193-0.035,0.248,0.047c0.056,0.082,0.035,0.193-0.047,0.248
				c-0.17,0.116-11.059,7.58-23.291,17.372c4.046-0.062,11.916-1.44,11.998-1.454c0.097-0.017,0.19,0.048,0.207,0.145
				c0.017,0.097-0.048,0.19-0.145,0.207c-0.086,0.015-8.591,1.504-12.507,1.461c-6.698,5.378-13.76,11.432-19.665,17.345
				c6.574,0.882,19.33,0.5,19.46,0.496c0.099-0.006,0.181,0.074,0.184,0.173c0.003,0.099-0.074,0.181-0.173,0.184
				c-0.133,0.004-13.267,0.398-19.788-0.535c-5.725,5.767-11.868,12.605-17.491,19.129c6.473,1.232,23.859,1.124,24.037,1.122
				c0.099-0.003,0.179,0.079,0.18,0.177c0.001,0.098-0.079,0.179-0.177,0.18c-0.18,0.001-17.904,0.126-24.277-1.161
				c-0.011-0.002-0.021-0.004-0.031-0.007c-10.783,12.53-19.584,23.816-19.718,23.988c-0.043,0.055-0.112,0.078-0.177,0.065
				c-0.026-0.005-0.052-0.016-0.074-0.034C300.634,299.539,300.62,299.427,300.681,299.349z"/>
		</g>
		<g>
			<g>
				<path style="fill:#033A3F;" d="M373.653,270.156c0,0,9.4-8.318,6.553-10.503C377.358,257.468,373.653,270.156,373.653,270.156z"
					/>
			</g>
			<g>
				<path style="fill:#033A3F;" d="M359.662,275.675c0,0,10.412-10.531,7.102-13.071
					C363.454,260.065,359.662,275.675,359.662,275.675z"/>
			</g>
			<g>
				<path style="fill:#033A3F;" d="M344.732,282.483c0,0,13.179-12.77,8.877-15.773
					C349.306,263.707,344.732,282.483,344.732,282.483z"/>
			</g>
			<g>
				<path style="fill:#033A3F;" d="M332.157,288.37c0,0,13.019-16.712,7.94-19.512S332.157,288.37,332.157,288.37z"/>
			</g>
			<g>
				<path style="fill:#033A3F;" d="M317.492,296.046c0,0,13.002-15.572,7.923-18.373S317.492,296.046,317.492,296.046z"/>
			</g>
			<g>
				<path style="fill:#033A3F;" d="M358.16,276.114c0,0,14.148,3.566,12.376,7.342S358.16,276.114,358.16,276.114z"/>
			</g>
			<g>
				<path style="fill:#033A3F;" d="M343.093,283.233c0,0,18.865,4.755,16.503,9.791C357.233,298.06,343.093,283.233,343.093,283.233
					z"/>
			</g>
			<g>
				<path style="fill:#033A3F;" d="M329.859,289.317c0,0,19.532,4.923,17.085,10.136S329.859,289.317,329.859,289.317z"/>
			</g>
			<g>
				<path style="fill:#033A3F;" d="M315.627,297.161c0,0,20.136,0.505,18.897,6.129
					C333.285,308.914,315.627,297.161,315.627,297.161z"/>
			</g>
			<g>
				<path style="fill:#033A3F;" d="M369.787,271.586c0,0,12.417,1.836,11.225,5.221S369.787,271.586,369.787,271.586z"/>
			</g>
			<g>
				<path style="fill:#033A3F;" d="M379.101,268.235c0,0,12.604-0.656,11.733-4.158S379.101,268.235,379.101,268.235z"/>
			</g>
			<g>
				<g>
					<path style="fill:#033A3F;" d="M305.055,303.652c0.046,0.009,0.118-0.004,0.247-0.055l0.01,0.009
						c0.008-0.007,0.016-0.015,0.022-0.023c0.696-0.293,2.887-1.619,10.409-6.233c9.209-5.65,23.461-12.119,33.868-16.843
						c2.872-1.303,5.352-2.429,7.385-3.382c9.33-4.374,22.729-8.868,22.863-8.913c0.116-0.039,0.179-0.165,0.14-0.281
						c-0.039-0.116-0.164-0.18-0.281-0.14c-0.135,0.045-13.557,4.547-22.911,8.932c-2.031,0.952-4.51,2.078-7.38,3.38
						c-10.417,4.729-24.684,11.205-33.917,16.868c-8.101,4.97-9.921,6.016-10.322,6.226c-0.042-0.002-0.085,0.009-0.124,0.038
						c-0.097,0.07-0.164,0.244-0.098,0.344C304.989,303.613,305.009,303.643,305.055,303.652z"/>
				</g>
			</g>
		</g>
	</g>
	<g>
		<g>
			<path style="fill:#CC293D;" d="M368.672,278.369h-22.733v-1.441c0-6.278,5.089-11.367,11.367-11.367l0,0
				c6.278,0,11.367,5.089,11.367,11.367V278.369z"/>
			<path style="fill:#CC293D;" d="M352.64,278.369h-22.733v-1.441c0-6.278,5.089-11.367,11.367-11.367l0,0
				c6.278,0,11.367,5.089,11.367,11.367V278.369z"/>
			<path style="fill:#FFFFFF;" d="M448.69,353.199v16.113c0,1.37-0.281,2.671-0.781,3.861c-1.5,3.511-4.991,5.981-9.051,5.981
				h-22.934c-1.19-3.941-3.56-7.361-6.732-9.822c-0.009-0.01-0.009-0.01-0.02-0.02c-0.37-0.29-0.76-0.57-1.15-0.83
				c-3.121-2.111-6.881-3.331-10.932-3.331c-3.18,0-6.191,0.75-8.842,2.1c-0.73,0.36-1.43,0.781-2.1,1.23
				c-0.39,0.26-0.78,0.54-1.15,0.83c-3.171,2.47-5.551,5.891-6.741,9.842h-98.768c-0.97-3.231-2.74-6.111-5.091-8.402
				c-0.52-0.51-1.07-0.99-1.65-1.44c-0.371-0.29-0.76-0.57-1.151-0.83c-3.131-2.111-6.891-3.331-10.941-3.331
				c-4.051,0-7.812,1.22-10.943,3.331c-0.39,0.26-0.78,0.54-1.15,0.83c-2.151,1.68-3.941,3.791-5.241,6.211
				c-0.62,1.14-1.121,2.36-1.5,3.631h-16.673c-0.98,0-1.92-0.14-2.811-0.41c-4.061-1.21-7.021-4.981-7.021-9.431l0.03-0.83
				l0.29-8.172l0.27-7.531l0.11-2.97l0.46-12.812l0.36-10.182l1.24-34.677l0.24-6.671c0.03-1.4,0.34-2.731,0.9-3.931
				c0.5-1.09,1.19-2.08,2.04-2.901c1.77-1.76,4.201-2.84,6.892-2.84h145.786c2.611,0,5.111,1.04,6.952,2.88l1.31,1.421l1.331,1.44
				l3.621,3.931l40.867,44.348l10.712,8.011l5.211,3.901c0.279,0.279,0.54,0.56,0.79,0.86c0.21,0.23,0.4,0.47,0.59,0.72
				c0.14,0.18,0.27,0.35,0.4,0.54c0.13,0.18,0.25,0.36,0.37,0.55c0.25,0.38,0.48,0.76,0.69,1.16c0.12,0.23,0.24,0.47,0.35,0.71
				c0.46,0.95,0.81,1.95,1.07,2.97c0.06,0.26,0.12,0.52,0.17,0.78c0.06,0.26,0.1,0.52,0.14,0.781c0.04,0.24,0.07,0.47,0.09,0.71
				c0.03,0.29,0.06,0.59,0.07,0.89C448.679,352.659,448.69,352.929,448.69,353.199z"/>
			<g>
				<g>
					<path style="fill:#262123;" d="M277.098,383.955c0,9.021-7.311,16.343-16.343,16.343c-9.022,0-16.343-7.321-16.343-16.343
						c0-3.331,1-6.431,2.711-9.012c2.92-4.421,7.941-7.331,13.632-7.331c3.911,0,7.491,1.37,10.302,3.65
						C274.748,374.253,277.098,378.834,277.098,383.955z"/>
					<path style="fill:#B2DCF7;" d="M269.552,383.952c0,4.857-3.937,8.794-8.794,8.794c-4.856,0-8.793-3.937-8.793-8.794
						c0-4.857,3.937-8.794,8.793-8.794C265.615,375.158,269.552,379.095,269.552,383.952z"/>
				</g>
				<g>
					<path style="fill:#262123;" d="M413.983,383.955c0,9.021-7.321,16.343-16.342,16.343c-9.032,0-16.343-7.321-16.343-16.343
						c0-9.032,7.311-16.343,16.343-16.343C406.662,367.612,413.983,374.923,413.983,383.955z"/>
					<circle style="fill:#B2DCF7;" cx="397.637" cy="383.952" r="8.794"/>
				</g>
			</g>
			<g>
				<g>
					<path style="fill:#CC293D;" d="M223.319,343.817c0,5.181-5.351,5.901-7.301,5.991l0.46-12.812
						C218.688,337.456,223.319,338.996,223.319,343.817z"/>
					<path style="fill:#FFC05A;" d="M448.69,353.199v2.28c-13.042-1.7-10.892-14.013-9.962-17.653l5.211,3.901
						c0.279,0.279,0.54,0.56,0.79,0.86c0.21,0.23,0.4,0.47,0.59,0.72c0.14,0.18,0.27,0.35,0.4,0.54c0.13,0.18,0.25,0.36,0.37,0.55
						c0.25,0.38,0.48,0.76,0.69,1.16c0.12,0.23,0.24,0.47,0.35,0.71c0.46,0.95,0.81,1.95,1.07,2.97c0.06,0.26,0.12,0.52,0.17,0.78
						c0.06,0.26,0.1,0.52,0.14,0.781c0.04,0.24,0.07,0.47,0.09,0.71c0.03,0.29,0.06,0.59,0.07,0.89
						C448.679,352.659,448.69,352.929,448.69,353.199z"/>
				</g>
				<g>
					<path style="fill:#CC293D;" d="M448.69,359.15v1.16H215.637l0.27-7.531c2.11,0.21,10.022,0.09,10.412-9.471h208.818
						C435.427,351.959,439.218,358.5,448.69,359.15z"/>
					<path style="fill:#CC293D;" d="M387.679,285.467H218.318c0.03-1.4,0.34-2.731,0.9-3.931h164.53L387.679,285.467z"/>
					<g>
						<g>
							<path style="fill:#B2DCF7;" d="M249.713,368.482c-0.39,0.26-0.78,0.54-1.15,0.83c-2.151,1.68-3.941,3.791-5.241,6.211
								c-0.62,1.14-1.121,2.36-1.5,3.631h-16.673c-0.98,0-1.92-0.14-2.811-0.41c-4.061-1.21-7.021-4.981-7.021-9.431l0.03-0.83
								H249.713z"/>
							<path style="fill:#B2DCF7;" d="M386.148,368.482c-0.39,0.26-0.78,0.54-1.15,0.83c-3.171,2.47-5.551,5.891-6.741,9.842
								h-98.768c-0.97-3.231-2.74-6.111-5.091-8.402c-0.52-0.51-1.07-0.99-1.65-1.44c-0.371-0.29-0.76-0.57-1.151-0.83H386.148z"/>
							<path style="fill:#B2DCF7;" d="M448.69,368.482v0.83c0,5.431-4.401,9.842-9.832,9.842h-22.934
								c-1.19-3.951-3.57-7.371-6.751-9.842c-0.37-0.29-0.76-0.57-1.15-0.83H448.69z"/>
						</g>
					</g>
				</g>
				<g>
					<g>
						<path style="fill:#B2DCF7;" d="M272.992,310.474c0,11.487-9.312,20.799-20.799,20.799c-11.487,0-20.799-9.312-20.799-20.799
							c0-11.487,9.312-20.799,20.799-20.799C263.68,289.675,272.992,298.987,272.992,310.474z"/>
						<polygon style="fill:#CC293D;" points="263.034,307.803 254.863,307.803 254.863,299.633 249.523,299.633 249.523,307.803 
							241.353,307.803 241.353,313.144 249.523,313.144 249.523,321.314 254.863,321.314 254.863,313.144 263.034,313.144 						"/>
					</g>
					<g>
						<path style="fill:#B2DCF7;" d="M392.587,292.137L392.587,292.137c-1.394,0-2.134,1.647-1.208,2.689l27.934,31.441
							c0.307,0.345,0.746,0.543,1.208,0.543h1.04c1.408,0,2.142-1.676,1.188-2.711l-28.974-31.441
							C393.469,292.326,393.038,292.137,392.587,292.137z"/>
						<g>
							<g>
								<path style="fill:#B2DCF7;" d="M390.67,326.814h-20.429c-5.284,0-9.567-4.283-9.567-9.567v-15.542
									c0-5.284,4.283-9.567,9.567-9.567h6.602c2.732,0,5.333,1.168,7.149,3.209l7.848,8.823l2,2.251l2.65,2.981l1.331,1.49l0,0
									C403.305,317.061,398.925,326.814,390.67,326.814z"/>
							</g>
						</g>
						<g>
							<g>
								<path style="fill:#B2DCF7;" d="M356.003,309.476L356.003,309.476c0,9.576-7.763,17.338-17.338,17.338h-39.997
									c-9.576,0-17.338-7.763-17.338-17.338v0c0-9.576,7.763-17.338,17.338-17.338h39.997
									C348.24,292.137,356.003,299.9,356.003,309.476z"/>
							</g>
						</g>
					</g>
				</g>
				<polygon style="fill:#FFFFFF;" points="329.906,350.481 325.844,350.481 325.844,346.419 323.189,346.419 323.189,350.481 
					319.128,350.481 319.128,353.136 323.189,353.136 323.189,357.198 325.844,357.198 325.844,353.136 329.906,353.136 				"/>
				<polygon style="fill:#FFFFFF;" points="352.959,350.481 348.896,350.481 348.896,346.419 346.242,346.419 346.242,350.481 
					342.18,350.481 342.18,353.136 346.242,353.136 346.242,357.198 348.896,357.198 348.896,353.136 352.959,353.136 				"/>
				<polygon style="fill:#FFFFFF;" points="286.923,350.481 282.861,350.481 282.861,346.419 280.206,346.419 280.206,350.481 
					276.144,350.481 276.144,353.136 280.206,353.136 280.206,357.198 282.861,357.198 282.861,353.136 286.923,353.136 				"/>
				<polygon style="fill:#FFFFFF;" points="308.422,350.481 304.36,350.481 304.36,346.419 301.705,346.419 301.705,350.481 
					297.643,350.481 297.643,353.136 301.705,353.136 301.705,357.198 304.36,357.198 304.36,353.136 308.422,353.136 				"/>
				<polygon style="fill:#FFFFFF;" points="243.771,350.481 239.709,350.481 239.709,346.419 237.054,346.419 237.054,350.481 
					232.992,350.481 232.992,353.136 237.054,353.136 237.054,357.198 239.709,357.198 239.709,353.136 243.771,353.136 				"/>
				<polygon style="fill:#FFFFFF;" points="266.823,350.481 262.761,350.481 262.761,346.419 260.106,346.419 260.106,350.481 
					256.045,350.481 256.045,353.136 260.106,353.136 260.106,357.198 262.761,357.198 262.761,353.136 266.823,353.136 				"/>
				<polygon style="fill:#FFFFFF;" points="377.473,350.481 373.411,350.481 373.411,346.419 370.756,346.419 370.756,350.481 
					366.694,350.481 366.694,353.136 370.756,353.136 370.756,357.198 373.411,357.198 373.411,353.136 377.473,353.136 				"/>
				<polygon style="fill:#FFFFFF;" points="401.47,350.481 397.408,350.481 397.408,346.419 394.753,346.419 394.753,350.481 
					390.691,350.481 390.691,353.136 394.753,353.136 394.753,357.198 397.408,357.198 397.408,353.136 401.47,353.136 				"/>
				<polygon style="fill:#FFFFFF;" points="425.247,350.481 421.185,350.481 421.185,346.419 418.53,346.419 418.53,350.481 
					414.468,350.481 414.468,353.136 418.53,353.136 418.53,357.198 421.185,357.198 421.185,353.136 425.247,353.136 				"/>
			</g>
			<path style="fill:none;" d="M413.983,383.955c0,9.021-7.321,16.343-16.342,16.343c-9.032,0-16.343-7.321-16.343-16.343
				c0-9.032,7.311-16.343,16.343-16.343C406.662,367.612,413.983,374.923,413.983,383.955z"/>
		</g>
	</g>
	<g>
		<g>
			<path style="fill:#2CBF7B;" d="M111.881,145.822c3.05-0.484,6.14,1.428,8.164,3.761c1.524,1.757,2.444,3.945,3.703,5.9
				c1.259,1.956,3.054,3.79,5.354,4.133c2.377,0.355,4.914-0.94,7.141-0.036c3.155,1.281,3.377,5.866,6.02,8.013
				c1.228,0.997,2.894,1.384,4.013,2.502c2.489,2.486,0.942,6.797,2.099,10.12c1.37,3.935,6.279,5.806,7.583,9.764
				c0.838,2.542-0.024,5.387,0.705,7.962c0.461,1.626,1.517,3.007,2.263,4.524c2.437,4.958,1.101,11.485-3.088,15.087
				c-4.674,4.019-13.073,6.232-19.802,4.282c-4.579-1.327-10.172-6.404-9.501-11.124c0.228-1.607,0.867-3.215,0.538-4.805
				c-0.263-1.271-1.113-2.335-2.01-3.274c-2.294-2.402-5.102-4.385-6.8-7.24c-0.484-0.815-0.878-1.73-0.827-2.676
				c0.13-2.453,3.049-3.972,3.419-6.4c0.245-1.604-0.713-3.16-1.877-4.291c-1.164-1.131-2.568-2.012-3.622-3.246
				c-1.511-1.769-2.163-4.404-1.14-6.494c0.901-1.841,2.908-3.003,3.632-4.921c0.673-1.785,0.055-3.828-0.999-5.418
				c-1.055-1.59-2.509-2.866-3.747-4.318c-1.791-2.102-3.149-4.651-3.452-7.396C109.478,148.686,109.65,146.176,111.881,145.822z"/>
		</g>
		<g>
			<path style="fill:#033A3F;" d="M111.795,145.701c0.067-0.047,0.159-0.031,0.206,0.036c7.743,11.015,14.556,23.402,20.161,34.91
				c1.042-7.548,3.907-20.96,3.936-21.098c0.017-0.08,0.095-0.13,0.176-0.114c0.08,0.017,0.131,0.096,0.114,0.176
				c-0.03,0.14-3.006,14.075-3.992,21.517c0.525,1.081,1.039,2.155,1.542,3.218c0,0,0,0,0,0c0.043,0.03,0.063,0.079,0.061,0.128
				c0.963,2.037,1.885,4.036,2.765,5.986c2.28-12.777,9.333-20.391,9.404-20.467c0.056-0.059,0.15-0.062,0.209-0.006
				c0.06,0.056,0.062,0.15,0.006,0.209c-0.072,0.076-7.224,7.791-9.405,20.739c1.668,3.71,3.181,7.229,4.53,10.473c0,0,0,0,0,0
				c0.038,0.031,0.054,0.077,0.051,0.123c0.672,1.618,1.303,3.164,1.891,4.63c4.192-10.234,11.868-17.292,11.946-17.363
				c0.06-0.055,0.154-0.051,0.209,0.01c0.055,0.06,0.051,0.154-0.01,0.209c-0.078,0.071-7.849,7.214-11.988,17.536
				c3.514,8.783,5.456,14.535,5.508,14.692c0.026,0.078-0.016,0.162-0.093,0.188c-0.018,0.006-0.036,0.008-0.054,0.007
				c-0.059-0.003-0.114-0.041-0.134-0.101c-0.062-0.185-2.761-8.177-7.571-19.747c-4.109-3.303-23.346-9.973-23.54-10.04
				c-0.077-0.027-0.118-0.111-0.092-0.188c0.027-0.077,0.109-0.117,0.188-0.092c0.773,0.267,18.379,6.372,23.219,9.782
				c-2.077-4.975-4.536-10.586-7.336-16.51c-0.976-0.676-13.056-8.996-19.82-11.396c-0.077-0.027-0.117-0.112-0.09-0.189
				c0.027-0.077,0.112-0.117,0.189-0.09c6.271,2.225,17.06,9.492,19.469,11.142c-5.876-12.378-13.227-26.063-21.693-38.105
				C111.712,145.84,111.729,145.748,111.795,145.701z"/>
		</g>
		<g>
			<path style="fill:#027369;" d="M150.118,240.448c-35.717,2.692-53.588-9.335-67.628-22.775c3.382-2.236,7.857-5.154,7.857-5.154
				c-1.925-0.564-7.721,0.251-12.175,0.886c-2.515-2.552-4.945-5.105-7.385-7.568c-16.673-16.83-37.606-35.297-37.928-35.585
				c0.445,0.038,27.417,2.334,51.58,7.794c1.645,3.108,3.533,7.044,3.684,8.944c0.026-0.192,0.56-4.249,0.546-7.949
				c7.933,1.949,15.358,4.259,21.184,6.961C134.276,197.333,150.118,240.448,150.118,240.448z"/>
		</g>
		<g>
			<path style="fill:#033A3F;" d="M150.251,240.28c-0.183-0.148-10.97-8.822-24.791-19.055c0.939-3.778-2.286-24.927-2.425-25.838
				c-0.018-0.118-0.128-0.199-0.246-0.18c-0.118,0.017-0.199,0.128-0.181,0.246c0.034,0.219,3.261,21.386,2.472,25.492
				c-1.54-1.138-3.115-2.295-4.717-3.46c-0.021-0.023-0.046-0.042-0.074-0.054c-4.553-3.311-9.315-6.692-14.051-9.926
				c0.57-4.134-6.603-24.744-6.913-25.63c-0.039-0.112-0.162-0.172-0.275-0.133c-0.112,0.044-0.172,0.162-0.132,0.275
				c0.074,0.212,7.218,20.735,6.915,25.211c-3.992-2.72-7.961-5.331-11.763-7.702c-3.661-2.282-7.586-4.537-11.613-6.723
				c-0.18-3.531-5.957-16.063-6.205-16.601c-0.05-0.108-0.178-0.155-0.286-0.106c0,0,0,0-0.001,0
				c-0.108,0.05-0.155,0.178-0.105,0.286c0.059,0.128,5.712,12.387,6.146,16.175c-5.375-2.904-10.922-5.682-16.267-8.234
				c-0.028-0.023-0.06-0.04-0.096-0.046c-17.313-8.26-32.479-14.139-32.713-14.23c-0.112-0.043-0.236,0.012-0.279,0.123
				c-0.043,0.111,0.013,0.236,0.123,0.279c0.232,0.089,15.09,5.849,32.172,13.972c-4.772,1.046-14.4,1.603-14.501,1.609
				c-0.119,0.007-0.21,0.108-0.203,0.228c0.007,0.119,0.109,0.21,0.228,0.203c0.105-0.006,10.51-0.608,15.1-1.742
				c9.357,4.468,19.33,9.628,27.903,14.943c-7.482,2.854-22.575,5.932-22.729,5.964c-0.118,0.021-0.192,0.137-0.169,0.254
				c0.024,0.117,0.138,0.192,0.254,0.168c0.157-0.032,15.699-3.2,23.104-6.101c8.322,5.193,17.431,11.53,25.842,17.642
				c-7.265,3.237-27.725,7.919-27.935,7.966c-0.117,0.024-0.189,0.142-0.163,0.258c0.026,0.116,0.142,0.189,0.258,0.162
				c0.212-0.048,21.073-4.803,28.206-8.078c0.012-0.005,0.023-0.011,0.035-0.016c16.136,11.742,29.598,22.569,29.804,22.734
				c0.066,0.053,0.154,0.061,0.226,0.028c0.029-0.013,0.056-0.034,0.078-0.061C150.359,240.49,150.344,240.355,150.251,240.28z"/>
		</g>
		<g>
			<g>
				<path style="fill:#033A3F;" d="M56.433,226.155c0,0-13.345-7.175-10.604-10.53S56.433,226.155,56.433,226.155z"/>
			</g>
			<g>
				<path style="fill:#033A3F;" d="M74.399,228.772c0,0-15.146-9.495-11.96-13.395C65.626,211.477,74.399,228.772,74.399,228.772z"
					/>
			</g>
			<g>
				<path style="fill:#033A3F;" d="M93.825,232.643c0,0-19.018-11.361-14.792-16.08C83.258,211.844,93.825,232.643,93.825,232.643z"
					/>
			</g>
			<g>
				<path style="fill:#033A3F;" d="M110.229,236.083c0,0-19.92-16.037-14.726-20.732
					C100.697,210.655,110.229,236.083,110.229,236.083z"/>
			</g>
			<g>
				<path style="fill:#033A3F;" d="M129.584,241.047c0,0-19.584-14.702-14.39-19.398
					C120.387,216.953,129.584,241.047,129.584,241.047z"/>
			</g>
			<g>
				<path style="fill:#033A3F;" d="M76.285,228.872c0,0-15.639,8.102-12.512,12.05C66.899,244.87,76.285,228.872,76.285,228.872z"/>
			</g>
			<g>
				<path style="fill:#033A3F;" d="M95.958,233.071c0,0-20.853,10.804-16.684,16.068C83.443,254.403,95.958,233.071,95.958,233.071z
					"/>
			</g>
			<g>
				<path style="fill:#033A3F;" d="M113.192,236.559c0,0-21.589,11.185-17.273,16.636
					C100.234,258.645,113.192,236.559,113.192,236.559z"/>
			</g>
			<g>
				<path style="fill:#033A3F;" d="M132.084,241.841c0,0-23.521,6.161-20.51,12.427
					C114.585,260.535,132.084,241.841,132.084,241.841z"/>
			</g>
			<g>
				<path style="fill:#033A3F;" d="M61.371,226.767c0,0-14.083,5.591-11.746,9.239C51.962,239.654,61.371,226.767,61.371,226.767z"
					/>
			</g>
			<g>
				<path style="fill:#033A3F;" d="M49.499,225.404c0,0-14.992,2.714-14.937-1.642C34.618,219.406,49.499,225.404,49.499,225.404z"
					/>
			</g>
			<g>
				<g>
					<path style="fill:#033A3F;" d="M146.302,246.545c-0.052,0.023-0.14,0.029-0.305,0.003l-0.009,0.014
						c-0.011-0.006-0.022-0.013-0.033-0.02c-0.899-0.152-3.84-1.104-13.955-4.446c-12.384-4.092-30.92-7.753-44.454-10.426
						c-3.735-0.737-6.96-1.374-9.613-1.932c-12.172-2.56-29.16-4.135-29.33-4.151c-0.148-0.014-0.256-0.144-0.243-0.292
						c0.013-0.147,0.143-0.256,0.292-0.242c0.171,0.016,17.188,1.594,29.391,4.16c2.65,0.557,5.874,1.194,9.607,1.931
						c13.548,2.676,32.104,6.34,44.518,10.442c10.893,3.6,13.322,4.326,13.85,4.462c0.049-0.014,0.102-0.013,0.157,0.01
						c0.133,0.055,0.261,0.242,0.21,0.377C146.368,246.481,146.353,246.522,146.302,246.545z"/>
				</g>
			</g>
		</g>
		<g>
			<path style="fill:#2CBF7B;" d="M168.067,384.869c-30.278,19.136-51.703,16.9-70.408,11.618c1.938-3.562,4.52-8.238,4.52-8.238
				c-1.964,0.405-6.7,3.844-10.336,6.495c-3.418-1.074-6.762-2.188-10.073-3.218C59.15,384.488,32,378.001,31.58,377.898
				c0.41-0.175,25.307-10.803,49.207-17.319c2.911,1.973,6.425,4.563,7.45,6.17c-0.067-0.182-1.499-4.015-3.248-7.276
				c7.92-2.001,15.561-3.445,21.973-3.792C133.847,354.228,168.067,384.869,168.067,384.869z"/>
		</g>
		<g>
			<path style="fill:#033A3F;" d="M168.106,384.658c-0.231-0.044-13.827-2.644-30.834-5.195
				c-0.943-3.777-13.714-20.941-14.265-21.679c-0.071-0.095-0.207-0.115-0.302-0.044c-0.096,0.07-0.115,0.206-0.044,0.302
				c0.133,0.178,12.914,17.355,14.144,21.352c-1.894-0.283-3.827-0.565-5.789-0.843c-0.03-0.011-0.06-0.016-0.091-0.013
				c-5.574-0.788-11.366-1.539-17.065-2.173c-1.436-3.918-17.441-18.753-18.13-19.39c-0.087-0.081-0.224-0.076-0.305,0.012
				c-0.078,0.092-0.075,0.224,0.012,0.305c0.165,0.153,16.103,14.924,17.936,19.019c-4.802-0.529-9.531-0.973-14.002-1.282
				c-4.304-0.298-8.828-0.448-13.41-0.488c-1.815-3.034-12.797-11.39-13.269-11.748c-0.095-0.072-0.23-0.054-0.302,0.041
				c0,0,0,0,0,0.001c-0.072,0.095-0.053,0.23,0.041,0.302c0.112,0.085,10.856,8.259,13.017,11.4
				c-6.109-0.043-12.311,0.107-18.229,0.361c-0.036-0.007-0.072-0.007-0.107,0.005c-19.165,0.829-35.316,2.753-35.565,2.783
				c-0.119,0.014-0.203,0.122-0.188,0.24c0.014,0.119,0.122,0.203,0.24,0.188c0.247-0.03,16.071-1.915,34.966-2.756
				c-3.723,3.163-11.964,8.172-12.051,8.224c-0.102,0.062-0.134,0.194-0.072,0.296c0.062,0.102,0.194,0.134,0.296,0.073
				c0.09-0.055,8.996-5.469,12.518-8.623c10.36-0.445,21.588-0.568,31.653,0.104c-5.268,6.031-17.153,15.831-17.274,15.931
				c-0.094,0.074-0.105,0.211-0.03,0.303c0.076,0.092,0.212,0.105,0.303,0.029c0.124-0.102,12.362-10.192,17.541-16.228
				c9.786,0.682,20.803,2.003,31.098,3.454c-4.897,6.268-20.769,20.002-20.931,20.141c-0.092,0.076-0.1,0.214-0.022,0.304
				c0.078,0.09,0.214,0.1,0.304,0.022c0.164-0.142,16.356-14.129,21.118-20.368c0.008-0.01,0.015-0.021,0.023-0.031
				c19.759,2.798,36.728,6.043,36.986,6.093c0.083,0.016,0.164-0.018,0.212-0.081c0.02-0.026,0.034-0.056,0.04-0.09
				C168.299,384.793,168.223,384.68,168.106,384.658z"/>
		</g>
		<g>
			<g>
				<path style="fill:#033A3F;" d="M64.034,326.296c0,0-12.95-7.867-10.036-11.073C56.912,312.017,64.034,326.296,64.034,326.296z"
					/>
			</g>
			<g>
				<path style="fill:#033A3F;" d="M81.838,329.854c0,0-14.626-10.279-11.239-14.006C73.986,312.122,81.838,329.854,81.838,329.854z
					"/>
			</g>
			<g>
				<path style="fill:#033A3F;" d="M101.033,334.742c0,0-18.394-12.346-13.926-16.836
					C91.575,313.416,101.033,334.742,101.033,334.742z"/>
			</g>
			<g>
				<path style="fill:#033A3F;" d="M117.233,339.04c0,0-19.048-17.062-13.615-21.478C109.053,313.146,117.233,339.04,117.233,339.04
					z"/>
			</g>
			<g>
				<path style="fill:#033A3F;" d="M136.3,345.015c0,0-18.784-15.712-13.35-20.128C128.384,320.471,136.3,345.015,136.3,345.015z"/>
			</g>
			<g>
				<path style="fill:#033A3F;" d="M83.716,330.054c0,0-16.043,7.268-13.129,11.375C73.501,345.536,83.716,330.054,83.716,330.054z"
					/>
			</g>
			<g>
				<path style="fill:#033A3F;" d="M103.141,335.281c0,0-21.392,9.692-17.506,15.168
					C89.521,355.926,103.141,335.281,103.141,335.281z"/>
			</g>
			<g>
				<path style="fill:#033A3F;" d="M120.167,339.672c0,0-22.148,10.034-18.125,15.704
					C106.066,361.045,120.167,339.672,120.167,339.672z"/>
			</g>
			<g>
				<path style="fill:#033A3F;" d="M138.755,345.94c0,0-23.813,4.915-21.136,11.331S138.755,345.94,138.755,345.94z"/>
			</g>
			<g>
				<path style="fill:#033A3F;" d="M68.933,327.167c0,0-14.357,4.843-12.215,8.609C58.859,339.541,68.933,327.167,68.933,327.167z"
					/>
			</g>
			<g>
				<path style="fill:#033A3F;" d="M57.149,325.181c0,0-15.114,1.922-14.829-2.425C42.604,318.409,57.149,325.181,57.149,325.181z"
					/>
			</g>
			<g>
				<g>
					<path style="fill:#033A3F;" d="M152.706,351.385c-0.053,0.021-0.141,0.021-0.305-0.013l-0.01,0.013
						c-0.011-0.006-0.022-0.014-0.032-0.022c-0.89-0.199-3.776-1.304-13.702-5.174c-12.151-4.738-30.469-9.368-43.844-12.75
						c-3.691-0.933-6.878-1.738-9.498-2.435c-12.021-3.196-28.902-5.663-29.071-5.688c-0.147-0.021-0.248-0.157-0.227-0.304
						c0.021-0.146,0.156-0.249,0.304-0.227c0.17,0.025,17.08,2.496,29.132,5.7c2.617,0.696,5.803,1.501,9.492,2.434
						c13.389,3.385,31.726,8.02,43.907,12.77c10.688,4.168,13.076,5.02,13.597,5.184c0.05-0.012,0.103-0.007,0.156,0.018
						c0.13,0.062,0.248,0.255,0.19,0.387C152.775,351.325,152.758,351.365,152.706,351.385z"/>
				</g>
			</g>
		</g>
	</g>
	<g>
		<path style="fill:#A5C8E4;" d="M147.113,219.752c-2.018-3.732-7.119-4.888-11.395-2.581l-69.152,37.311
			c-4.276,2.307-6.106,7.203-4.089,10.935l71.442,132.162c2.018,3.732,7.119,4.888,11.395,2.581l69.152-37.311
			c4.276-2.307,6.106-7.203,4.089-10.935L147.113,219.752z"/>
		<g>
			<path style="fill:#E5E5E4;" d="M161.87,375.092l-15.554,8.392c-2.648,1.429-6.2-0.013-7.932-3.216l-0.368-0.68
				c-1.732-3.204-0.99-6.962,1.658-8.391l15.555-8.392c2.648-1.429,6.201,0.012,7.933,3.216l0.368,0.68
				C165.26,369.904,164.518,373.663,161.87,375.092z"/>
			<g>
				<g>
					<path style="fill:#FD5B68;" d="M136.658,381.199l-0.368-0.68c-1.732-3.204-0.843-7.041,1.987-8.568l8.311-4.484l6.642,12.287
						l-8.311,4.484C142.089,385.765,138.389,384.402,136.658,381.199z"/>
				</g>
			</g>
			<g>
				<path style="fill:#E5E5E4;" d="M161.597,375.33l-8.281,4.468l-1.572-2.908l8.281-4.468c2.488-1.342,3.453-4.504,2.446-7.45
					c0.254,0.327,0.49,0.68,0.695,1.06l0.371,0.687C165.285,369.951,164.417,373.808,161.597,375.33z"/>
				<path style="fill:#DA3832;" d="M136.113,379.9c0.085,0.194,0.177,0.386,0.28,0.577
					C136.289,380.286,136.196,380.094,136.113,379.9z"/>
				<path style="fill:#FD5B68;" d="M136.764,381.163l-0.371-0.687c-0.103-0.191-0.195-0.383-0.28-0.577
					c-0.084-0.195-0.159-0.389-0.226-0.585c1.913,2.457,5.089,3.384,7.577,2.042l8.281-4.468l1.572,2.908l-8.281,4.468
					C142.216,385.787,138.511,384.396,136.764,381.163z"/>
			</g>
			<path style="opacity:0.4;fill:#FFFFFF;" d="M157.804,368.021l-16.903,9.12c-0.692,0.373-1.595,0.041-2.018-0.742l-0.09-0.166
				c-0.423-0.783-0.207-1.721,0.485-2.094l16.903-9.12c0.691-0.373,1.596-0.041,2.019,0.743l0.09,0.166
				C158.713,366.71,158.495,367.648,157.804,368.021z"/>
		</g>
		<g>
			<path style="fill:#FFFFFF;" d="M201.869,353.51l-15.555,8.392c-2.648,1.429-6.2-0.013-7.932-3.216l-0.368-0.68
				c-1.732-3.204-0.99-6.962,1.658-8.391l15.554-8.392c2.648-1.429,6.201,0.012,7.933,3.216l0.368,0.68
				C205.259,348.323,204.517,352.081,201.869,353.51z"/>
			<g>
				<g>
					<path style="fill:#FD5B68;" d="M176.657,359.618l-0.368-0.68c-1.732-3.204-0.843-7.041,1.987-8.568l8.311-4.484l6.642,12.287
						l-8.311,4.484C182.088,364.183,178.388,362.821,176.657,359.618z"/>
				</g>
			</g>
			<g>
				<path style="fill:#E5E5E4;" d="M201.596,353.748l-8.281,4.468l-1.572-2.908l8.281-4.468c2.488-1.342,3.453-4.504,2.446-7.45
					c0.254,0.327,0.49,0.68,0.695,1.06l0.371,0.687C205.284,348.369,204.416,352.227,201.596,353.748z"/>
				<path style="fill:#DA3832;" d="M176.112,358.318c0.085,0.194,0.177,0.386,0.28,0.577
					C176.289,358.704,176.195,358.513,176.112,358.318z"/>
				<path style="fill:#FD5B68;" d="M176.763,359.582l-0.371-0.687c-0.103-0.191-0.195-0.383-0.28-0.577
					c-0.084-0.195-0.159-0.389-0.226-0.585c1.913,2.457,5.089,3.384,7.577,2.042l8.281-4.468l1.572,2.908l-8.281,4.468
					C182.215,364.205,178.51,362.815,176.763,359.582z"/>
			</g>
			<path style="opacity:0.4;fill:#FFFFFF;" d="M197.803,346.439l-16.903,9.12c-0.692,0.373-1.595,0.041-2.018-0.742l-0.09-0.166
				c-0.423-0.783-0.207-1.721,0.485-2.094l16.903-9.12c0.691-0.373,1.596-0.041,2.019,0.743l0.09,0.166
				C198.712,345.129,198.494,346.066,197.803,346.439z"/>
		</g>
		<g>
			<path style="fill:#E5E5E4;" d="M147.819,349.099l-15.554,8.392c-2.648,1.429-6.2-0.013-7.932-3.216l-0.368-0.68
				c-1.732-3.204-0.99-6.962,1.658-8.391l15.554-8.392c2.648-1.429,6.201,0.012,7.933,3.216l0.368,0.68
				C151.209,343.912,150.467,347.67,147.819,349.099z"/>
			<g>
				<g>
					<path style="fill:#FD5B68;" d="M122.607,355.207l-0.368-0.68c-1.732-3.204-0.843-7.041,1.987-8.568l8.311-4.484l6.642,12.287
						l-8.311,4.484C128.038,359.772,124.339,358.41,122.607,355.207z"/>
				</g>
			</g>
			<g>
				<path style="fill:#E5E5E4;" d="M147.547,349.337l-8.281,4.468l-1.572-2.908l8.281-4.468c2.488-1.342,3.453-4.504,2.446-7.45
					c0.254,0.327,0.49,0.68,0.695,1.06l0.371,0.687C151.234,343.958,150.366,347.816,147.547,349.337z"/>
				<path style="fill:#DA3832;" d="M122.062,353.908c0.085,0.194,0.177,0.386,0.28,0.577
					C122.239,354.294,122.146,354.102,122.062,353.908z"/>
				<path style="fill:#FD5B68;" d="M122.713,355.171l-0.371-0.687c-0.103-0.191-0.195-0.383-0.28-0.577
					c-0.084-0.195-0.159-0.389-0.226-0.585c1.913,2.457,5.089,3.384,7.577,2.042l8.281-4.468l1.572,2.908l-8.281,4.468
					C128.165,359.795,124.461,358.404,122.713,355.171z"/>
			</g>
			<path style="opacity:0.4;fill:#FFFFFF;" d="M143.753,342.028l-16.903,9.12c-0.692,0.373-1.595,0.041-2.018-0.742l-0.09-0.166
				c-0.423-0.783-0.207-1.721,0.485-2.094l16.903-9.12c0.691-0.373,1.596-0.041,2.019,0.743l0.09,0.166
				C144.663,340.718,144.444,341.656,143.753,342.028z"/>
		</g>
		<g>
			<path style="fill:#E5E5E4;" d="M187.818,327.518l-15.554,8.392c-2.648,1.429-6.2-0.013-7.932-3.216l-0.368-0.68
				c-1.732-3.204-0.99-6.962,1.658-8.391l15.554-8.392c2.648-1.429,6.201,0.012,7.933,3.216l0.368,0.68
				C191.208,322.33,190.467,326.089,187.818,327.518z"/>
			<g>
				<g>
					<path style="fill:#FD5B68;" d="M162.606,333.625l-0.368-0.68c-1.732-3.204-0.843-7.041,1.987-8.568l8.311-4.484l6.642,12.287
						l-8.311,4.484C168.037,338.191,164.338,336.828,162.606,333.625z"/>
				</g>
			</g>
			<g>
				<path style="fill:#E5E5E4;" d="M187.546,327.756l-8.281,4.468l-1.572-2.908l8.281-4.468c2.488-1.342,3.453-4.504,2.446-7.45
					c0.254,0.327,0.49,0.68,0.695,1.06l0.371,0.687C191.233,322.377,190.365,326.234,187.546,327.756z"/>
				<path style="fill:#DA3832;" d="M162.061,332.326c0.085,0.194,0.177,0.386,0.28,0.577
					C162.238,332.712,162.145,332.52,162.061,332.326z"/>
				<path style="fill:#FD5B68;" d="M162.712,333.589l-0.371-0.687c-0.103-0.191-0.195-0.383-0.28-0.577
					c-0.084-0.195-0.159-0.389-0.226-0.585c1.913,2.457,5.089,3.384,7.577,2.042l8.281-4.468l1.572,2.908l-8.281,4.468
					C168.164,338.213,164.46,336.822,162.712,333.589z"/>
			</g>
			<path style="opacity:0.4;fill:#FFFFFF;" d="M183.752,320.447l-16.903,9.12c-0.692,0.373-1.595,0.041-2.018-0.742l-0.09-0.166
				c-0.423-0.783-0.207-1.721,0.485-2.094l16.903-9.12c0.691-0.373,1.596-0.041,2.019,0.743l0.09,0.166
				C184.662,319.136,184.443,320.074,183.752,320.447z"/>
		</g>
		<g>
			<path style="fill:#E5E5E4;" d="M133.115,321.898l-15.554,8.392c-2.648,1.429-6.2-0.013-7.932-3.216l-0.368-0.68
				c-1.732-3.204-0.99-6.962,1.658-8.391l15.554-8.392c2.648-1.429,6.201,0.012,7.933,3.216l0.368,0.68
				C136.505,316.711,135.763,320.469,133.115,321.898z"/>
			<g>
				<g>
					<path style="fill:#FD5B68;" d="M107.903,328.006l-0.368-0.68c-1.732-3.204-0.843-7.041,1.987-8.568l8.311-4.484l6.642,12.287
						l-8.311,4.484C113.334,332.571,109.635,331.209,107.903,328.006z"/>
				</g>
			</g>
			<g>
				<path style="fill:#E5E5E4;" d="M132.842,322.136l-8.281,4.468l-1.572-2.908l8.281-4.468c2.488-1.342,3.453-4.504,2.446-7.45
					c0.254,0.327,0.49,0.68,0.695,1.06l0.371,0.687C136.53,316.757,135.662,320.614,132.842,322.136z"/>
				<path style="fill:#DA3832;" d="M107.358,326.706c0.085,0.194,0.177,0.386,0.28,0.577
					C107.535,327.092,107.442,326.9,107.358,326.706z"/>
				<path style="fill:#FD5B68;" d="M108.009,327.97l-0.371-0.687c-0.103-0.191-0.195-0.383-0.28-0.577
					c-0.084-0.195-0.159-0.389-0.226-0.585c1.913,2.457,5.089,3.384,7.577,2.042l8.281-4.468l1.572,2.908l-8.281,4.468
					C113.461,332.593,109.757,331.202,108.009,327.97z"/>
			</g>
			<path style="opacity:0.4;fill:#FFFFFF;" d="M129.049,314.827l-16.903,9.12c-0.692,0.373-1.595,0.041-2.018-0.742l-0.09-0.166
				c-0.423-0.783-0.207-1.721,0.485-2.094l16.903-9.12c0.691-0.373,1.596-0.041,2.019,0.743l0.09,0.166
				C129.959,313.517,129.74,314.454,129.049,314.827z"/>
		</g>
		<g>
			<path style="fill:#E5E5E4;" d="M173.114,300.316l-15.554,8.392c-2.648,1.429-6.2-0.013-7.932-3.216l-0.368-0.68
				c-1.732-3.204-0.99-6.962,1.658-8.391l15.554-8.392c2.648-1.429,6.201,0.012,7.933,3.216l0.368,0.68
				C176.504,295.129,175.762,298.887,173.114,300.316z"/>
			<g>
				<g>
					<path style="fill:#FD5B68;" d="M147.902,306.424l-0.368-0.68c-1.732-3.204-0.843-7.041,1.987-8.568l8.311-4.484l6.642,12.287
						l-8.311,4.484C153.333,310.989,149.634,309.627,147.902,306.424z"/>
				</g>
			</g>
			<g>
				<path style="fill:#E5E5E4;" d="M172.842,300.554l-8.281,4.468l-1.572-2.908l8.281-4.468c2.488-1.342,3.453-4.504,2.446-7.45
					c0.254,0.327,0.49,0.68,0.695,1.06l0.371,0.687C176.529,295.175,175.661,299.033,172.842,300.554z"/>
				<path style="fill:#DA3832;" d="M147.357,305.125c0.085,0.194,0.177,0.386,0.28,0.577
					C147.534,305.511,147.441,305.319,147.357,305.125z"/>
				<path style="fill:#FD5B68;" d="M148.008,306.388l-0.371-0.687c-0.103-0.191-0.195-0.383-0.28-0.577
					c-0.084-0.195-0.159-0.389-0.226-0.585c1.913,2.457,5.089,3.384,7.577,2.042l8.281-4.468l1.572,2.908l-8.281,4.468
					C153.46,311.012,149.756,309.621,148.008,306.388z"/>
			</g>
			<path style="opacity:0.4;fill:#FFFFFF;" d="M169.048,293.245l-16.903,9.12c-0.692,0.373-1.595,0.041-2.018-0.742l-0.09-0.166
				c-0.423-0.783-0.207-1.721,0.485-2.094l16.903-9.12c0.691-0.373,1.596-0.041,2.019,0.743l0.09,0.166
				C169.958,291.935,169.739,292.873,169.048,293.245z"/>
		</g>
		<g>
			<path style="fill:#E5E5E4;" d="M118.738,295.301l-15.554,8.392c-2.648,1.429-6.2-0.013-7.932-3.216l-0.368-0.68
				c-1.732-3.204-0.99-6.962,1.658-8.391l15.554-8.392c2.648-1.429,6.201,0.012,7.933,3.216l0.368,0.68
				C122.128,290.114,121.386,293.872,118.738,295.301z"/>
			<g>
				<g>
					<path style="fill:#FD5B68;" d="M93.526,301.409l-0.368-0.68c-1.732-3.204-0.843-7.041,1.987-8.568l8.311-4.484l6.642,12.287
						l-8.311,4.484C98.957,305.974,95.257,304.612,93.526,301.409z"/>
				</g>
			</g>
			<g>
				<path style="fill:#E5E5E4;" d="M118.465,295.539l-8.281,4.468l-1.572-2.908l8.281-4.468c2.488-1.342,3.453-4.504,2.446-7.45
					c0.254,0.327,0.49,0.68,0.695,1.06l0.371,0.687C122.153,290.16,121.285,294.017,118.465,295.539z"/>
				<path style="fill:#DA3832;" d="M92.981,300.109c0.085,0.194,0.177,0.386,0.28,0.577
					C93.158,300.495,93.064,300.303,92.981,300.109z"/>
				<path style="fill:#FD5B68;" d="M93.632,301.373l-0.371-0.687c-0.103-0.191-0.195-0.383-0.28-0.577
					c-0.084-0.195-0.159-0.389-0.226-0.585c1.913,2.457,5.089,3.384,7.577,2.042l8.281-4.468l1.572,2.908l-8.281,4.468
					C99.084,305.996,95.379,304.605,93.632,301.373z"/>
			</g>
			<path style="opacity:0.4;fill:#FFFFFF;" d="M114.672,288.23l-16.903,9.12c-0.692,0.373-1.595,0.041-2.018-0.742l-0.09-0.166
				c-0.423-0.783-0.207-1.721,0.485-2.094l16.903-9.12c0.691-0.373,1.596-0.041,2.019,0.743l0.09,0.166
				C115.581,286.92,115.363,287.857,114.672,288.23z"/>
		</g>
		<g>
			<path style="fill:#E5E5E4;" d="M158.737,273.72l-15.554,8.392c-2.648,1.429-6.2-0.013-7.932-3.216l-0.368-0.68
				c-1.732-3.204-0.99-6.962,1.658-8.391l15.554-8.392c2.648-1.429,6.201,0.012,7.933,3.216l0.368,0.68
				C162.127,268.532,161.385,272.291,158.737,273.72z"/>
			<g>
				<g>
					<path style="fill:#FD5B68;" d="M133.525,279.827l-0.368-0.68c-1.732-3.204-0.843-7.041,1.987-8.568l8.311-4.484l6.642,12.287
						l-8.311,4.484C138.956,284.392,135.256,283.03,133.525,279.827z"/>
				</g>
			</g>
			<g>
				<path style="fill:#E5E5E4;" d="M158.464,273.957l-8.281,4.468l-1.572-2.908l8.281-4.468c2.488-1.342,3.453-4.504,2.446-7.45
					c0.254,0.327,0.49,0.68,0.695,1.06l0.371,0.687C162.152,268.578,161.284,272.436,158.464,273.957z"/>
				<path style="fill:#DA3832;" d="M132.98,278.528c0.085,0.194,0.177,0.386,0.28,0.577
					C133.157,278.914,133.063,278.722,132.98,278.528z"/>
				<path style="fill:#FD5B68;" d="M133.631,279.791l-0.371-0.687c-0.103-0.191-0.195-0.383-0.28-0.577
					c-0.084-0.195-0.159-0.389-0.226-0.585c1.913,2.457,5.089,3.384,7.577,2.042l8.281-4.468l1.572,2.908l-8.281,4.468
					C139.083,284.415,135.379,283.024,133.631,279.791z"/>
			</g>
			<path style="opacity:0.4;fill:#FFFFFF;" d="M154.671,266.649l-16.903,9.12c-0.692,0.373-1.595,0.041-2.018-0.742l-0.09-0.166
				c-0.423-0.783-0.207-1.721,0.485-2.094l16.903-9.12c0.691-0.373,1.596-0.041,2.019,0.743l0.09,0.166
				C155.58,265.338,155.362,266.276,154.671,266.649z"/>
		</g>
		<g>
			<path style="fill:#E5E5E4;" d="M104.36,268.704l-15.554,8.392c-2.648,1.429-6.2-0.013-7.932-3.216l-0.368-0.68
				c-1.732-3.204-0.99-6.962,1.658-8.391l15.554-8.392c2.648-1.429,6.201,0.012,7.933,3.216l0.368,0.68
				C107.75,263.517,107.009,267.275,104.36,268.704z"/>
			<g>
				<g>
					<path style="fill:#FD5B68;" d="M79.149,274.812l-0.368-0.68c-1.732-3.204-0.843-7.041,1.987-8.568l8.311-4.484l6.642,12.287
						l-8.311,4.484C84.58,279.377,80.88,278.015,79.149,274.812z"/>
				</g>
			</g>
			<g>
				<path style="fill:#E5E5E4;" d="M104.088,268.942l-8.281,4.468l-1.572-2.908l8.281-4.468c2.488-1.342,3.453-4.504,2.446-7.45
					c0.254,0.327,0.49,0.68,0.695,1.06l0.371,0.687C107.775,263.563,106.908,267.421,104.088,268.942z"/>
				<path style="fill:#DA3832;" d="M78.603,273.512c0.085,0.194,0.177,0.386,0.28,0.577
					C78.78,273.898,78.687,273.707,78.603,273.512z"/>
				<path style="fill:#FD5B68;" d="M79.255,274.776l-0.371-0.687c-0.103-0.191-0.195-0.383-0.28-0.577
					c-0.084-0.195-0.159-0.389-0.226-0.585c1.913,2.457,5.089,3.384,7.577,2.042l8.281-4.468l1.572,2.908l-8.281,4.468
					C84.706,279.399,81.002,278.009,79.255,274.776z"/>
			</g>
			<path style="opacity:0.4;fill:#FFFFFF;" d="M100.294,261.633l-16.903,9.12c-0.692,0.373-1.595,0.041-2.018-0.742l-0.09-0.166
				c-0.423-0.783-0.207-1.721,0.485-2.094l16.903-9.12c0.691-0.373,1.596-0.041,2.019,0.743l0.09,0.166
				C101.204,260.323,100.986,261.26,100.294,261.633z"/>
		</g>
		<g>
			<path style="fill:#E5E5E4;" d="M144.36,247.123l-15.554,8.392c-2.648,1.429-6.2-0.013-7.932-3.216l-0.368-0.68
				c-1.732-3.204-0.99-6.962,1.658-8.391l15.554-8.392c2.648-1.429,6.201,0.012,7.933,3.216l0.368,0.68
				C147.749,241.935,147.008,245.694,144.36,247.123z"/>
			<g>
				<g>
					<path style="fill:#FD5B68;" d="M119.148,253.23l-0.368-0.68c-1.732-3.204-0.843-7.041,1.987-8.568l8.311-4.484l6.642,12.287
						l-8.311,4.484C124.579,257.795,120.879,256.433,119.148,253.23z"/>
				</g>
			</g>
			<g>
				<path style="fill:#E5E5E4;" d="M144.087,247.36l-8.281,4.468l-1.572-2.908l8.281-4.468c2.488-1.342,3.453-4.504,2.446-7.45
					c0.254,0.327,0.49,0.68,0.695,1.06l0.371,0.687C147.774,241.981,146.907,245.839,144.087,247.36z"/>
				<path style="fill:#DA3832;" d="M118.603,251.931c0.085,0.194,0.177,0.386,0.28,0.577
					C118.779,252.317,118.686,252.125,118.603,251.931z"/>
				<path style="fill:#FD5B68;" d="M119.254,253.194l-0.371-0.687c-0.103-0.191-0.195-0.383-0.28-0.577
					c-0.084-0.195-0.159-0.389-0.226-0.585c1.913,2.457,5.089,3.384,7.577,2.042l8.281-4.468l1.572,2.908l-8.281,4.468
					C124.705,257.818,121.001,256.427,119.254,253.194z"/>
			</g>
			<path style="opacity:0.4;fill:#FFFFFF;" d="M140.293,240.052l-16.903,9.12c-0.692,0.373-1.595,0.041-2.018-0.742l-0.09-0.166
				c-0.423-0.783-0.207-1.721,0.485-2.094l16.903-9.12c0.691-0.373,1.596-0.041,2.019,0.743l0.09,0.166
				C141.203,238.741,140.985,239.679,140.293,240.052z"/>
		</g>
		
			<rect x="139.743" y="225.708" transform="matrix(0.8801 -0.4748 0.4748 0.8801 -129.6058 103.8605)" style="fill:#FFFFFF;" width="2.13" height="165.601"/>
	</g>
	<g>
		<path style="fill:#85ADC9;" d="M278.114,180.627H143.631c-5.467,0-9.899,4.432-9.899,9.899v200.701
			c0,5.467,4.432,9.898,9.899,9.898h134.483c5.467,0,9.898-4.432,9.898-9.898V190.525
			C288.013,185.058,283.581,180.627,278.114,180.627z"/>
		<path style="fill:#FFFFFF;" d="M278.114,185.661H143.631c-2.682,0-4.864,2.182-4.864,4.864v200.701
			c0,2.682,2.182,4.864,4.864,4.864h134.483c2.682,0,4.864-2.182,4.864-4.864V190.525
			C282.978,187.843,280.796,185.661,278.114,185.661z"/>
		<path style="fill:#293F60;" d="M242.9,180.181v11.171c0,2.083-1.688,3.772-3.772,3.772H181.25c-2.083,0-3.771-1.688-3.771-3.771
			v-11.171h-1.934v11.529c0,2.953,2.394,5.347,5.348,5.347h58.595c2.953,0,5.347-2.394,5.347-5.347v-11.529H242.9z"/>
		<path style="fill:#293F60;" d="M210.19,168.804L210.19,168.804c-2.922,0-5.291,2.369-5.291,5.291v9.273h10.581v-9.273
			C215.48,171.172,213.112,168.804,210.19,168.804z M210.19,176.085c-1.225,0-2.219-0.993-2.219-2.219s0.993-2.219,2.219-2.219
			s2.219,0.994,2.219,2.219S211.415,176.085,210.19,176.085z"/>
		<path style="fill:#293F60;" d="M244.702,183.367h-69.024c-1.466,0-2.655-1.189-2.655-2.655l0,0c0-1.466,1.189-2.655,2.655-2.655
			h69.024c1.466,0,2.655,1.188,2.655,2.655l0,0C247.357,182.178,246.168,183.367,244.702,183.367z"/>
		<path style="fill:#293F60;" d="M220.03,197.779h-18.315c-0.158,0-0.286-0.128-0.286-0.286v-3.297c0-0.158,0.128-0.286,0.286-0.286
			h18.315c0.158,0,0.286,0.128,0.286,0.286v3.297C220.316,197.651,220.188,197.779,220.03,197.779z"/>
		<g>
			<circle style="fill:#FD5B68;" cx="210.873" cy="229.676" r="21.649"/>
			<path style="fill:#FFFFFF;" d="M199.634,226.89h7.91v-6.982c0-1.538,1.247-2.785,2.785-2.785c1.538,0,2.785,1.247,2.785,2.785
				v6.982h7.91c1.538,0,2.785,1.247,2.785,2.785c0,1.538-1.247,2.785-2.785,2.785h-7.91v6.981c0,1.538-1.247,2.785-2.785,2.785
				c-1.538,0-2.785-1.247-2.785-2.785v-6.981h-7.91c-1.538,0-2.785-1.247-2.785-2.785
				C196.848,228.137,198.095,226.89,199.634,226.89z"/>
		</g>
		<path style="fill:#D7E0F7;" d="M176.894,264.388h-13.071c-2.354,0-4.262,1.908-4.262,4.262v13.071
			c0,2.354,1.908,4.262,4.262,4.262h13.071c2.354,0,4.262-1.908,4.262-4.262V268.65
			C181.157,266.296,179.248,264.388,176.894,264.388z"/>
		<g>
			<path style="fill:#D7E0F7;" d="M264.24,269.692h-66.223c-0.628,0-1.137,0.509-1.137,1.137c0,0.628,0.509,1.137,1.137,1.137
				h66.223c0.628,0,1.137-0.509,1.137-1.137C265.377,270.201,264.868,269.692,264.24,269.692z"/>
			<path style="fill:#D7E0F7;" d="M248.36,278.406h-34.464c-0.628,0-1.137,0.509-1.137,1.137s0.509,1.137,1.137,1.137h34.464
				c0.628,0,1.137-0.509,1.137-1.137S248.988,278.406,248.36,278.406z"/>
		</g>
		<path style="fill:#FD5B68;" d="M175.328,268.562c-2.146,2.998-4.293,5.995-6.439,8.993c-1.494-1.402-2.988-2.805-4.482-4.207
			c-0.9,1.145-1.8,2.291-2.7,3.436c2.533,1.675,5.067,3.351,7.6,5.026c3.234-3.475,6.468-6.95,9.702-10.425
			C177.783,270.444,176.556,269.503,175.328,268.562z"/>
		<path style="fill:#D7E0F7;" d="M176.894,294.319h-13.071c-2.354,0-4.262,1.908-4.262,4.262v13.071
			c0,2.354,1.908,4.262,4.262,4.262h13.071c2.354,0,4.262-1.908,4.262-4.262v-13.071
			C181.157,296.227,179.248,294.319,176.894,294.319z"/>
		<g>
			<path style="fill:#D7E0F7;" d="M264.24,299.623h-66.223c-0.628,0-1.137,0.509-1.137,1.137c0,0.628,0.509,1.137,1.137,1.137
				h66.223c0.628,0,1.137-0.509,1.137-1.137C265.377,300.132,264.868,299.623,264.24,299.623z"/>
			<path style="fill:#D7E0F7;" d="M248.36,308.338h-34.464c-0.628,0-1.137,0.509-1.137,1.137c0,0.628,0.509,1.137,1.137,1.137
				h34.464c0.628,0,1.137-0.509,1.137-1.137C249.497,308.846,248.988,308.338,248.36,308.338z"/>
		</g>
		<path style="fill:#FD5B68;" d="M175.328,298.493c-2.146,2.998-4.293,5.996-6.439,8.993c-1.494-1.402-2.988-2.805-4.482-4.207
			c-0.9,1.145-1.8,2.291-2.7,3.436c2.533,1.675,5.067,3.351,7.6,5.026c3.234-3.475,6.468-6.95,9.702-10.425
			C177.783,300.375,176.556,299.434,175.328,298.493z"/>
		<path style="fill:#D7E0F7;" d="M176.894,324.251h-13.071c-2.354,0-4.262,1.908-4.262,4.262v13.071
			c0,2.354,1.908,4.262,4.262,4.262h13.071c2.354,0,4.262-1.908,4.262-4.262v-13.071
			C181.157,326.159,179.248,324.251,176.894,324.251z"/>
		<g>
			<path style="fill:#D7E0F7;" d="M264.24,329.555h-66.223c-0.628,0-1.137,0.509-1.137,1.137c0,0.628,0.509,1.137,1.137,1.137
				h66.223c0.628,0,1.137-0.509,1.137-1.137C265.377,330.064,264.868,329.555,264.24,329.555z"/>
			<path style="fill:#D7E0F7;" d="M248.36,338.269h-34.464c-0.628,0-1.137,0.509-1.137,1.137c0,0.628,0.509,1.137,1.137,1.137
				h34.464c0.628,0,1.137-0.509,1.137-1.137C249.497,338.778,248.988,338.269,248.36,338.269z"/>
		</g>
		<path style="fill:#FD5B68;" d="M175.328,328.425c-2.146,2.998-4.293,5.996-6.439,8.993c-1.494-1.402-2.988-2.805-4.482-4.207
			c-0.9,1.145-1.8,2.291-2.7,3.436c2.533,1.675,5.067,3.351,7.6,5.026c3.234-3.475,6.468-6.95,9.702-10.425
			C177.783,330.306,176.556,329.366,175.328,328.425z"/>
		<path style="fill:#D7E0F7;" d="M176.894,354.182h-13.071c-2.354,0-4.262,1.908-4.262,4.262v13.071
			c0,2.354,1.908,4.262,4.262,4.262h13.071c2.354,0,4.262-1.908,4.262-4.262v-13.071
			C181.157,356.09,179.248,354.182,176.894,354.182z"/>
		<g>
			<path style="fill:#D7E0F7;" d="M264.24,359.486h-66.223c-0.628,0-1.137,0.509-1.137,1.137c0,0.628,0.509,1.137,1.137,1.137
				h66.223c0.628,0,1.137-0.509,1.137-1.137C265.377,359.995,264.868,359.486,264.24,359.486z"/>
			<path style="fill:#D7E0F7;" d="M248.36,368.2h-34.464c-0.628,0-1.137,0.509-1.137,1.137c0,0.628,0.509,1.137,1.137,1.137h34.464
				c0.628,0,1.137-0.509,1.137-1.137C249.497,368.709,248.988,368.2,248.36,368.2z"/>
		</g>
		<path style="fill:#FD5B68;" d="M175.328,358.356c-2.146,2.998-4.293,5.996-6.439,8.993c-1.494-1.402-2.988-2.805-4.482-4.207
			c-0.9,1.145-1.8,2.291-2.7,3.436c2.533,1.675,5.067,3.351,7.6,5.026c3.234-3.475,6.468-6.95,9.702-10.425
			C177.783,360.238,176.556,359.297,175.328,358.356z"/>
		<path style="fill:#EBEDF7;" d="M278.114,185.661c-3.167,136.347-27.753,204.003-139.347,205.565c0,2.682,2.182,4.864,4.864,4.864
			h134.483c2.682,0,4.864-2.182,4.864-4.864V190.525C282.978,187.843,280.796,185.661,278.114,185.661z"/>
	</g>
	<rect x="55.677" y="395.362" style="fill:#293F60;" width="382.303" height="6.313"/>
	<g>
		<path style="fill:#B2DCF7;" d="M384.48,190.354h-41.178c-3.802,0-6.884-3.082-6.884-6.884v-41.178
			c0-3.802,3.082-6.884,6.884-6.884h41.178c3.802,0,6.884,3.082,6.884,6.884v41.178C391.364,187.272,388.282,190.354,384.48,190.354
			z"/>
		<g>
			<path style="fill:#FFFFFF;" d="M353.402,184.393c-0.031,0-0.062-0.001-0.093-0.004c-0.53-0.045-0.951-0.465-0.997-0.995
				l-2.953-34.057l-3.548,13.816c-0.124,0.483-0.56,0.821-1.059,0.821h-3.974c-0.604,0-1.093-0.49-1.093-1.093
				c0-0.604,0.49-1.093,1.093-1.093h3.126l4.932-19.203c0.133-0.516,0.62-0.861,1.149-0.818c0.531,0.044,0.953,0.464,0.999,0.995
				l2.96,34.14l6.347-24.271c0.126-0.482,0.572-0.817,1.061-0.817c0.499,0.002,0.933,0.34,1.056,0.823l2.332,9.15h7.706
				l4.448-15.493c0.145-0.504,0.629-0.833,1.15-0.787c0.523,0.048,0.938,0.46,0.989,0.982l2.462,25.142l1.476-8.929
				c0.087-0.528,0.544-0.915,1.079-0.915h3.478c0.604,0,1.093,0.49,1.093,1.093c0,0.604-0.49,1.093-1.093,1.093h-2.551
				l-2.682,16.216c-0.089,0.541-0.565,0.937-1.115,0.914c-0.548-0.018-0.998-0.44-1.052-0.986l-2.714-27.715l-3.094,10.779
				c-0.135,0.469-0.563,0.792-1.051,0.792h-9.379c-0.5,0-0.936-0.339-1.059-0.823l-1.496-5.87l-6.876,26.295
				C354.333,184.06,353.895,184.393,353.402,184.393z"/>
		</g>
	</g>
	<g>
		<path style="fill:#A5C8E4;" d="M323.078,206.184h-35.152c-3.246,0-5.877-2.631-5.877-5.877v-35.152
			c0-3.246,2.631-5.877,5.877-5.877h35.152c3.246,0,5.877,2.631,5.877,5.877v35.152
			C328.955,203.553,326.324,206.184,323.078,206.184z"/>
		<g>
			<path style="fill:#FCE3A6;" d="M316.417,180.888c-0.349,0-0.684-0.197-0.844-0.533l-4.001-8.434
				c-0.221-0.466-0.022-1.022,0.443-1.243c0.466-0.221,1.022-0.022,1.243,0.443l4.001,8.434c0.221,0.466,0.022,1.022-0.443,1.243
				C316.687,180.859,316.551,180.888,316.417,180.888z"/>
		</g>
		<g>
			<path style="fill:#FCE3A6;" d="M310.934,183.99c-0.385,0-0.746-0.24-0.881-0.624l-3.295-9.387
				c-0.171-0.486,0.085-1.019,0.571-1.19c0.487-0.171,1.019,0.085,1.19,0.571l3.295,9.387c0.171,0.486-0.085,1.019-0.571,1.19
				C311.141,183.973,311.037,183.99,310.934,183.99z"/>
		</g>
		<g>
			<path style="fill:#FCE3A6;" d="M306.212,186.815c-0.082,0-0.165-0.011-0.248-0.034l-9.297-2.561
				c-0.497-0.137-0.789-0.651-0.652-1.148c0.137-0.497,0.651-0.789,1.148-0.652l9.297,2.561c0.497,0.137,0.789,0.651,0.652,1.148
				C306.997,186.543,306.621,186.815,306.212,186.815z"/>
		</g>
		<g>
			<path style="fill:#FCE3A6;" d="M303.876,192.117c-0.112,0-0.225-0.02-0.336-0.063l-9.919-3.824
				c-0.481-0.185-0.721-0.726-0.535-1.207c0.185-0.481,0.726-0.721,1.207-0.535l9.919,3.824c0.481,0.185,0.721,0.726,0.535,1.207
				C304.604,191.89,304.251,192.117,303.876,192.117z"/>
		</g>
		<g>
			<path style="fill:#FFFFFF;" d="M294.254,198.222c-0.379,0-0.735-0.232-0.875-0.608c-0.151-0.407-3.624-10.019,2.97-15.036
				c3.63-2.762,6.685-1.941,9.64-1.146c2.413,0.649,4.693,1.262,7.424-0.02c5.694-2.673,2.469-12.847,2.436-12.95
				c-0.159-0.49,0.109-1.017,0.599-1.176c0.49-0.159,1.016,0.108,1.176,0.598c0.157,0.482,3.765,11.846-3.418,15.217
				c-3.349,1.572-6.192,0.807-8.701,0.133c-2.75-0.74-5.124-1.378-8.025,0.829c-5.488,4.176-2.382,12.815-2.35,12.902
				c0.178,0.483-0.068,1.02-0.551,1.199C294.471,198.203,294.362,198.222,294.254,198.222z"/>
		</g>
		<g>
			<path style="fill:#FFFFFF;" d="M297.007,194.856c-4.008,0-7.511-1.773-7.747-1.894c-0.458-0.237-0.637-0.8-0.4-1.258
				c0.237-0.458,0.8-0.637,1.258-0.4c0.081,0.042,8.28,4.172,13.09-0.77c2.542-2.612,2.196-5.046,1.796-7.865
				c-0.366-2.572-0.78-5.487,1.186-8.621c4.217-6.721,15.06-1.763,15.519-1.548c0.467,0.218,0.669,0.773,0.451,1.24
				c-0.218,0.467-0.773,0.669-1.24,0.451c-0.128-0.059-9.811-4.471-13.149,0.849c-1.603,2.555-1.271,4.892-0.919,7.367
				c0.431,3.029,0.876,6.161-2.306,9.43C302.301,194.141,299.552,194.855,297.007,194.856z"/>
		</g>
	</g>
	<g>
		<g>
			<path style="fill:#CC293D;" d="M157.516,98.802c-3.7,0.887-5.769,1.868-7.356,4.842c-1.49,2.793,0.057,5.241-0.564,7.372
				c-0.621,2.131-3.608,3.358-3.466,7.567c0.143,4.209,5.415,5.13,5.064,7.879c-0.352,2.749-2.137,2.273-2.221,5.056
				c-0.084,2.783,2.725,5.533,2.725,5.533s8.832-0.3,15.502-2.091c6.671-1.791,12.396-6.726,12.396-6.726s1.183-5.255,0.217-7.704
				c-0.967-2.448-3.622-2.691-4.285-4.584c-0.662-1.893,1.011-2.608-0.172-6.059c-1.184-3.452-3.956-2.389-5.282-4.05
				c-1.326-1.662-1.325-3.786-3.565-5.573C164.268,98.475,161.799,97.775,157.516,98.802z"/>
			<g>
				<g>
					<path style="fill:#F48282;" d="M166.005,121.605c0.066,0.462,0.084,0.917,0.059,1.354c-0.127,2.202-1.35,3.98-3.07,4.226
						l-0.117,0.017c-2.062,0.295-4.055-1.725-4.454-4.512l-1.158-8.097l6.849-2.197L166.005,121.605z"/>
				</g>
			</g>
			<path style="fill-rule:evenodd;clip-rule:evenodd;fill:#F48282;" d="M159.442,103.593c0,0-2.066,0.844-3.109,3.144
				c-1.038,2.288-1.127,8.596,3.591,10.795c4.715,2.199,7.554-2.394,7.083-6.374C166.543,107.178,165.022,102.013,159.442,103.593z"
				/>
			<path style="fill-rule:evenodd;clip-rule:evenodd;fill:#F48282;" d="M168.125,109.796c0.201,1.016-0.1,1.944-0.676,2.043
				c-0.572,0.112-1.197-0.638-1.397-1.654c-0.199-1.029,0.104-1.944,0.677-2.055C167.298,108.016,167.927,108.766,168.125,109.796z"
				/>
			<path style="fill-rule:evenodd;clip-rule:evenodd;fill:#F48282;" d="M156.799,112.284c0.449,0.982,0.297,2.043-0.344,2.376
				c-0.639,0.319-1.526-0.216-1.974-1.199c-0.452-0.983-0.297-2.043,0.341-2.362C155.461,110.78,156.347,111.301,156.799,112.284z"
				/>
			<g>
				<path style="fill:#FD5B68;" d="M171.471,181.625c0,0-2.113,0.679-4.841,1.101v-1.101H171.471z"/>
				<path style="fill:#CC293D;" d="M220.164,208.8c-0.39-3.241-12.12-5.728-24.036-4.294c-11.917,1.435-19.41,7.848-19.019,11.089
					c0.39,3.24,10.381,2.631,22.298,1.197C211.322,215.358,220.554,212.041,220.164,208.8z"/>
				<path style="fill:#DD6B6B;" d="M180.121,208.95l13.613,28.269l9.361-0.106l-6.967-32.606L180.121,208.95z"/>
				<path style="fill:#6E67A4;" d="M201.47,237.034l2.459,6.442l0.25,9.687c0,0-4.576,1.426-6.444,1.328
					c-1.869-0.098-4.241-9.354-4.241-9.354l0.257-7.168L201.47,237.034z"/>
				<path style="fill:#F48282;" d="M193.494,196.485c0,0,0,8.022,1.055,24.378c0.884,13.737,0,18.652,0,18.652
					s10.555,1.807,10.371,1.928c-0.053,0.035,0.374-6.362,0.943-11.234c1.401-11.987,2.831-31.563,2.831-31.563L193.494,196.485z"/>
				<path style="opacity:0.6;fill:#D6786C;enable-background:new    ;" d="M208.154,205.924c-8.281-2.591-26.535,6.905-26.535,6.905
					l4.108,7.624c0,0,6.635-5.085,8.138-5.881c1.503-0.796,13.832-3.197,13.832-3.197L208.154,205.924z"/>
				<path style="fill:#FD5B68;" d="M171.631,161.806c6.708,0.183,12.635,1.642,12.635,1.642c0,0,16.818,1.563,24.447,14.914
					c7.629,13.351,11.451,30.438,11.451,30.438s-8.118-4.047-18.904-2.348c-1.669,0.262-3.398,0.689-5.134,1.178
					c-9.49,2.671-19.113,7.966-19.113,7.966l-5.542-33.971h-4.841v1.101c-5.606,0.867-14.047,0.566-13.786-9.511
					C153.099,163.443,163.008,161.571,171.631,161.806z"/>
				<path style="fill:#BA3E48;" d="M180.36,208.901c-0.237-0.119-0.168-0.164-0.239,0.048"/>
				<path style="fill:#CC293D;" d="M205.007,238.897c0,0,5.274,8.29,8.776,10.959c3.501,2.668,2.532,5.914,2.532,5.914
					l-16.058-4.213l-1.068-2.406l-1.674-3.772l-1.264,5.128l-4.331-1.135c0.011-0.062,0.024-0.16,0.035-0.227l2.332-11.926
					c0,0,0.062,0.001,0.064,0.001C194.505,237.218,205.007,238.897,205.007,238.897z"/>
				<path style="fill:#FFFFFF;" d="M199.708,249.318l16.771,4.773c0.059,0.017,0.093,0.08,0.076,0.139
					c-0.017,0.059-0.08,0.093-0.139,0.076l-16.77-4.773c-0.06-0.017-0.093-0.08-0.078-0.139
					C199.586,249.335,199.648,249.301,199.708,249.318z"/>
				<path style="fill:#FFFFFF;" d="M196.611,243.007c0.058-0.023,0.122,0.006,0.146,0.062l0.998,2.411
					c0.022,0.057-0.007,0.122-0.062,0.145c-0.058,0.023-0.124-0.006-0.146-0.062l-0.998-2.411
					C196.524,243.096,196.553,243.031,196.611,243.007z"/>
			</g>
			<g>
				<path style="fill:#FFFFFF;" d="M179.827,163.955c1.335,1.071,4.806,3.232,12.217,1.745
					c-5.004-14.43-10.008-28.859-15.011-43.289c0,0-4.677-1.965-11.013-2.046l5.214,18.029c0.975,3.767,1.821,6.991,2.485,9.504
					C176.882,159.872,177.614,162.179,179.827,163.955z"/>
				<path style="fill:#FFFFFF;" d="M177.04,122.437c-0.261-0.115-0.509-0.214-0.74-0.3c0.475,0.166,0.732,0.274,0.732,0.274
					L177.04,122.437z"/>
				<path style="fill:#FFFFFF;" d="M157.993,121.783c0,0-13.185,7.304-15.149,10.629c-1.963,3.325,11.968,26.128,11.968,26.128
					l-2.88,21.349c0,0,16.567-0.267,25.118-3.915l-6.648-25.458L157.993,121.783z"/>
				<path style="fill:#15EADF;" d="M158.154,122.156c0,0,5.312,3.182,7.865-1.791l12.38,42.531l-4.482,1.307l-3.515-13.688
					L158.154,122.156z"/>
				<polygon style="fill:#97D0F0;" points="157.993,121.783 151.976,127.994 159.937,132.914 158.811,136.892 170.402,150.516 				
					"/>
				<polygon style="fill:#97D0F0;" points="165.838,119.999 173.775,122.268 171.129,130.235 174.553,132.725 174.412,149.265 				
					"/>
				<path style="fill:#FFFFFF;" d="M197.957,124.86c0,0,2.57,20.912-2.071,24.066c-2.524,1.715-9.415-1.96-11.943-3.418
					l-7.043-23.125c2.025,0.857,4.859,2.627,7.173,6.23c4.091,6.371,5.971,9.221,5.971,9.221l1.521-14.548L197.957,124.86z"/>
				<path style="fill:#F48282;" d="M198.374,132.836l4.672-4.382l0.962-4.88c0.126-0.423-0.075-0.888-0.474-1.1
					c-1.073-0.568-3.077-1.573-3.637-1.462c-0.775,0.154-2.196,3.314-1.666,4.193s1.103,1.732,1.103,1.732l-2.328,1.318
					L198.374,132.836z"/>
				<g>
					<g id="XMLID_00000052090480275087544880000001205022905437072522_">
						<g>
							<path style="fill:#293F60;" d="M193.111,117.299c1.296-0.185,2.605,0.701,2.924,1.978l5.157,20.624
								c0.319,1.277-0.472,2.461-1.768,2.645l-14.374,2.047c-1.296,0.185-2.606-0.7-2.925-1.977l-5.157-20.624
								c-0.319-1.277,0.473-2.462,1.769-2.647L193.111,117.299z"/>
							<path style="fill:#F4E68B;" d="M194.893,118.097l5.629,22.509l-14.87,2.118l-5.629-22.509l1.925-0.274l0.127,0.508
								l11.253-1.603l-0.127-0.508L194.893,118.097z"/>
							<path style="fill:#86B1F2;" d="M194.508,117.1c1.296-0.185,2.605,0.701,2.924,1.978l5.157,20.624
								c0.319,1.277-0.472,2.461-1.768,2.645l-14.374,2.047c-1.296,0.185-2.606-0.7-2.925-1.977l-5.157-20.624
								c-0.319-1.277,0.473-2.462,1.769-2.647L194.508,117.1z"/>
							<defs>
								
									<filter id="Adobe_OpacityMaskFilter" filterUnits="userSpaceOnUse" x="178.294" y="117.076" width="24.366" height="27.344">
									<feFlood  style="flood-color:white;flood-opacity:1" result="back"/>
									<feBlend  in="SourceGraphic" in2="back" mode="normal"/>
								</filter>
							</defs>
							<mask maskUnits="userSpaceOnUse" x="178.294" y="117.076" width="24.366" height="27.344" id="SVGID_1_">
								<g style="filter:url(#Adobe_OpacityMaskFilter);">
									<defs>
										
											<filter id="Adobe_OpacityMaskFilter_00000073684713819470653990000005789798658504697252_" filterUnits="userSpaceOnUse" x="178.294" y="117.076" width="24.366" height="27.344">
											<feFlood  style="flood-color:white;flood-opacity:1" result="back"/>
											<feBlend  in="SourceGraphic" in2="back" mode="normal"/>
										</filter>
									</defs>
									<mask maskUnits="userSpaceOnUse" x="178.294" y="117.076" width="24.366" height="27.344" id="SVGID_1_">
										<g style="filter:url(#Adobe_OpacityMaskFilter_00000073684713819470653990000005789798658504697252_);">
										</g>
									</mask>
									
										<linearGradient id="SVGID_00000168830377346900584830000015213885793162631053_" gradientUnits="userSpaceOnUse" x1="180.7014" y1="144.1651" x2="198.0252" y2="120.3614" gradientTransform="matrix(0.99 -0.141 0.141 0.99 -16.3117 27.7669)">
										<stop  offset="0" style="stop-color:#FFFFFF"/>
										<stop  offset="0.1023" style="stop-color:#FAFAFA"/>
										<stop  offset="0.226" style="stop-color:#EBEBEB"/>
										<stop  offset="0.3607" style="stop-color:#D3D3D3"/>
										<stop  offset="0.5034" style="stop-color:#B0B0B0"/>
										<stop  offset="0.6523" style="stop-color:#848484"/>
										<stop  offset="0.8064" style="stop-color:#4F4F4F"/>
										<stop  offset="0.962" style="stop-color:#101010"/>
										<stop  offset="1" style="stop-color:#000000"/>
										<stop  offset="1" style="stop-color:#FFFFFF"/>
									</linearGradient>
									<path style="mask:url(#SVGID_1_);fill:url(#SVGID_00000168830377346900584830000015213885793162631053_);" d="
										M194.508,117.1c1.296-0.185,2.605,0.701,2.924,1.978l5.157,20.624c0.319,1.277-0.472,2.461-1.768,2.645l-14.374,2.047
										c-1.296,0.185-2.606-0.7-2.925-1.977l-5.157-20.624c-0.319-1.277,0.473-2.462,1.769-2.647L194.508,117.1z"/>
								</g>
							</mask>
							<path style="fill:#A5C8E4;" d="M194.508,117.1c1.296-0.185,2.605,0.701,2.924,1.978l5.157,20.624
								c0.319,1.277-0.472,2.461-1.768,2.645l-14.374,2.047c-1.296,0.185-2.606-0.7-2.925-1.977l-5.157-20.624
								c-0.319-1.277,0.473-2.462,1.769-2.647L194.508,117.1z"/>
							<path style="fill:#FFFFFF;" d="M194.893,118.097l5.629,22.509l-12.951,1.844c-1.091,0.155-2.122-0.539-2.39-1.607
								l-5.159-20.629L194.893,118.097z"/>
							<path style="fill:#171C51;" d="M186.909,117.543l0.513-0.073c-0.076,0.034-0.159,0.058-0.248,0.071
								C187.086,117.553,186.997,117.554,186.909,117.543z"/>
							<path style="fill:#293F60;" d="M192.638,117.367c-0.355-0.338-0.823-0.522-1.277-0.458l-3.19,0.454
								c0.172-0.279,0.231-0.629,0.142-0.982c-0.187-0.75-0.959-1.271-1.72-1.163c-0.76,0.108-1.226,0.806-1.039,1.556
								c0.089,0.354,0.311,0.663,0.606,0.876l-3.189,0.454c-0.454,0.065-0.801,0.365-0.968,0.777
								c-0.126,0.303-0.154,0.666-0.06,1.042l0.004,0.017l0.127,0.508l11.253-1.603l-0.127-0.508l-0.004-0.017
								C193.103,117.945,192.901,117.614,192.638,117.367z M186.792,116.011c0.317-0.045,0.639,0.172,0.717,0.485
								c0.064,0.255-0.054,0.504-0.291,0.608c-0.085,0.038-0.197,0.054-0.295,0.042l-0.004,0c-0.266-0.031-0.496-0.231-0.559-0.486
								C186.281,116.347,186.475,116.056,186.792,116.011z"/>
						</g>
					</g>
					<path style="fill:#BBBDBF;" d="M187.772,142.453c0.667-0.095,1.06-0.803,0.877-1.582l15.613-2.224
						c0.182,0.779-0.211,1.487-0.877,1.582L187.772,142.453z"/>
				</g>
				<path style="fill:#FFFFFF;" d="M178.319,135.872l5.141,4.28c0,0-12.6,17.807-20.581,17.814
					c-6.275,0.006-17.179-18.049-18.83-19.997c-1.651-1.948-1.939-8.614,3.527-7.403s16.58,17.392,16.58,17.392L178.319,135.872z"/>
				<path style="fill:#F48282;" d="M178.283,136.285c0,0,2.976-5.28,4.445-5.58c1.469-0.3,4.167-0.902,4.798,0.096
					c0.631,0.998,0.962,5.48,0.613,6.069c-0.349,0.589-3.957,1.432-3.957,1.432l-1.392,1.637L178.283,136.285z"/>
			</g>
			<path style="fill:#CC293D;" d="M155.488,110.838c0,0,1.333-0.907,1.475-1.997c0.142-1.09-0.291-1.824-0.291-1.824
				s2.372-0.434,2.825-2.134c0,0,1.943,1.947,3.908,0.731c0,0,1.004,2.397,3.07,2.31l0.323-0.995l-2.965-4.141l-2.552-0.974
				l-3.795,1.019l-2.567,2.065l-0.078,3.542L155.488,110.838z"/>
			<g>
				<g>
					<path style="fill:#FFFFFF;" d="M156.334,114.527c0.917,0,0.919-1.425,0-1.425C155.417,113.102,155.416,114.527,156.334,114.527
						L156.334,114.527z"/>
				</g>
			</g>
			<g>
				<g>
					<path style="fill:#FFFFFF;" d="M167.77,111.451c0.917,0,0.919-1.425,0-1.425C166.853,110.026,166.852,111.451,167.77,111.451
						L167.77,111.451z"/>
				</g>
			</g>
			<g>
				<g>
					<path style="fill:#D36666;" d="M162.626,112.683c0.008-0.001,0.016-0.003,0.024-0.005c0.221-0.06,1.326-0.392,1.314-1.009
						c-0.01-0.54-1.086-2.038-1.301-2.333c-0.057-0.078-0.167-0.095-0.245-0.038c-0.078,0.057-0.095,0.167-0.038,0.245
						c0.474,0.648,1.227,1.8,1.234,2.132c0.005,0.256-0.626,0.547-1.055,0.664c-0.094,0.025-0.149,0.122-0.123,0.216
						C162.458,112.64,162.54,112.693,162.626,112.683z"/>
				</g>
				<g>
					<path d="M164.984,109.302c0.06,0.294-0.107,0.577-0.374,0.632c-0.267,0.055-0.532-0.139-0.593-0.433
						c-0.06-0.294,0.107-0.577,0.374-0.632C164.658,108.814,164.923,109.008,164.984,109.302z"/>
				</g>
				<g>
					<path d="M158.704,108.705c0.042-0.005,0.081-0.025,0.111-0.059c0.669-0.773,1.7-0.403,1.71-0.4
						c0.091,0.033,0.192-0.013,0.226-0.104c0.034-0.091-0.013-0.192-0.104-0.226c-0.052-0.019-1.272-0.455-2.098,0.499
						c-0.063,0.073-0.056,0.184,0.018,0.248C158.607,108.697,158.657,108.711,158.704,108.705z"/>
				</g>
				<g>
					<path d="M163.457,107.661c0.038-0.005,0.074-0.022,0.103-0.051l0,0c0.023-0.023,0.562-0.552,1.208-0.208
						c0.086,0.045,0.192,0.013,0.238-0.073c0.045-0.086,0.013-0.192-0.073-0.238c-0.705-0.375-1.37,0.014-1.623,0.271
						c-0.068,0.069-0.067,0.18,0.002,0.248C163.352,107.651,163.406,107.668,163.457,107.661z"/>
				</g>
				<g>
					<path d="M161.037,113.926c2.464,0.144,3.43-0.457,3.43-0.457s0.33,1.476-1.039,1.836
						C161.47,115.819,161.037,113.926,161.037,113.926z"/>
				</g>
				<g>
					<path style="fill:#FFFFFF;" d="M164.389,113.511c0,0-0.016,0.286-0.03,0.345c-0.016,0.058-0.22,0.257-1.183,0.475
						c-0.814,0.185-1.707,0.088-1.96,0.054c-0.132-0.255-0.178-0.458-0.178-0.458c0.144,0.009,0.283,0.014,0.417,0.017
						c1.782,0.049,2.675-0.308,2.932-0.433C164.389,113.511,164.389,113.511,164.389,113.511z"/>
				</g>
				<g>
					<ellipse transform="matrix(0.9796 -0.201 0.201 0.9796 -18.9155 34.5104)" cx="160.467" cy="110.393" rx="0.508" ry="0.56"/>
				</g>
			</g>
		</g>
		<g>
			<g>
				<g>
					<path style="fill:#293F60;" d="M168.005,102.984c-0.012-0.073-0.029-0.146-0.05-0.218c-0.027-0.092-0.06-0.248-0.126-0.321
						c-0.03-0.033-0.035-0.026-0.084-0.018c-0.039,0.007-0.079,0.013-0.118,0.02c-0.079,0.013-0.158,0.027-0.237,0.04
						c-0.353,0.061-0.705,0.125-1.057,0.193c-0.84,0.163-1.677,0.347-2.507,0.556c-0.714,0.179-1.423,0.377-2.125,0.597
						c-0.237,0.074-0.474,0.152-0.711,0.232l0.223,0.709c0.906-0.307,1.826-0.571,2.754-0.805c0.832-0.21,1.671-0.395,2.514-0.559
						c0.277-0.054,0.554-0.106,0.831-0.155c0.127-0.023,0.255-0.045,0.382-0.066c0.05-0.009,0.333-0.031,0.328-0.082
						C168.018,103.068,168.012,103.026,168.005,102.984z"/>
				</g>
			</g>
			<g>
				<g>
					<path style="fill:#293F60;" d="M153.218,107.639c-0.032-0.067-0.06-0.137-0.084-0.207c-0.031-0.091-0.093-0.238-0.081-0.335
						c0.006-0.044,0.014-0.042,0.059-0.063c0.036-0.017,0.072-0.035,0.108-0.052c0.072-0.034,0.145-0.069,0.217-0.103
						c0.324-0.152,0.65-0.301,0.977-0.447c0.782-0.348,1.573-0.676,2.373-0.98c0.688-0.262,1.382-0.506,2.084-0.728
						c0.237-0.075,0.476-0.147,0.716-0.217l0.224,0.709c-0.919,0.267-1.824,0.578-2.718,0.918c-0.802,0.305-1.596,0.634-2.38,0.982
						c-0.258,0.114-0.514,0.231-0.77,0.349c-0.117,0.054-0.234,0.109-0.351,0.164c-0.046,0.022-0.291,0.165-0.316,0.121
						C153.255,107.714,153.236,107.677,153.218,107.639z"/>
				</g>
			</g>
			<g>
				<g>
					<g>
						<g>
							<polygon style="fill:none;" points="162.484,106.57 162.518,106.58 162.484,106.57 							"/>
						</g>
					</g>
					<g>
						<g>
							
								<rect x="157.597" y="105.859" transform="matrix(0.9539 -0.3002 0.3002 0.9539 -24.3976 52.9516)" style="fill:#97D0F0;" width="4.99" height="0"/>
						</g>
					</g>
					<g>
						<g>
							<path style="fill:#97D0F0;" d="M162.797,103.225c-0.81-1.302-2.526-1.7-3.826-0.887c-0.518,0.321-0.892,0.788-1.102,1.315
								l2.258,0.668c0.041-0.03,0.083-0.056,0.135-0.073c0.232-0.073,0.481,0.054,0.562,0.28l2.287,0.675
								c-0.023,0.172-0.061,0.339-0.117,0.504l-2.296-0.683c-0.044,0.041-0.101,0.075-0.162,0.095
								c-0.242,0.076-0.496-0.059-0.571-0.298l-0.005-0.015l-2.24-0.663c-0.049,0.241-0.069,0.486-0.052,0.732l4.994,1.478
								C163.328,105.465,163.418,104.226,162.797,103.225z M163.131,104.66l-4.999-1.483c0.2-0.272,0.455-0.51,0.761-0.7
								c0.101-0.062,0.202-0.117,0.314-0.166l3.497,1.038l0.012,0.016C162.969,103.769,163.105,104.214,163.131,104.66z"/>
						</g>
					</g>
					<g>
						<g>
							<path style="fill:#97D0F0;" d="M158.083,106.162c0.811,1.302,2.524,1.7,3.826,0.889c0.219-0.136,0.41-0.3,0.576-0.481
								l-4.784-1.42C157.759,105.499,157.884,105.843,158.083,106.162z"/>
						</g>
					</g>
					<g>
						<g>
							<path style="fill:#FFFFFF;" d="M162.718,103.366l-0.011-0.018l-3.498-1.037c-0.111,0.049-0.214,0.103-0.316,0.166
								c-0.306,0.19-0.56,0.43-0.76,0.701l4.997,1.482C163.105,104.215,162.969,103.769,162.718,103.366z"/>
						</g>
					</g>
					<g>
						<g>
							<path style="fill:#FFFFFF;" d="M157.849,103.647c-0.07,0.155-0.13,0.318-0.174,0.482l0.046,0.014
								c0.034-0.167,0.083-0.331,0.148-0.49L157.849,103.647z"/>
						</g>
					</g>
					<g>
						<g>
							<path style="fill:#FFFFFF;" d="M163.111,105.204c-0.023,0.172-0.061,0.339-0.117,0.504l-2.296-0.683
								c0.132-0.115,0.192-0.299,0.136-0.476c-0.003-0.009-0.008-0.014-0.01-0.02L163.111,105.204z"/>
						</g>
					</g>
					<g>
						<g>
							<path style="fill:#FFFFFF;" d="M160.126,104.321c-0.147,0.11-0.218,0.301-0.166,0.486l-2.24-0.663
								c0.034-0.169,0.084-0.332,0.148-0.49L160.126,104.321z"/>
						</g>
					</g>
					<g>
						<g>
							<path style="fill:#FFFFFF;" d="M157.585,104.851c0.001,0.09,0.005,0.179,0.016,0.268l0.1,0.03
								c-0.015-0.091-0.026-0.182-0.032-0.273L157.585,104.851z"/>
						</g>
					</g>
					<g>
						<g>
							<path style="fill:#FFFFFF;" d="M162.518,106.58c0.057-0.071,0.111-0.145,0.16-0.221l-0.015-0.005
								c-0.056,0.075-0.115,0.146-0.179,0.215L162.518,106.58z"/>
						</g>
					</g>
					<g>
						<g>
							<path style="fill:#FFFFFF;" d="M157.701,105.149l4.784,1.42c0.064-0.069,0.123-0.141,0.179-0.215l-4.994-1.478
								C157.675,104.968,157.685,105.059,157.701,105.149z"/>
						</g>
					</g>
				</g>
				<g>
					<g>
						<path style="fill:#293F60;" d="M161.317,107.498c-0.495,0.156-1.024,0.177-1.542,0.057c-0.764-0.177-1.414-0.642-1.828-1.308
							c-0.856-1.375-0.434-3.19,0.94-4.047c0.667-0.415,1.454-0.545,2.218-0.368c0.764,0.177,1.414,0.642,1.829,1.308l0,0
							c0.856,1.375,0.434,3.19-0.94,4.046C161.778,107.32,161.552,107.424,161.317,107.498z M159.658,102.195
							c-0.209,0.066-0.411,0.159-0.602,0.277c-1.225,0.763-1.6,2.38-0.838,3.605c0.37,0.593,0.948,1.007,1.629,1.165
							c0.681,0.158,1.383,0.041,1.976-0.328c1.225-0.762,1.601-2.38,0.838-3.604l0,0c-0.37-0.593-0.948-1.007-1.629-1.165
							C160.57,102.037,160.099,102.056,159.658,102.195z"/>
					</g>
				</g>
			</g>
		</g>
	</g>
	<g>
		<g>
			
				<rect x="270.325" y="110.922" transform="matrix(-1.836970e-16 1 -1 -1.836970e-16 391.8628 -154.0943)" style="fill:#E3FBFF;" width="5.308" height="15.924"/>
			<rect x="270.324" y="110.922" style="fill:#E3FBFF;" width="5.308" height="15.924"/>
		</g>
		<g>
			
				<rect x="294.897" y="104.007" transform="matrix(-1.836970e-16 1 -1 -1.836970e-16 409.5201 -185.5812)" style="fill:#E3FBFF;" width="5.308" height="15.924"/>
			<rect x="294.897" y="104.008" style="fill:#E3FBFF;" width="5.308" height="15.924"/>
		</g>
		<g>
			
				<rect x="109.062" y="105.686" transform="matrix(-1.836970e-16 1 -1 -1.836970e-16 225.3643 1.9325)" style="fill:#E3FBFF;" width="5.308" height="15.924"/>
			<rect x="109.062" y="105.687" style="fill:#E3FBFF;" width="5.308" height="15.924"/>
		</g>
		<g>
			
				<rect x="36.808" y="344.439" transform="matrix(-1.836970e-16 1 -1 -1.836970e-16 391.863 312.9393)" style="fill:#E3FBFF;" width="5.308" height="15.924"/>
			<rect x="36.808" y="344.439" style="fill:#E3FBFF;" width="5.308" height="15.924"/>
		</g>
		<g>
			
				<rect x="85.465" y="117.621" transform="matrix(-1.836970e-16 1 -1 -1.836970e-16 213.7013 37.4641)" style="fill:#E3FBFF;" width="5.308" height="15.924"/>
			<rect x="85.465" y="117.621" style="fill:#E3FBFF;" width="5.308" height="15.924"/>
		</g>
	</g>
</g>
<g id="TEXTS">
</g>
</svg>
