<?xml version="1.0" encoding="utf-8"?>
<!-- Generator: Adobe Illustrator 27.5.0, SVG Export Plug-In . SVG Version: 6.00 Build 0)  -->
<svg version="1.1" xmlns="http://www.w3.org/2000/svg" xmlns:xlink="http://www.w3.org/1999/xlink" x="0px" y="0px"
	 viewBox="0 0 500 500" style="enable-background:new 0 0 500 500;" xml:space="preserve">
<g id="BACKGROUND">
</g>
<g id="OBJECTS">
	<g>
		<g>
			<path style="fill:#DFEDF2;" d="M134.7,428.559c-0.019,0.525-0.164,1-0.49,1.404c-0.36,0.446-0.727,0.886-1.102,1.319
				c-15.672,18.089-31.818,35.755-47.675,53.679c-0.593,0.671-1.172,1.355-1.774,2.017c-0.511,0.562-1.147,0.862-1.921,0.738
				c-1.477-0.236-2.205-1.841-1.386-3.132c0.361-0.57,0.836-1.072,1.287-1.58c6.475-7.283,12.91-14.601,19.444-21.83
				c8.792-9.729,17.498-19.533,26.085-29.443c1.267-1.462,2.553-2.907,3.838-4.353c0.593-0.667,1.322-0.973,2.215-0.712
				c0.797,0.232,1.264,0.776,1.431,1.583C134.674,428.354,134.685,428.461,134.7,428.559z"/>
			<path style="fill:#DFEDF2;" d="M143.018,440.112c0.011,0.743-0.403,1.275-0.867,1.79c-1.82,2.025-3.626,4.063-5.451,6.082
				c-8.915,9.859-17.504,20.004-26.333,29.939c-1.666,1.874-3.364,3.72-5.049,5.577c-0.144,0.159-0.292,0.318-0.459,0.452
				c-0.823,0.66-1.9,0.655-2.663-0.002c-0.776-0.669-0.945-1.707-0.394-2.626c0.389-0.649,0.939-1.173,1.448-1.726
				c4.294-4.667,8.489-9.422,12.624-14.229c7.406-8.611,14.988-17.065,22.552-25.535c0.428-0.48,0.863-0.967,1.361-1.367
				c0.641-0.514,1.395-0.546,2.125-0.179C142.648,438.656,143.007,439.288,143.018,440.112z"/>
			<path style="fill:#DFEDF2;" d="M77.811,468.28c-1.749,0.003-2.699-1.316-2.278-2.681c0.207-0.672,0.66-1.183,1.112-1.692
				c3.667-4.122,7.346-8.234,11.002-12.366c7.954-8.989,15.998-17.896,24.34-26.529c0.622-0.644,1.2-1.331,1.83-1.967
				c0.864-0.873,2.057-0.953,2.898-0.233c0.85,0.727,0.966,1.92,0.217,2.895c-0.478,0.623-1.024,1.199-1.571,1.764
				c-12.039,12.44-23.412,25.485-34.927,38.401c-0.452,0.508-0.879,1.039-1.306,1.569C78.698,467.974,78.163,468.283,77.811,468.28z
				"/>
			<path style="fill:#DFEDF2;" d="M147.718,455.104c0.01,0.39-0.235,0.863-0.593,1.278c-0.468,0.541-0.96,1.063-1.442,1.592
				c-9.654,10.581-19.341,21.133-28.72,31.961c-0.28,0.324-0.564,0.657-0.897,0.921c-0.807,0.641-1.933,0.588-2.66-0.083
				c-0.696-0.643-0.859-1.706-0.347-2.555c0.219-0.365,0.514-0.686,0.79-1.014c4.668-5.528,9.573-10.845,14.424-16.211
				c5.139-5.684,10.209-11.432,15.46-17.015c0.268-0.285,0.536-0.59,0.86-0.8c0.686-0.445,1.422-0.463,2.132-0.042
				C147.396,453.533,147.725,454.139,147.718,455.104z"/>
			<path style="fill:#DFEDF2;" d="M82.22,441.94c-0.764-0.043-1.389-0.345-1.782-1.021c-0.416-0.714-0.409-1.461,0.049-2.136
				c0.359-0.53,0.807-1.004,1.245-1.476c4.172-4.488,8.364-8.957,12.524-13.456c3.844-4.157,7.657-8.342,11.48-12.518
				c0.363-0.396,0.682-0.831,1.044-1.228c0.807-0.884,1.903-1.031,2.798-0.393c0.928,0.662,1.128,1.8,0.48,2.861
				c-0.432,0.707-1.016,1.296-1.574,1.901c-7.547,8.2-15.05,16.44-22.697,24.548c-0.664,0.704-1.309,1.425-1.964,2.138
				C83.392,441.629,82.861,441.892,82.22,441.94z"/>
		</g>
		<g>
			<path style="fill:#C0E3F2;" d="M310.763,500c0.531-4.635,1.287-9.232,2.255-13.796c1.758-8.285,4.022-16.427,7.374-24.211
				c4.766-11.069,11.268-21.037,19.41-29.946c5.932-6.491,12.616-12.092,19.711-17.248c9.033-6.564,18.353-12.699,27.729-18.756
				c5.773-3.73,11.467-7.573,16.869-11.836c11.592-9.148,20.342-20.523,26.76-33.785c5.378-11.114,8.864-22.777,10.664-34.974
				c1.133-7.683,1.506-15.412,1.564-23.165c0.059-7.872,0.115-15.746,0.426-23.613c0.861-21.78,4.56-43.014,12.142-63.52
				c4.487-12.136,9.736-23.91,16.427-34.992c7.363-12.196,16.247-23.176,26.906-32.676c0.341-0.304,0.668-0.623,1.002-0.935
				c0,121.124,0,242.247,0,363.453C436.921,500,373.842,500,310.763,500z"/>
			<path style="fill:#C0E3F2;" d="M0.137,242.911c-0.197-0.51-0.123-0.973-0.123-1.426C0.01,161.553,0.01,81.62,0.011,1.688
				c0-1.858-0.121-1.683,1.684-1.683c20.661-0.003,41.323-0.003,61.984,0c1.833,0,1.574-0.137,1.598,1.617
				c0.214,15.578,0.296,31.156-0.056,46.732c-0.251,11.118-0.647,22.232-1.086,33.344c-0.212,5.369-0.348,10.74-0.584,16.108
				c-0.418,9.486-0.757,18.979-1.564,28.442c-1.14,13.372-3.035,26.634-6.212,39.689c-2.416,9.932-5.579,19.618-9.963,28.867
				c-4.099,8.648-8.996,16.823-15.162,24.17c-6.065,7.227-13.106,13.376-21.061,18.463c-2.666,1.705-5.347,3.386-8.126,4.904
				C1.07,242.557,0.71,242.859,0.137,242.911z"/>
		</g>
		<g>
			<path style="fill:#DFEDF2;" d="M271.063,13.248c0.007,0.45-0.225,0.957-0.601,1.401c-0.56,0.662-1.12,1.325-1.7,1.968
				c-12.83,14.218-25.671,28.426-38.493,42.651c-7.32,8.122-14.862,16.037-22.302,24.048c-0.255,0.275-0.522,0.553-0.829,0.763
				c-0.818,0.557-1.891,0.465-2.615-0.182c-0.736-0.659-0.925-1.674-0.477-2.578c0.221-0.446,0.568-0.796,0.903-1.153
				c4.379-4.679,8.789-9.33,13.135-14.04c11.251-12.189,22.311-24.552,33.407-36.882c5.169-5.745,10.339-11.489,15.501-17.24
				c0.671-0.748,1.416-1.244,2.474-0.969C270.445,11.289,271.066,12.095,271.063,13.248z"/>
			<path style="fill:#DFEDF2;" d="M284.804,23.51c0.015,0.65-0.332,1.183-0.771,1.666c-0.988,1.088-1.99,2.164-2.983,3.248
				c-7.233,7.894-14.043,16.155-21.042,24.252c-7.443,8.611-14.987,17.134-22.486,25.696c-0.919,1.049-1.826,2.108-2.747,3.155
				c-0.476,0.541-1.003,1.025-1.676,1.316c-1.014,0.438-2.114,0.129-2.698-0.749c-0.567-0.853-0.491-1.942,0.264-2.698
				c3.279-3.285,6.165-6.917,9.214-10.404c6.027-6.895,12.187-13.675,18.12-20.652c6.396-7.523,12.741-15.089,19.405-22.38
				c1.144-1.252,2.292-2.5,3.439-3.749c0.256-0.279,0.529-0.533,0.875-0.703C283.176,20.789,284.836,21.842,284.804,23.51z"/>
			<path style="fill:#DFEDF2;" d="M256.759,82.356c-1.695,0.045-2.763-1.535-2.16-2.991c0.175-0.424,0.463-0.775,0.746-1.128
				c11.105-13.907,22.202-27.82,34.016-41.141c1.125-1.269,2.197-2.586,3.297-3.877c0.22-0.258,0.437-0.525,0.695-0.74
				c0.829-0.691,1.888-0.709,2.707-0.074c0.839,0.651,1.086,1.773,0.549,2.742c-0.235,0.424-0.549,0.812-0.867,1.182
				c-2.948,3.432-5.892,6.868-8.862,10.281c-7.949,9.132-15.501,18.59-23.068,28.035c-1.745,2.177-3.496,4.349-5.23,6.535
				C258.068,81.825,257.49,82.325,256.759,82.356z"/>
			<path style="fill:#DFEDF2;" d="M275.823,83.369c-1.897,0.024-2.933-1.634-2.198-3.113c0.215-0.433,0.543-0.813,0.841-1.2
				c3.848-4.988,7.915-9.797,11.993-14.596c5.397-6.352,10.586-12.875,15.884-19.308c1.582-1.921,3.167-3.84,4.756-5.756
				c0.192-0.231,0.392-0.465,0.626-0.649c0.804-0.631,1.823-0.631,2.619-0.028c0.779,0.59,1.055,1.607,0.684,2.533
				c-0.185,0.462-0.498,0.843-0.811,1.219c-8.129,9.769-16.017,19.736-24.295,29.381c-2.85,3.32-5.571,6.746-8.259,10.197
				C277.114,82.754,276.527,83.373,275.823,83.369z"/>
			<path style="fill:#DFEDF2;" d="M321.905,48.757c0.027,0.735-0.34,1.299-0.783,1.827c-1.768,2.106-3.532,4.216-5.308,6.316
				c-7.104,8.399-14.428,16.61-21.469,25.063c-0.193,0.231-0.384,0.468-0.607,0.668c-0.839,0.754-1.939,0.806-2.793,0.151
				c-0.87-0.667-1.098-1.839-0.503-2.838c0.268-0.449,0.621-0.85,0.957-1.255c5.99-7.221,12.255-14.205,18.31-21.37
				c2.626-3.108,5.259-6.209,7.887-9.315c0.292-0.345,0.562-0.71,0.946-0.964c0.724-0.479,1.48-0.539,2.244-0.122
				C321.505,47.311,321.859,47.946,321.905,48.757z"/>
			<path style="fill:#DFEDF2;" d="M305.532,82.508c0.05-0.832,0.46-1.504,0.97-2.123c1.891-2.299,3.748-4.628,5.692-6.881
				c5.467-6.334,10.822-12.761,16.067-19.28c0.306-0.38,0.629-0.759,1.002-1.069c0.853-0.707,2.001-0.679,2.795,0.017
				c0.796,0.697,0.963,1.83,0.387,2.771c-0.176,0.287-0.41,0.539-0.621,0.804c-6.53,8.244-13.457,16.157-20.194,24.228
				c-0.771,0.924-1.547,1.843-2.193,2.871c-0.561,0.893-1.531,1.172-2.469,0.846C306.019,84.362,305.472,83.53,305.532,82.508z"/>
			<path style="fill:#DFEDF2;" d="M341.834,65.31c0.029,0.531-0.354,1.087-0.792,1.618c-2.108,2.559-4.221,5.114-6.326,7.676
				c-2.44,2.969-4.873,5.944-7.312,8.914c-0.239,0.291-0.475,0.59-0.753,0.841c-0.803,0.727-1.993,0.774-2.799,0.139
				c-0.873-0.688-1.078-1.836-0.494-2.843c0.131-0.227,0.296-0.437,0.463-0.64c4.592-5.589,9.186-11.177,13.781-16.764
				c0.263-0.32,0.521-0.647,0.875-0.876c0.727-0.472,1.488-0.527,2.246-0.113C341.44,63.651,341.809,64.281,341.834,65.31z"/>
		</g>
		<g>
			<path style="fill:#DFEDF2;" d="M142.149,39.389c0.04,0.683-0.286,1.216-0.715,1.728c-12.091,14.415-24.511,28.569-37.045,42.637
				C91.182,98.577,77.807,113.263,64.617,128.1c-0.753,0.847-1.547,1.662-2.349,2.468c-0.57,0.573-1.283,0.892-2.132,0.784
				c-1.671-0.212-2.576-1.913-1.778-3.331c0.136-0.242,0.319-0.465,0.508-0.674c13.955-15.466,27.942-30.906,41.759-46.486
				c8.091-9.123,16.258-18.186,24.199-27.428c3.983-4.636,7.872-9.346,11.81-14.018c0.52-0.617,1.003-1.276,1.687-1.747
				c0.812-0.559,1.694-0.657,2.587-0.207C141.705,37.864,142.119,38.524,142.149,39.389z"/>
			<path style="fill:#DFEDF2;" d="M142.633,12.365c0.014,1.042-0.501,1.722-1.034,2.386c-1.746,2.175-3.499,4.344-5.25,6.515
				c-9.851,12.208-20.082,24.123-30.433,35.948c-7.709,8.806-15.222,17.768-22.879,26.615c-4.08,4.714-8.279,9.336-12.43,13.994
				c-0.322,0.361-0.657,0.728-1.05,1.012c-0.922,0.667-2.155,0.601-2.991-0.106c-0.829-0.702-1.032-1.868-0.469-2.823
				c0.162-0.274,0.372-0.526,0.589-0.766c12.687-14.05,24.812-28.543,37.232-42.802c11.386-13.072,22.577-26.285,33.384-39.794
				c0.404-0.505,0.763-1.045,1.2-1.521c0.696-0.759,1.668-0.967,2.608-0.625C142.056,10.743,142.632,11.541,142.633,12.365z"/>
			<path style="fill:#DFEDF2;" d="M40.907,181.715c-1.85,0.038-2.99-1.553-2.33-3.135c0.358-0.858,0.98-1.566,1.573-2.279
				c3.385-4.075,6.71-8.198,10.19-12.199c9.831-11.303,19.403-22.806,29.141-34.18c6.609-7.719,12.938-15.639,19.126-23.664
				c0.344-0.447,0.692-0.9,1.099-1.293c1.007-0.971,2.382-1.054,3.367-0.244c0.987,0.811,1.108,2.101,0.246,3.21
				c-6.341,8.163-12.73,16.29-19.474,24.16c-7.136,8.328-14.154,16.748-21.291,25.075c-5.846,6.822-11.786,13.571-17.448,20.535
				c-0.764,0.94-1.499,1.903-2.234,2.864C42.356,181.24,41.729,181.716,40.907,181.715z"/>
			<path style="fill:#DFEDF2;" d="M55.577,191.989c-1.915-0.011-3.022-1.498-2.495-2.978c0.219-0.616,0.663-1.096,1.072-1.594
				c5.616-6.843,11.391-13.565,17.151-20.298c10.943-12.791,21.433-25.92,31.983-39.004c0.56-0.694,1.104-1.399,1.968-1.785
				c1.059-0.474,2.235-0.232,2.933,0.601c0.691,0.825,0.708,2.016-0.041,2.855c-2.535,2.842-4.855,5.845-7.221,8.811
				c-12.142,15.225-24.723,30.116-37.39,44.942c-2.05,2.399-4.043,4.842-6.049,7.275C56.922,191.502,56.275,192.011,55.577,191.989z
				"/>
			<path style="fill:#DFEDF2;" d="M121.837,13.382c-0.023,0.61-0.434,1.194-0.93,1.748c-1.923,2.14-3.849,4.278-5.757,6.431
				c-8.355,9.432-16.442,19.071-24.583,28.669c-6.859,8.086-13.827,16.086-20.854,24.04c-0.267,0.302-0.546,0.609-0.874,0.844
				c-0.86,0.619-2.082,0.574-2.898-0.065c-0.833-0.652-1.094-1.735-0.648-2.694c0.258-0.554,0.694-0.987,1.095-1.441
				c7.716-8.75,15.346-17.567,22.885-26.457c6.649-7.839,13.338-15.648,20.049-23.438c2.589-3.005,5.289-5.924,7.937-8.883
				c0.381-0.425,0.781-0.818,1.35-1.027C120.16,10.54,121.856,11.649,121.837,13.382z"/>
			<path style="fill:#DFEDF2;" d="M104.876,158.608c0.008,0.636-0.312,1.14-0.681,1.631c-3.857,5.127-7.742,10.234-11.819,15.208
				c-6.971,8.506-13.9,17.044-20.848,25.566c-0.536,0.658-1.072,1.318-1.642,1.949c-0.966,1.07-2.404,1.253-3.44,0.468
				c-1.013-0.767-1.183-2.053-0.385-3.203c0.344-0.495,0.757-0.946,1.14-1.416c10.695-13.134,21.632-26.091,31.833-39.586
				c0.583-0.771,1.079-1.613,1.814-2.268c0.771-0.687,1.684-0.867,2.655-0.439C104.417,156.923,104.865,157.647,104.876,158.608z"/>
			<path style="fill:#DFEDF2;" d="M75.141,219.015c-1.631-0.005-2.761-1.451-2.341-2.888c0.197-0.673,0.666-1.183,1.098-1.715
				c3.77-4.649,7.812-9.09,11.622-13.708c5.766-6.989,11.686-13.863,17.31-20.958c0.175-0.221,0.353-0.447,0.565-0.633
				c0.844-0.742,2.086-0.825,2.992-0.22c0.915,0.612,1.255,1.735,0.813,2.753c-0.273,0.631-0.734,1.152-1.16,1.689
				c-3.565,4.498-7.36,8.824-10.974,13.286c-5.6,6.914-11.554,13.556-17.212,20.425c-0.309,0.375-0.606,0.758-0.929,1.121
				C76.442,218.71,75.806,218.972,75.141,219.015z"/>
			<path style="fill:#DFEDF2;" d="M104.532,206.491c-0.031,0.571-0.23,1.083-0.599,1.534c-0.435,0.531-0.867,1.064-1.31,1.589
				c-4.587,5.433-9.175,10.865-13.765,16.296c-0.182,0.216-0.361,0.439-0.573,0.626c-0.906,0.794-2.147,0.863-3.08,0.184
				c-0.923-0.671-1.204-1.849-0.645-2.88c0.208-0.383,0.492-0.734,0.777-1.072c4.842-5.746,9.692-11.485,14.533-17.232
				c0.623-0.739,1.299-1.332,2.386-1.283C103.525,204.309,104.535,205.291,104.532,206.491z"/>
		</g>
	</g>
	<g>
		<path style="fill:#79C0E8;" d="M97.412,381.555c-1.191-0.752-2.378-1.51-3.574-2.254c-3.501-2.176-7.017-4.327-10.499-6.533
			c-0.735-0.466-1.279-0.573-2.12-0.132c-2.347,1.232-5.221,0.138-6.298-2.263c-1.099-2.45,0.092-5.331,2.602-6.29
			c2.473-0.946,5.202,0.326,6.096,2.826c0.187,0.522,0.278,1.06,0.224,1.595c-0.064,0.637,0.217,0.958,0.736,1.274
			c3.126,1.911,6.215,3.883,9.344,5.787c2.881,1.753,5.678,3.64,8.623,5.289c0.785,0.439,1.58,0.631,2.49,0.638
			c7.117,0.055,14.106,1.008,20.924,3.101c0.238,0.073,0.485,0.13,0.709,0.233c0.84,0.386,1.24,1.14,1.03,1.905
			c-0.227,0.828-1.025,1.3-1.955,1.137c-0.285-0.05-0.563-0.149-0.842-0.233c-6.015-1.822-12.177-2.704-18.447-2.909
			c-0.638-0.021-1.198,0.035-1.726,0.503c-5.647,5.001-11.124,10.174-16.221,15.742c-0.505,0.551-0.62,1.024-0.434,1.763
			c0.643,2.565-0.916,5.079-3.416,5.66c-2.493,0.579-4.992-0.909-5.622-3.35c-0.654-2.532,0.795-5.037,3.326-5.733
			c0.82-0.226,1.651-0.233,2.463,0.028c0.449,0.144,0.773,0.08,1.103-0.289c4.25-4.758,8.868-9.147,13.567-13.455
			c0.149-0.137,0.28-0.295,0.471-0.497c-0.374-0.289-0.749-0.147-1.089-0.13c-7.755,0.374-15.241,2.053-22.543,4.635
			c-0.667,0.236-1.33,0.489-2.009,0.68c-0.733,0.207-1.138,0.6-1.417,1.365c-0.873,2.39-3.418,3.578-5.794,2.777
			c-1.929-0.651-2.981-2.057-3.23-4.053c-0.217-1.743,0.776-3.621,2.403-4.472c1.735-0.908,3.448-0.799,5.067,0.331
			c0.237,0.165,0.491,0.351,0.64,0.588c0.395,0.628,0.856,0.594,1.489,0.365c3.091-1.12,6.216-2.142,9.399-2.969
			c4.561-1.185,9.177-2.061,13.895-2.313c0.195-0.01,0.388-0.053,0.582-0.081C97.377,381.733,97.395,381.644,97.412,381.555z"/>
		<g>
			<path style="fill:#79C0E8;" d="M41.276,314.632c2.233,0.306,4.999,0.66,7.757,1.068c4.775,0.706,9.565,1.316,14.306,2.241
				c6.5,1.268,12.952,2.712,19.108,5.232c6.415,2.626,12.53,5.798,18.152,9.891c6.789,4.942,12.254,11.104,16.878,18.065
				c2.143,3.226,4.166,6.525,6.15,9.85c0.53,0.889,0.576,1.443,0.113,1.938c-0.568,0.608-1.245,0.582-1.951,0.274
				c-3.154-1.375-6.479-2.131-9.86-2.626c-2.056-0.301-4.137-0.445-6.209-0.632c-9.689-0.876-19.227-2.539-28.432-5.755
				c-7.737-2.703-14.503-6.955-20.31-12.804c-5.729-5.771-10.51-12.247-14.91-19.039c-0.769-1.188-1.509-2.395-2.249-3.601
				c-0.304-0.496-0.604-0.999-0.854-1.524C38.189,315.581,38.934,314.498,41.276,314.632z"/>
			<path style="fill:#FFFFFF;" d="M39.482,314.342c0.348,0.008,0.575,0.188,0.825,0.342c12.511,7.71,25.011,15.431,38.041,22.265
				c9.363,4.911,18.764,9.752,28.092,14.73c5.512,2.941,10.965,5.979,16.257,9.303c0.458,0.288,0.924,0.568,1.359,0.888
				c0.4,0.294,0.639,0.693,0.338,1.183c-0.296,0.483-0.742,0.47-1.204,0.253c-0.15-0.07-0.291-0.162-0.431-0.252
				c-9.565-6.093-19.668-11.213-29.716-16.434c-10.269-5.336-20.547-10.664-30.568-16.453c-7.714-4.456-15.249-9.221-22.86-13.853
				c-0.282-0.172-0.561-0.366-0.792-0.599c-0.251-0.253-0.313-0.579-0.129-0.918C38.872,314.467,39.167,314.351,39.482,314.342z"/>
		</g>
		<g>
			<path style="fill:#79C0E8;" d="M107.749,300.053c-0.412-0.668-0.807-1.347-1.239-2.002c-2.772-4.205-5.291-8.584-8.57-12.44
				c-3.133-3.685-6.465-7.18-9.971-10.512c-0.642-0.61-1.332-0.858-2.212-0.948c-3.894-0.397-7.732-1.136-11.577-1.876
				c-6.135-1.182-11.812-3.444-17.122-6.67c-5.696-3.459-10.211-8.119-13.722-13.765c-2.518-4.048-4.576-8.311-5.956-12.886
				c-0.618-2.049-0.162-2.668,1.985-2.709c8.442-0.161,16.671,1.186,24.761,3.506c6.84,1.961,12.442,5.876,17.307,10.962
				c4.813,5.033,7.533,11.009,8.175,17.942c0.119,1.285,0.312,2.563,0.45,3.846c0.056,0.521,0.257,0.93,0.636,1.307
				c4.939,4.911,9.585,10.081,13.722,15.694c0.092,0.125,0.155,0.304,0.383,0.308c0.108-0.433-0.138-0.796-0.254-1.177
				c-1.112-3.667-2.114-7.362-2.752-11.144c-0.732-4.337-0.729-8.701-0.527-13.082c0.333-7.239,2.465-13.895,6.298-20.023
				c0.53-0.847,1.061-1.703,1.854-2.34c0.906-0.727,1.639-0.594,2.089,0.451c1.731,4.017,3.334,8.083,4.28,12.371
				c1.253,5.681,0.948,11.334-0.343,16.968c-1.306,5.705-3.298,11.171-5.719,16.487c-0.605,1.328-1.333,2.59-2.163,3.794
				c-0.672,0.975-0.726,0.705,0.023,1.818c4.314,6.405,7.97,13.181,11.295,20.137c1.633,3.416,3.099,6.913,4.668,10.36
				c0.658,1.445,0.988,3.002,1.612,4.458c0.272,0.636,0.078,1.18-0.431,1.545c-0.479,0.344-1.097,0.315-1.63-0.061
				c-0.399-0.282-0.587-0.695-0.728-1.135c-2.303-7.18-5.972-13.723-9.444-20.361c-0.306-0.585-0.696-0.718-1.297-0.671
				c-3.408,0.269-6.825,0.324-10.24,0.257c-5.51-0.108-10.976-0.608-16.273-2.254c-8.059-2.505-14.923-6.895-20.6-13.14
				c-0.168-0.185-0.333-0.374-0.48-0.575c-0.873-1.201-0.564-2.055,0.882-2.32c1.023-0.187,2.059-0.309,3.094-0.419
				c2.611-0.278,5.232-0.448,7.855-0.467c11.243-0.08,21.411,3.156,30.394,9.98c0.427,0.324,0.87,0.629,1.305,0.942
				C107.627,300.156,107.688,300.105,107.749,300.053z"/>
			<g>
				<path style="fill:#FFFFFF;" d="M90.103,274.572c-0.005,0.327-0.52,0.724-1.029,0.527c-0.26-0.101-0.504-0.298-0.698-0.505
					c-6.965-7.439-15.127-13.412-23.477-19.151c-8.51-5.848-17.081-11.606-26.098-16.66c-0.47-0.264-0.972-0.471-1.442-0.735
					c-0.51-0.286-0.693-0.819-0.444-1.261c0.273-0.484,0.708-0.559,1.182-0.354c0.38,0.165,0.737,0.384,1.1,0.587
					c9.239,5.171,18.022,11.059,26.741,17.046c5.426,3.726,10.766,7.568,15.781,11.84c2.696,2.297,5.273,4.724,7.707,7.3
					C89.737,273.536,90.108,273.836,90.103,274.572z"/>
				<path style="fill:#FFFFFF;" d="M111.445,249.298c-0.289,5.995-0.882,11.962-1.294,17.942c-0.317,4.609-0.645,9.218-1.113,13.815
					c-0.346,3.395-0.657,6.794-1.279,10.154c-0.09,0.489-0.19,0.984-0.358,1.45c-0.157,0.435-0.522,0.654-0.998,0.538
					c-0.49-0.12-0.664-0.501-0.595-0.956c0.156-1.028,0.367-2.047,0.527-3.074c0.695-4.486,1.092-9.006,1.455-13.528
					c0.493-6.141,0.915-12.286,1.395-18.428c0.36-4.61,0.468-9.229,0.613-13.848c0.012-0.373,0.004-0.756,0.085-1.117
					c0.108-0.475,0.373-0.866,0.945-0.801c0.57,0.065,0.738,0.478,0.723,0.987c-0.029,1.04-0.086,2.08-0.101,3.121
					C111.431,246.801,111.445,248.049,111.445,249.298z"/>
				<path style="fill:#FFFFFF;" d="M64.358,290.446c0.376,0.105,0.86,0.226,1.335,0.378c9.393,2.994,18.947,5.437,28.365,8.345
					c5.363,1.656,10.802,3.068,16.082,4.993c0.35,0.128,0.708,0.253,1.03,0.436c0.368,0.208,0.49,0.565,0.35,0.968
					c-0.142,0.408-0.481,0.571-0.885,0.543c-0.243-0.017-0.485-0.113-0.719-0.197c-6.663-2.381-13.506-4.178-20.266-6.244
					c-8.352-2.552-16.818-4.716-25.133-7.393c-0.237-0.076-0.486-0.125-0.712-0.226c-0.468-0.209-0.744-0.552-0.565-1.09
					C63.4,290.478,63.797,290.388,64.358,290.446z"/>
			</g>
		</g>
		<path style="fill:#79C0E8;" d="M337.648,183.623c1.732,0.049,3.465,0.115,5.198,0.144c7.847,0.132,15.626,0.929,23.346,2.325
			c2.952,0.534,5.86,1.261,8.743,2.077c0.752,0.213,1.295,0.151,1.956-0.287c1.666-1.104,3.692-0.984,5.269,0.182
			c1.544,1.142,2.231,3.128,1.731,5.006c-0.479,1.799-2.002,3.114-3.923,3.389c-2.637,0.377-5.073-1.568-5.249-4.297
			c-0.06-0.933,0.029-0.975-1.112-1.294c-5.992-1.674-12.103-2.684-18.284-3.332c-6.763-0.709-13.538-1.036-20.336-0.783
			c-1.415,0.053-2.826,0.18-4.24,0.262c-0.552,0.032-1.058,0.178-1.542,0.446c-6.752,3.725-13.369,7.661-19.477,12.397
			c-0.493,0.383-0.963,0.796-1.442,1.197c-0.192,0.16-0.367,0.344-0.573,0.482c-0.685,0.458-1.423,0.411-1.94-0.106
			c-0.505-0.504-0.549-1.259-0.105-1.947c0.275-0.426,0.664-0.739,1.056-1.053c5.834-4.682,12.209-8.543,18.671-12.269
			c0.751-0.433,1.582-0.745,2.124-1.489c0.203-0.279,0.556-0.382,0.884-0.424c0.85-0.107,1.568-0.525,2.31-0.899
			c11.291-5.689,23.122-9.816,35.531-12.265c0.694-0.137,1.384-0.36,2.083-0.398c1.307-0.071,2.185-0.698,3.021-1.682
			c5.316-6.257,10.469-12.639,15.316-19.268c0.44-0.602,0.43-0.985,0.022-1.614c-1.073-1.657-1.046-3.409,0.036-5.057
			c1.021-1.556,2.537-2.282,4.391-2.076c1.901,0.211,3.24,1.26,3.905,3.067c1.069,2.906-0.922,6.025-4.051,6.224
			c-0.871,0.055-1.342,0.379-1.807,1.022c-4.374,6.044-9.008,11.883-13.83,17.574c-0.154,0.181-0.393,0.323-0.367,0.703
			c1.275,0.102,2.527-0.197,3.781-0.321c6.812-0.671,13.634-0.809,20.47-0.528c4.58,0.188,9.15,0.513,13.698,1.081
			c0.796,0.099,1.057-0.247,1.369-0.869c0.929-1.85,2.911-2.835,4.878-2.521c2.035,0.324,3.604,1.926,3.922,4.002
			c0.293,1.915-0.719,3.874-2.476,4.79c-2.094,1.092-4.651,0.514-5.971-1.484c-0.456-0.689-0.958-0.882-1.703-0.967
			c-10.082-1.144-20.185-1.562-30.314-0.86c-11.695,0.811-23.068,3.211-34.133,7.086c-3.302,1.156-6.553,2.437-9.748,3.859
			c-0.376,0.168-0.748,0.346-1.122,0.52C337.625,183.453,337.636,183.538,337.648,183.623z"/>
		<g>
			<path style="fill:#79C0E8;" d="M340.879,197.594c10.217,0.094,19.816,2.688,28.927,7.214c4.376,2.174,8.469,4.804,12.283,7.862
				c0.454,0.364,0.92,0.723,1.324,1.139c0.9,0.925,0.736,2.204-0.394,2.834c-0.723,0.403-1.511,0.694-2.279,1.012
				c-5.628,2.33-11.397,4.187-17.423,5.186c-4.377,0.726-8.765,0.9-13.19,0.496c-14.247-1.3-27.555-5.726-40.318-11.998
				c-0.784-0.385-1.571-0.766-2.351-1.16c-0.482-0.244-0.968-0.488-1.427-0.772c-0.712-0.441-1.47-0.888-1.408-1.889
				c0.063-1.015,0.773-1.504,1.627-1.852c0.848-0.345,1.688-0.707,2.537-1.05c5.558-2.246,11.152-4.387,17.069-5.519
				C330.816,198.149,335.82,197.636,340.879,197.594z"/>
			<path style="fill:#FFFFFF;" d="M310.12,206.603c8.539,0.442,17.681,1.473,26.822,2.538c6.037,0.703,12.09,1.271,18.139,1.865
				c7.54,0.741,15.101,1.284,22.618,2.252c1.692,0.218,3.379,0.485,5.066,0.74c0.328,0.049,0.656,0.126,0.972,0.226
				c0.501,0.157,0.791,0.504,0.654,1.038c-0.137,0.536-0.571,0.68-1.078,0.602c-0.987-0.152-1.97-0.328-2.958-0.477
				c-4.2-0.632-8.42-1.083-12.652-1.456c-4.769-0.42-9.531-0.907-14.296-1.371c-3.646-0.355-7.293-0.701-10.936-1.087
				c-4.057-0.43-8.108-0.914-12.164-1.348c-3.725-0.399-7.453-0.766-11.181-1.142c-4.476-0.452-8.972-0.611-13.459-0.913
				c-0.37-0.025-0.745,0.043-1.118,0.04c-0.457-0.005-0.824-0.176-0.903-0.679c-0.074-0.479,0.166-0.797,0.591-0.984
				c0.396-0.174,0.818-0.135,1.233-0.113C306.803,206.406,308.133,206.487,310.12,206.603z"/>
		</g>
		<g>
			<path style="fill:#79C0E8;" d="M351.235,119.84c0.608,0.114,0.969-0.135,1.352-0.259c9.114-2.955,18.324-5.538,27.802-7.054
				c4.779-0.764,9.581-1.232,14.432-0.86c2.098,0.161,4.111,0.638,5.997,1.585c0.481,0.242,0.956,0.515,1.387,0.837
				c1.733,1.293,2.078,3.065,0.987,4.951c-0.687,1.188-1.701,2.037-2.859,2.731c-2.276,1.365-4.773,2.164-7.329,2.775
				c-4.429,1.058-8.928,1.587-13.484,1.643c-5.585,0.068-11.167-0.052-16.732-0.504c-4.607-0.375-9.201-0.91-13.794-1.435
				c-0.935-0.107-1.501,0.106-2.099,0.868c-6.822,8.704-12.879,17.917-18.439,27.465c-0.121,0.208-0.293,0.397-0.285,0.75
				c0.497-0.071,0.85-0.365,1.226-0.576c6.402-3.593,12.978-6.795,19.996-9.03c4.059-1.293,8.185-2.265,12.433-2.626
				c3.008-0.256,5.995-0.101,8.891,0.873c0.951,0.32,1.868,0.715,2.648,1.368c1.752,1.467,2.054,3.45,0.765,5.336
				c-0.959,1.403-2.266,2.433-3.753,3.232c-1.766,0.948-3.624,1.671-5.534,2.278c-5.181,1.646-10.508,2.544-15.898,3.12
				c-5.639,0.603-11.293,0.797-16.962,0.695c-1.957-0.035-3.917,0.037-5.859-0.26c-0.444-0.068-0.71,0.068-0.91,0.45
				c-0.367,0.701-0.763,1.386-1.129,2.087c-3.445,6.608-6.918,13.201-10.162,19.911c-0.925,1.913-1.764,3.861-2.504,5.853
				c-0.116,0.312-0.218,0.634-0.375,0.924c-0.366,0.677-1.048,0.96-1.673,0.728c-0.642-0.239-1.016-0.871-0.882-1.61
				c0.074-0.405,0.242-0.794,0.387-1.184c1.795-4.81,4.214-9.328,6.522-13.897c0.901-1.784,1.792-3.574,2.757-5.323
				c0.375-0.679,0.325-1.172-0.105-1.798c-3.117-4.538-5.897-9.277-8.351-14.206c-3.02-6.065-5.358-12.371-6.696-19.027
				c-0.32-1.594-0.501-3.212-0.571-4.834c-0.079-1.815,0.179-3.582,1.156-5.165c1.412-2.289,3.4-2.603,5.435-0.887
				c0.871,0.734,1.53,1.639,2.154,2.58c1.931,2.911,3.19,6.115,4.175,9.445c2.144,7.245,3.427,14.666,4.553,22.119
				c0.286,1.892,0.469,3.8,0.702,5.701c0.023,0.19,0.071,0.377,0.11,0.58c0.467-0.144,0.521-0.507,0.669-0.778
				c4.804-8.82,10.039-17.376,15.691-25.678c0.572-0.84,0.559-0.832-0.063-1.698c-8.478-11.808-14.193-24.729-15.801-39.297
				c-0.266-2.407-0.346-4.818,0.028-7.226c0.129-0.83,0.352-1.632,0.724-2.381c1.003-2.019,3.16-2.586,5.061-1.352
				c0.676,0.439,1.186,1.044,1.665,1.676c0.91,1.202,1.61,2.523,2.207,3.906c1.859,4.309,2.856,8.86,3.843,13.421
				c1.233,5.704,1.972,11.484,2.819,17.249c0.575,3.911,1.325,7.798,1.69,11.74c0.016,0.169,0.052,0.327,0.238,0.411
				c0.368-0.15,0.518-0.516,0.734-0.808c4.777-6.473,9.796-12.748,15.245-18.671c0.354-0.385,0.556-0.778,0.585-1.32
				c0.321-6.004,1.323-11.917,2.499-17.8c1.519-7.602,3.529-15.075,6.116-22.388c1.685-4.762,3.726-9.358,6.432-13.638
				c1.521-2.405,3.251-4.638,5.421-6.501c0.889-0.763,1.843-1.433,2.957-1.833c1.953-0.702,3.667-0.042,4.643,1.786
				c0.522,0.978,0.685,2.044,0.727,3.135c0.088,2.316-0.274,4.56-1.012,6.756c-2.326,6.926-5.403,13.522-8.75,20.001
				c-4.242,8.211-8.395,16.469-13.106,24.428c-0.095,0.161-0.261,0.319-0.171,0.568c0.388-0.115,0.592-0.445,0.847-0.696
				c6.843-6.738,14.097-12.976,22.158-18.233c0.389-0.254,0.684-0.566,0.958-0.951c7.442-10.433,16.424-19.243,27.472-25.836
				c3.837-2.29,7.885-4.14,12.222-5.301c2.026-0.542,4.077-0.824,6.18-0.617c0.625,0.062,1.233,0.166,1.836,0.348
				c4.029,1.222,5.859,4.964,4.329,8.887c-0.631,1.617-1.65,2.983-2.836,4.227c-2.319,2.433-5.058,4.324-7.895,6.087
				c-6.303,3.915-13.134,6.641-20.148,8.961c-5.263,1.741-10.63,3.074-16.07,4.122c-0.834,0.161-1.57,0.461-2.29,0.917
				c-14.198,8.988-26.022,20.594-36.816,33.339C351.596,119.341,351.456,119.546,351.235,119.84z"/>
			<g>
				<path style="fill:#FFFFFF;" d="M356.138,108.401c0.129-0.537,0.267-1.146,0.421-1.75c2.482-9.747,5.947-19.146,9.969-28.354
					c3.683-8.432,7.771-16.674,11.596-25.039c0.796-1.741,1.641-3.459,2.47-5.185c0.144-0.299,0.303-0.596,0.496-0.864
					c0.28-0.39,0.675-0.487,1.1-0.261c0.386,0.205,0.485,0.576,0.358,0.966c-0.115,0.353-0.304,0.681-0.462,1.02
					c-5.508,11.85-11.356,23.545-16.335,35.636c-3.109,7.552-5.748,15.266-7.68,23.211c-0.069,0.282-0.162,0.565-0.182,0.852
					c-0.039,0.565-0.224,0.994-0.863,1.001C356.516,109.639,356.123,109.098,356.138,108.401z"/>
				<path style="fill:#FFFFFF;" d="M437.495,55.231c-0.021,0.512-0.431,0.734-0.837,0.955c-1.715,0.938-3.454,1.835-5.144,2.817
					c-6.655,3.868-13.554,7.296-20.194,11.191c-6.139,3.601-12.092,7.501-18.123,11.275c-1.517,0.949-3.04,1.887-4.575,2.806
					c-0.734,0.439-1.258,0.387-1.545-0.076c-0.289-0.467-0.104-0.924,0.657-1.385c9.04-5.471,17.762-11.462,27.027-16.567
					c6.85-3.774,13.707-7.535,20.563-11.298c0.363-0.199,0.735-0.408,1.129-0.52C436.986,54.279,437.489,54.684,437.495,55.231z"/>
				<path style="fill:#FFFFFF;" d="M348.973,123.739c-0.125-0.007-0.251-0.005-0.374-0.022c-0.637-0.088-1.039-0.454-0.965-0.923
					c0.085-0.533,0.459-0.764,0.973-0.784c0.915-0.035,1.832-0.044,2.746-0.095c6.024-0.335,12.054-0.582,18.059-1.21
					c6.624-0.693,13.191-1.769,19.745-2.936c4.463-0.795,8.957-1.406,13.401-2.313c0.122-0.025,0.245-0.057,0.368-0.061
					c0.471-0.014,0.82,0.176,0.924,0.657c0.104,0.485-0.15,0.818-0.58,0.974c-0.388,0.141-0.802,0.22-1.21,0.29
					c-9.509,1.635-18.997,3.404-28.568,4.662c-4.457,0.586-8.936,0.947-13.426,1.174c-3.449,0.174-6.891,0.473-10.346,0.541
					C349.472,123.699,349.223,123.724,348.973,123.739z"/>
				<path style="fill:#FFFFFF;" d="M324.022,81.157c0.425,0.055,0.647,0.371,0.708,0.83c0.087,0.66,0.133,1.328,0.256,1.981
					c1.102,5.848,2.283,11.68,3.563,17.492c2.018,9.163,4.895,18.069,8.093,26.877c0.44,1.212,0.842,2.439,1.25,3.663
					c0.092,0.274,0.176,0.56,0.194,0.845c0.023,0.359-0.148,0.662-0.5,0.786c-0.396,0.139-0.75,0.024-0.981-0.333
					c-0.133-0.206-0.227-0.443-0.31-0.677c-3.008-8.472-5.99-16.954-8.23-25.671c-1.399-5.443-2.461-10.961-3.558-16.471
					c-0.439-2.204-0.987-4.386-1.29-6.615c-0.078-0.577-0.16-1.16-0.155-1.739C323.069,81.474,323.445,81.114,324.022,81.157z"/>
				<path style="fill:#FFFFFF;" d="M327.11,156.242c-0.554-0.037-0.874-0.199-0.977-0.626c-0.103-0.426,0.088-0.76,0.462-0.92
					c0.456-0.195,0.943-0.324,1.423-0.458c3.647-1.016,7.368-1.711,11.052-2.57c11.294-2.632,22.593-5.246,33.89-7.864
					c0.967-0.224,1.425-0.075,1.552,0.483c0.13,0.574-0.187,0.95-1.152,1.177c-3.924,0.924-7.855,1.82-11.784,2.727
					c-10.003,2.31-20.007,4.618-30.009,6.934c-1.215,0.281-2.418,0.61-3.627,0.915C327.619,156.122,327.297,156.197,327.11,156.242z
					"/>
				<path style="fill:#FFFFFF;" d="M304.603,119.887c0.027-0.666,0.151-1.093,0.731-1.168c0.525-0.068,0.836,0.248,0.984,1.05
					c0.573,3.11,1.427,6.155,2.133,9.233c2.424,10.569,5.92,20.787,10.059,30.795c0.397,0.96,0.753,1.938,1.12,2.911
					c0.136,0.36,0.194,0.731-0.032,1.08c-0.255,0.393-0.82,0.441-1.203,0.112c-0.231-0.198-0.33-0.477-0.438-0.746
					c-3.115-7.802-6.209-15.614-8.553-23.693c-1.738-5.992-3.127-12.074-4.564-18.142
					C304.717,120.795,304.663,120.255,304.603,119.887z"/>
			</g>
		</g>
	</g>
	<g>
		<g>
			<path style="fill:#BABAB8;" d="M437.674,293.863c-0.083,0.745-0.307,1.419-0.733,1.998c-0.467,0.637-0.955,1.264-1.487,1.848
				c-2.886,3.172-5.767,6.347-8.765,9.418c-2.908,2.979-5.617,6.152-8.496,9.16c-2.909,3.038-5.917,5.98-8.888,8.958
				c-0.53,0.531-1.099,1.022-1.737,1.422c-1.277,0.798-2.002,0.766-3.173-0.177c-1.787-1.438-3.466-3.002-5.086-4.618
				c-4.836-4.825-9.856-9.459-14.726-14.248c-1.692-1.664-3.404-3.308-5.092-4.975c-7.261-7.169-14.493-14.368-21.787-21.504
				c-3.007-2.942-5.956-5.943-8.98-8.867c-2.454-2.373-4.908-4.746-7.242-7.239c-0.571-0.61-1.082-1.261-1.582-1.93
				c-0.474-0.635-0.424-1.233-0.022-1.845c0.182-0.277,0.38-0.556,0.623-0.776c3.281-2.967,6.12-6.362,9.217-9.507
				c2.893-2.938,5.878-5.794,8.641-8.85c3.58-3.962,7.468-7.605,11.243-11.367c0.504-0.502,1.04-0.949,1.675-1.289
				c0.711-0.382,1.347-0.352,1.959,0.177c0.945,0.817,1.915,1.606,2.833,2.453c3.551,3.275,7.086,6.566,10.501,9.988
				c6.091,6.101,12.238,12.147,18.411,18.165c3.072,2.995,6.098,6.036,9.152,9.048c5.812,5.731,11.63,11.456,17.437,17.193
				c1.54,1.521,3.055,3.068,4.562,4.623c0.403,0.416,0.75,0.892,1.087,1.366C437.51,292.9,437.673,293.374,437.674,293.863z"/>
			<path style="fill:#FFFFFF;" d="M396.274,294.537c0.025,3.263-2.165,6.191-5.286,7.068c-2.363,0.664-5.139-0.289-6.667-2.321
				c-0.86-1.143-1.476-2.442-1.766-3.82c-0.451-2.141,0.219-4.016,1.775-5.565c2.625-2.611,6.553-2.904,9.421-0.703
				C395.265,290.358,396.259,292.461,396.274,294.537z"/>
			<path style="fill:#FFFFFF;" d="M380.724,262.557c-0.063-4.68,4.385-8.276,8.824-7.15c1.141,0.289,1.986,0.986,2.79,1.791
				c1.771,1.772,2.71,6.638,0.659,9.295c-1.82,2.359-4.864,3.495-7.5,2.664C382.629,268.253,380.766,265.677,380.724,262.557z"/>
			<path style="fill:#FFFFFF;" d="M398.978,309.874c0.004-3.584,2.458-6.47,5.979-7.084c2.095-0.365,3.782,0.421,5.178,1.861
				c3.073,3.171,2.467,8.536-1.267,10.863c-2.082,1.298-4.366,1.369-6.559,0.257C400.192,314.697,398.975,312.397,398.978,309.874z"
				/>
			<path style="fill:#FFFFFF;" d="M402.799,271.383c3.911,0.104,6.999,3.241,6.939,7.039c-0.063,3.993-3.654,6.651-6.94,6.12
				c-3.37-0.545-5.507-2.147-6.318-5.165C395.37,275.25,398.516,271.269,402.799,271.383z"/>
			<path style="fill:#FFFFFF;" d="M380.51,277.69c-0.055,3.799-2.994,6.764-6.628,6.688c-3.641-0.077-6.857-3.36-6.721-7.025
				c0.128-3.438,2.65-6.275,7.016-6.269C377.808,271.09,380.563,274.012,380.51,277.69z"/>
			<path style="fill:#FFFFFF;" d="M420.134,288.141c3.854,0.023,6.595,2.649,6.595,6.317c0,3.534-3.387,6.748-7.052,6.691
				c-3.393-0.053-6.226-3.034-6.221-6.546C413.461,290.978,416.416,288.118,420.134,288.141z"/>
			<path style="fill:#FFFFFF;" d="M364.238,263.032c-0.058,2.575-1.119,4.601-3.443,5.794c-2.219,1.139-4.457,0.902-6.549-0.363
				c-2.3-1.391-3.371-4.57-2.52-7.128c0.801-2.407,2.479-3.952,4.859-4.617c3.788-1.059,7.324,1.568,7.65,5.566
				C364.255,262.532,364.238,262.783,364.238,263.032z"/>
			<path style="fill:#FFFFFF;" d="M365.772,248.239c-0.037-3.606,2.821-6.559,6.452-6.541c3.931,0.019,6.1,2.972,6.151,6.337
				c0.048,3.166-2.466,6.444-6.255,6.451C369.249,254.491,365.511,252.212,365.772,248.239z"/>
			<g>
				<path style="fill:#BABAB8;" d="M443.185,266.408c-0.049,0.775-0.493,1.291-1.093,1.724c-1.651,1.193-3.291,2.402-4.942,3.595
					c-1.348,0.973-2.694,1.951-4.066,2.89c-1.2,0.822-2.224,0.749-2.868-0.137c-0.679-0.933-0.372-1.94,0.857-2.828
					c2.865-2.069,5.728-4.14,8.595-6.205c0.336-0.242,0.674-0.507,1.052-0.661C441.914,264.3,443.202,265.165,443.185,266.408z"/>
				<path style="fill:#BABAB8;" d="M448.288,315.639c-0.027,1.05-0.949,1.845-2.027,1.694c-0.446-0.063-0.885-0.222-1.311-0.38
					c-3.11-1.155-6.218-2.318-9.323-3.486c-0.348-0.131-0.704-0.266-1.013-0.467c-0.729-0.475-0.995-1.3-0.715-2.063
					c0.299-0.815,1.103-1.283,1.987-1.13c0.284,0.049,0.561,0.15,0.833,0.251c3.383,1.254,6.767,2.507,10.146,3.772
					C447.871,314.205,448.31,314.788,448.288,315.639z"/>
				<path style="fill:#BABAB8;" d="M428.492,339.659c-0.503-0.023-0.984-0.527-1.421-1.106c-1.954-2.593-3.91-5.184-5.865-7.776
					c-0.276-0.365-0.572-0.719-0.815-1.105c-0.575-0.914-0.456-1.877,0.277-2.474c0.765-0.623,1.827-0.522,2.553,0.34
					c0.803,0.954,1.535,1.969,2.288,2.965c1.431,1.892,2.86,3.786,4.28,5.687c0.248,0.332,0.512,0.673,0.661,1.053
					C430.925,338.453,430.04,339.712,428.492,339.659z"/>
				<path style="fill:#BABAB8;" d="M415.828,256.707c-0.78,0.001-1.309-0.292-1.635-0.887c-0.35-0.638-0.358-1.331,0.109-1.88
					c1.517-1.783,2.642-3.836,4.022-5.712c0.813-1.106,1.611-2.224,2.42-3.334c0.171-0.235,0.335-0.482,0.543-0.681
					c0.635-0.609,1.478-0.693,2.174-0.244c0.687,0.443,1,1.279,0.709,2.075c-0.14,0.384-0.365,0.75-0.609,1.082
					c-1.843,2.519-3.619,5.084-5.367,7.67c-0.324,0.479-0.723,0.913-1.126,1.331C416.714,256.493,416.268,256.721,415.828,256.707z"
					/>
				<path style="fill:#BABAB8;" d="M384.121,331.457c-0.047,0.182-0.106,0.51-0.215,0.822c-1.199,3.415-2.403,6.828-3.615,10.238
					c-0.11,0.309-0.249,0.624-0.445,0.884c-0.457,0.609-1.195,0.817-1.892,0.588c-0.718-0.236-1.165-0.811-1.215-1.571
					c-0.028-0.423,0.07-0.823,0.211-1.221c1.18-3.333,2.354-6.669,3.529-10.004c0.139-0.395,0.307-0.777,0.595-1.088
					c0.51-0.552,1.255-0.721,1.939-0.452C383.705,329.926,384.12,330.546,384.121,331.457z"/>
				<path style="fill:#BABAB8;" d="M449.676,294.41c-1.285,0.074-2.569,0.153-3.854,0.221c-0.582,0.031-1.164,0.019-1.723-0.181
					c-0.77-0.275-1.265-0.934-1.263-1.675c0.002-0.792,0.549-1.483,1.392-1.696c0.316-0.08,0.656-0.089,0.985-0.09
					c2.908-0.013,5.802-0.29,8.702-0.453c0.499-0.028,0.99-0.086,1.478,0.087c0.771,0.274,1.253,0.912,1.25,1.679
					c-0.003,0.717-0.434,1.363-1.15,1.622c-0.346,0.125-0.725,0.191-1.093,0.215c-1.574,0.101-3.149,0.177-4.724,0.262
					C449.675,294.404,449.675,294.407,449.676,294.41z"/>
				<path style="fill:#BABAB8;" d="M407.778,347.655c-0.008,1.193-0.608,1.942-1.547,2.049c-1.021,0.116-1.783-0.452-1.981-1.611
					c-0.434-2.534-0.816-5.076-1.215-7.616c-0.116-0.737-0.244-1.474-0.321-2.216c-0.123-1.185,0.393-1.969,1.376-2.16
					c1.023-0.199,1.902,0.402,2.133,1.593c0.268,1.383,0.419,2.788,0.64,4.18c0.266,1.679,0.552,3.355,0.826,5.033
					C407.735,347.192,407.758,347.482,407.778,347.655z"/>
			</g>
		</g>
		<path style="fill:#E7E7E7;" d="M139.614,258.462c0-24.038-0.025-48.076,0.007-72.114c0.03-22.788,0.12-45.576,0.184-68.364
			c0.001-0.25-0.017-0.502,0.012-0.749c0.071-0.615,0.395-0.998,1.043-1.029c0.374-0.018,0.75-0.01,1.125-0.009
			c45.163,0.112,90.325,0.224,135.488,0.339c4.166,0.011,8.332,0.038,12.499,0.06c0.333,0.002,0.666,0.013,0.998,0.039
			c0.583,0.047,0.917,0.391,0.983,0.951c0.053,0.453,0.043,0.915,0.042,1.372c-0.068,22.288-0.148,44.576-0.207,66.865
			c-0.106,40.327-0.196,80.654-0.301,120.981c-0.079,30.62-0.171,61.241-0.258,91.861c-0.007,2.491-0.034,2.523-2.51,2.516
			c-39.496-0.102-78.993-0.203-118.489-0.313c-9.749-0.027-19.498-0.089-29.247-0.134c-0.208-0.001-0.417,0.005-0.625-0.008
			c-0.981-0.06-1.243-0.314-1.302-1.284c-0.02-0.332-0.008-0.666-0.007-1c0.105-40.452,0.212-80.904,0.314-121.356
			c0.016-6.207,0.002-12.415,0.002-18.622C139.447,258.462,139.531,258.462,139.614,258.462z"/>
		<path style="fill:#646464;" d="M120.964,262.186c0.146-38.12,0.291-76.239,0.438-114.358c0.041-10.498,0.087-20.997,0.132-31.495
			c0.013-3.166,0.105-6.327,0.465-9.479c0.372-3.255,1.455-6.231,3.31-8.923c1.567-2.273,3.762-3.753,6.278-4.767
			c3.575-1.44,7.319-2.243,11.131-2.704c6.008-0.728,12.06-0.569,18.093-0.808c4.828-0.191,9.654-0.454,14.483-0.588
			c3.622-0.1,7.249-0.071,10.873-0.056c30.747,0.127,61.494,0.269,92.242,0.392c4.003,0.016,8,0.141,11.976,0.59
			c4.032,0.455,7.974,1.292,11.545,3.365c4.762,2.764,7.451,6.867,8.083,12.351c0.602,5.224,0.711,10.467,0.781,15.716
			c0.472,35.578-0.089,71.155-0.153,106.732c-0.073,40.453-0.285,80.905-0.44,121.358c-0.067,17.622-0.124,35.245-0.224,52.867
			c-0.025,4.455-0.086,8.917-0.701,13.343c-0.344,2.474-0.739,4.938-1.353,7.366c-1.443,5.711-5.295,8.962-10.742,10.583
			c-2.61,0.776-5.31,1.025-8.014,1.203c-2.909,0.191-5.82,0.355-8.731,0.527c-2.706,0.161-5.415,0.101-8.122,0.092
			c-38.747-0.14-77.494-0.28-116.241-0.43c-3.208-0.013-6.424,0.028-9.62-0.19c-4.771-0.325-9.548-0.665-14.117-2.347
			c-2.299-0.847-4.234-2.115-5.795-3.972c-2.426-2.886-4.091-6.188-5.006-9.825c-0.527-2.096-0.637-4.283-0.7-6.447
			c-0.37-12.743-0.379-25.489-0.32-38.237c0.151-32.578,0.259-65.156,0.378-97.734c0.017-4.707,0.002-9.415,0.002-14.123
			C120.92,262.186,120.942,262.186,120.964,262.186z M130.387,261.634c-0.001,0-0.002,0-0.004,0
			c-0.077,18.995-0.158,37.989-0.229,56.984c-0.07,18.579-0.126,37.158-0.194,55.737c-0.041,11.164-0.113,22.328-0.131,33.492
			c-0.005,3.334,0.262,6.652,0.942,9.931c0.649,3.135,2.634,5.004,5.534,6.049c0.467,0.169,0.957,0.294,1.447,0.378
			c4.153,0.718,8.345,1.093,12.553,1.136c11.163,0.114,22.328,0.163,33.492,0.215c31.536,0.146,63.071,0.278,94.607,0.421
			c3.383,0.015,6.74-0.232,10.072-0.821c5.983-1.058,10.011-5.037,11.114-10.991c0.395-2.133,0.555-4.291,0.711-6.452
			c0.343-4.743,0.237-9.494,0.261-14.241c0.145-28.701,0.275-57.402,0.388-86.104c0.19-47.947,0.38-95.894,0.534-143.841
			c0.053-16.245,0.335-32.492-0.197-48.735c-0.106-3.244-0.243-6.494-1.224-9.636c-0.832-2.666-2.553-4.428-5.223-5.26
			c-0.839-0.261-1.693-0.442-2.573-0.463c-5.536-0.132-11.062-0.535-16.606-0.518c-9.581,0.03-19.163-0.074-28.745-0.111
			c-19.705-0.076-39.41-0.147-59.115-0.219c-13.289-0.049-26.579-0.09-39.868-0.148c-3.145-0.014-6.217,0.409-9.245,1.271
			c-3.911,1.114-6.055,3.8-6.865,7.644c-0.499,2.364-0.787,4.765-0.81,7.19c-0.033,3.457-0.082,6.914-0.096,10.372
			C130.737,170.489,130.562,216.061,130.387,261.634z"/>
		<path style="fill:#646464;" d="M222.112,413.281c-0.02,5.345-4.415,9.67-9.769,9.614c-5.256-0.056-9.54-4.44-9.527-9.751
			c0.013-5.306,4.411-9.552,9.849-9.508C217.874,403.677,222.132,408.025,222.112,413.281z"/>
		<path style="fill:#646464;" d="M222.032,114.601c-5.957,0-11.915-0.001-17.872,0.001c-0.584,0-1.17,0.009-1.738-0.146
			c-1.021-0.279-1.695-1.149-1.717-2.197c-0.022-1.045,0.613-1.96,1.612-2.281c0.479-0.154,0.979-0.185,1.482-0.184
			c12.206,0.018,24.413,0.032,36.619,0.054c0.415,0.001,0.838,0.021,1.242,0.105c1.075,0.224,1.827,1.149,1.852,2.221
			c0.024,1.024-0.632,1.947-1.626,2.276c-0.604,0.2-1.231,0.186-1.856,0.186c-5.999-0.002-11.998-0.001-17.997-0.001
			C222.032,114.624,222.032,114.613,222.032,114.601z"/>
		<path style="fill:#646464;" d="M223.166,101.432c1.973,0.008,3.506,1.443,3.515,3.289c0.009,1.873-1.506,3.333-3.46,3.333
			c-1.97,0.001-3.471-1.35-3.489-3.139C219.712,102.924,221.191,101.423,223.166,101.432z"/>
		<path style="fill:#FF9477;" d="M235.781,210.568c-0.698,0.618-1.238,1.124-1.808,1.595c-0.839,0.695-1.768,1.233-2.803,1.601
			c-1.556,0.553-3.053,0.351-4.471-0.376c-1.556-0.798-2.115-2.312-2.426-3.886c-0.631-3.191,0.091-6.202,1.414-9.101
			c0.52-1.141,1.154-2.21,2.079-3.09c1.647-1.566,4.006-1.87,5.986-0.745c0.072,0.041,0.155,0.075,0.211,0.133
			c1.172,1.198,2.431,0.944,3.853,0.426c3.178-1.158,6.261-2.485,9.135-4.284c4.379-2.74,8.75-5.494,12.656-8.9
			c5.737-5.001,10.433-10.855,14.176-17.478c0.389-0.689,0.771-1.382,1.182-2.057c0.237-0.389,0.489-0.783,0.799-1.113
			c0.833-0.886,1.664-0.733,2.119,0.38c0.172,0.421,0.282,0.87,0.395,1.314c0.4,1.572,0.813,3.143,1.179,4.723
			c1.001,4.32,3.12,8.033,5.996,11.372c2.26,2.624,4.735,5.034,7.195,7.461c0.148,0.146,0.292,0.297,0.443,0.44
			c2.664,2.527,3.78,5.552,3.688,9.288c-0.258,10.489-1.919,20.711-5.252,30.653c-1.475,4.398-3.321,8.627-6.256,12.291
			c-1.778,2.221-3.702,4.285-6.143,5.807c-2.269,1.414-4.726,2.258-7.398,2.41c-0.622,0.035-0.973,0.141-1.043,0.871
			c-0.427,4.439-0.681,8.885-0.672,13.345c0.001,0.581,0.281,0.922,0.742,1.195c1.54,0.911,3.042,1.888,4.667,2.649
			c1.056,0.494,2.061,1.086,3.087,1.636c1.715,0.918,1.416,2.192-0.094,3.046c-3.796,2.145-7.781,3.748-12.023,4.772
			c-5.011,1.21-10.064,1.864-15.222,1.525c-8.743-0.575-17.093-2.594-24.843-6.799c-1.358-0.737-2.614-1.63-3.82-2.592
			c-0.963-0.769-1.068-1.449-0.386-2.476c0.438-0.659,0.895-1.305,1.366-1.941c3.348-4.527,5.772-9.522,7.601-14.832
			c2.444-7.096,4.536-14.278,5.553-21.735c0.163-1.195,0.22-2.404,0.339-3.605c0.042-0.427-0.044-0.822-0.174-1.223
			c-0.779-2.399-1.118-4.856-1.038-7.382C235.825,214.181,235.781,212.476,235.781,210.568z"/>
		<path style="fill:#FF9477;" d="M374.09,286.319c0.534-0.422,0.687-0.868,0.913-1.255c3.293-5.662,5.893-11.662,8.559-17.629
			c0.628-1.406,1.208-2.836,1.997-4.163c0.297-0.499,0.621-0.992,1.001-1.428c0.51-0.585,1.143-1.015,1.975-0.767
			c0.814,0.242,1.152,0.898,1.3,1.682c0.094,0.497,0.087,0.991,0.03,1.492c-0.109,0.96-0.401,1.873-0.713,2.777
			c-2.73,7.908-5.47,15.813-8.747,23.518c-0.175,0.412-0.408,0.81-0.457,1.379c0.45-0.203,0.612-0.592,0.839-0.892
			c2.892-3.829,5.442-7.875,7.726-12.095c1.664-3.076,3.384-6.121,5.092-9.173c0.426-0.762,0.862-1.527,1.564-2.087
			c1.095-0.874,2.113-0.488,2.343,0.901c0.117,0.708,0.021,1.406-0.154,2.102c-0.469,1.866-1.247,3.619-1.983,5.385
			c-2.418,5.805-5.048,11.513-7.994,17.072c-0.224,0.423-0.517,0.833-0.595,1.426c0.489-0.23,0.673-0.609,0.917-0.914
			c3.414-4.265,6.46-8.788,9.391-13.393c1.029-1.616,2.088-3.212,3.138-4.814c0.3-0.459,0.665-0.86,1.165-1.105
			c0.928-0.455,1.787-0.001,1.931,1.025c0.077,0.548-0.024,1.084-0.228,1.591c-0.45,1.119-0.892,2.244-1.386,3.344
			c-3.843,8.554-8.132,16.882-12.968,24.914c-5.974,9.924-13.276,18.742-22.244,26.131c-1.324,1.091-1.567,1.138-2.884,0.048
			c-2.793-2.31-5.511-4.707-8.176-7.164c-3.215-2.965-6.435-5.924-9.648-8.892c-0.366-0.338-0.717-0.698-1.044-1.074
			c-0.949-1.094-0.976-1.52-0.004-2.566c1.335-1.435,2.555-2.966,3.817-4.462c0.832-0.986,1.623-2.008,2.426-3.019
			c3.397-4.28,5.211-9.239,6.283-14.53c0.777-3.837,1.258-7.724,1.995-11.567c0.157-0.816,0.354-1.626,0.569-2.43
			c0.095-0.359,0.253-0.708,0.427-1.037c0.365-0.687,0.836-1.284,1.713-1.236c0.911,0.05,1.247,0.756,1.473,1.489
			c0.346,1.118,0.492,2.277,0.566,3.443c0.198,3.119,0.275,6.242,0.25,9.367c-0.002,0.29,0,0.579,0,0.941
			c0.508-0.114,0.575-0.527,0.74-0.818c2.93-5.15,5.303-10.561,7.524-16.044c1.063-2.623,2.131-5.244,3.227-7.853
			c0.289-0.688,0.677-1.335,1.043-1.988c0.226-0.403,0.537-0.744,0.945-0.978c0.849-0.487,1.656-0.215,2.04,0.696
			c0.286,0.679,0.228,1.388,0.138,2.094c-0.201,1.573-0.573,3.112-0.986,4.639c-1.531,5.664-2.901,11.373-4.63,16.983
			C374.236,285.62,374.195,285.863,374.09,286.319z"/>
		<path style="fill:#BABAB8;" d="M163.043,314.305c-0.362,2.975-0.634,5.964-1.103,8.921c-1.335,8.425-2.678,16.851-4.154,25.252
			c-1.188,6.761-2.562,13.489-3.875,20.228c-0.804,4.127-1.343,8.297-2.054,12.439c-0.901,5.25-1.91,10.479-2.928,15.707
			c-0.167,0.857-0.265,1.727-0.403,2.589c-0.046,0.286-0.085,0.578-0.181,0.849c-0.155,0.437-0.477,0.694-0.96,0.611
			c-0.5-0.086-0.696-0.461-0.644-0.918c0.117-1.033,0.233-2.07,0.428-3.09c1.122-5.843,2.356-11.669,3.223-17.555
			c1.548-10.505,3.905-20.858,5.732-31.308c1.111-6.353,2.095-12.729,3.169-19.089c0.776-4.598,1.422-9.212,1.911-13.849
			c0.071-0.678,0.046-1.29-0.276-1.928c-2.119-4.198-4.195-8.416-5.907-12.802c-0.06-0.154-0.164-0.294-0.205-0.452
			c-0.103-0.397-0.031-0.751,0.36-0.964c0.377-0.205,0.736-0.119,1.033,0.157c0.311,0.289,0.481,0.681,0.626,1.07
			c1.623,4.335,3.779,8.425,5.789,12.582C162.862,313.246,163.088,313.735,163.043,314.305z"/>
		<g>
			<path style="fill:#BABAB8;" d="M179.366,165.42c0.291-0.023,0.689,0.195,1.082,0.439c4.449,2.759,8.992,5.358,13.552,7.927
				c0.989,0.557,1.317,1.426,0.902,2.281c-0.406,0.834-1.339,1.133-2.363,0.744c-0.231-0.088-0.453-0.208-0.668-0.333
				c-4.196-2.452-8.393-4.903-12.583-7.366c-0.463-0.272-0.944-0.538-1.299-0.958c-0.438-0.518-0.57-1.103-0.282-1.739
				C177.991,165.791,178.483,165.46,179.366,165.42z"/>
			<path style="fill:#BABAB8;" d="M173.241,199.749c-2.244,0.049-4.484-0.238-6.732-0.102c-1.081,0.065-1.847-0.628-1.91-1.557
				c-0.059-0.864,0.552-1.577,1.584-1.777c0.445-0.086,0.91-0.105,1.365-0.099c4.157,0.056,8.315,0.123,12.472,0.19
				c0.207,0.003,0.419,0.007,0.62,0.049c0.785,0.163,1.338,0.812,1.359,1.571c0.02,0.746-0.506,1.466-1.281,1.636
				c-0.44,0.096-0.909,0.084-1.365,0.086C177.316,199.754,175.279,199.749,173.241,199.749z"/>
			<path style="fill:#BABAB8;" d="M214.816,153.109c-0.731-0.038-1.222-0.446-1.62-1.024c-1.014-1.473-2.025-2.948-3.063-4.403
				c-1.304-1.828-2.637-3.635-3.953-5.456c-0.267-0.369-0.552-0.73-0.685-1.181c-0.221-0.752,0.002-1.456,0.604-1.877
				c0.618-0.432,1.49-0.378,2.072,0.15c0.182,0.166,0.328,0.375,0.475,0.575c2.432,3.322,4.899,6.619,7.168,10.057
				c0.229,0.347,0.476,0.682,0.58,1.096C216.657,152.086,215.877,153.107,214.816,153.109z"/>
			<path style="fill:#BABAB8;" d="M246.259,138.33c0.004,1.236-0.602,1.986-1.491,2.087c-0.866,0.098-1.623-0.462-1.831-1.501
				c-0.496-2.481-0.948-4.972-1.391-7.463c-0.24-1.348-0.425-2.705-0.634-4.059c-0.038-0.246-0.086-0.492-0.102-0.74
				c-0.075-1.166,0.503-1.982,1.474-2.097c0.905-0.107,1.676,0.496,1.845,1.626c0.417,2.791,0.874,5.575,1.4,8.347
				C245.785,135.874,246.046,137.217,246.259,138.33z"/>
		</g>
		<g>
			<path style="fill:#BABAB8;" d="M142.812,160.539c-0.646,0.008-1.026-0.596-0.763-1.231c0.165-0.398,0.506-0.655,0.809-0.937
				c3.773-3.517,7.54-7.041,11.328-10.541c3.819-3.528,7.66-7.033,11.496-10.544c0.398-0.364,0.8-0.737,1.249-1.031
				c0.42-0.276,0.895-0.259,1.221,0.186c0.28,0.382,0.219,0.79-0.092,1.14c-0.193,0.217-0.408,0.415-0.626,0.607
				c-5.439,4.778-10.658,9.796-16.005,14.675c-2.55,2.327-5.048,4.712-7.566,7.073C143.558,160.221,143.274,160.531,142.812,160.539
				z"/>
			<path style="fill:#BABAB8;" d="M170.269,150.047c-0.083,0.517-0.535,0.845-0.935,1.2c-1.866,1.661-3.768,3.283-5.606,4.974
				c-6.036,5.555-12.068,11.113-17.905,16.878c-0.118,0.117-0.232,0.24-0.362,0.343c-0.371,0.293-0.761,0.336-1.135,0.019
				c-0.374-0.317-0.428-0.751-0.177-1.125c0.298-0.444,0.675-0.846,1.064-1.217c4.013-3.815,8.027-7.631,12.06-11.426
				c3.548-3.339,7.148-6.621,10.837-9.805c0.313-0.271,0.583-0.604,0.983-0.758C169.704,148.896,170.317,149.338,170.269,150.047z"
				/>
			<path style="fill:#BABAB8;" d="M144.365,166.398c-0.651,0.022-1.06-0.609-0.814-1.238c0.141-0.36,0.444-0.599,0.712-0.857
				c7.205-6.925,14.482-13.773,21.929-20.44c0.527-0.472,1.036-0.967,1.583-1.415c0.572-0.468,1.092-0.473,1.444-0.075
				c0.35,0.396,0.309,0.901-0.251,1.425c-1.277,1.194-2.601,2.337-3.894,3.515c-6.587,6.002-13.096,12.086-19.513,18.269
				C145.204,165.926,144.885,166.329,144.365,166.398z"/>
			<path style="fill:#BABAB8;" d="M167.238,130.192c-0.016,0.454-0.352,0.775-0.685,1.088c-1.366,1.28-2.728,2.564-4.11,3.827
				c-5.681,5.192-11.24,10.514-16.791,15.844c-0.509,0.489-0.975,1.022-1.45,1.545c-0.525,0.578-0.955,0.716-1.383,0.421
				c-0.456-0.315-0.499-0.923-0.039-1.551c0.318-0.434,0.69-0.834,1.078-1.208c5.863-5.666,11.77-11.286,17.781-16.795
				c1.196-1.096,2.376-2.21,3.561-3.317c0.273-0.255,0.514-0.551,0.884-0.676C166.642,129.179,167.214,129.563,167.238,130.192z"/>
			<path style="fill:#BABAB8;" d="M144.348,182.608c-0.704,0.025-1.156-0.627-0.881-1.204c0.103-0.217,0.286-0.408,0.465-0.575
				c7.179-6.645,14.201-13.462,21.634-19.831c0.221-0.189,0.436-0.391,0.679-0.549c0.548-0.359,1.026-0.327,1.335,0.077
				c0.343,0.448,0.203,0.862-0.139,1.234c-0.168,0.183-0.36,0.346-0.55,0.508c-7.219,6.17-14.041,12.774-20.999,19.23
				c-0.365,0.338-0.756,0.649-1.151,0.952C144.616,182.545,144.438,182.573,144.348,182.608z"/>
			<path style="fill:#BABAB8;" d="M144.368,195.863c-0.715,0.046-1.2-0.605-0.942-1.177c0.098-0.217,0.283-0.41,0.465-0.574
				c7.07-6.392,14.134-12.793,21.354-19.017c0.22-0.189,0.452-0.373,0.703-0.515c0.407-0.23,0.811-0.199,1.126,0.172
				c0.315,0.372,0.278,0.774-0.024,1.135c-0.186,0.221-0.41,0.413-0.63,0.602c-6.885,5.912-13.59,12.026-20.336,18.095
				c-0.371,0.334-0.741,0.672-1.134,0.978C144.759,195.71,144.514,195.79,144.368,195.863z"/>
			<path style="fill:#BABAB8;" d="M168.538,181.12c0.011,0.315-0.138,0.565-0.348,0.775c-0.294,0.293-0.598,0.579-0.911,0.852
				c-6.481,5.674-12.964,11.345-19.444,17.019c-0.501,0.438-0.981,0.896-1.393,1.426c-0.308,0.396-0.712,0.583-1.199,0.276
				c-0.444-0.28-0.542-0.756-0.252-1.315c0.273-0.527,0.711-0.919,1.148-1.304c4.558-4.016,9.114-8.036,13.68-12.043
				c2.252-1.976,4.523-3.93,6.786-5.893c0.25-0.217,0.471-0.477,0.799-0.586C167.96,180.142,168.527,180.541,168.538,181.12z"/>
			<path style="fill:#BABAB8;" d="M166.086,169.087c-0.02,0.524-0.417,0.787-0.753,1.094c-2.123,1.936-4.261,3.855-6.366,5.811
				c-4.332,4.025-8.645,8.07-12.971,12.101c-0.364,0.339-0.755,0.655-1.166,0.934c-0.388,0.263-0.818,0.228-1.134-0.126
				c-0.357-0.4-0.321-0.865,0.047-1.234c0.499-0.5,1.053-0.944,1.571-1.426c5.886-5.472,11.767-10.949,17.657-16.418
				c0.548-0.509,1.134-0.979,1.72-1.445c0.321-0.256,0.691-0.276,1.046-0.044C166.006,168.508,166.098,168.777,166.086,169.087z"/>
			<path style="fill:#BABAB8;" d="M144.931,143.48c-0.703,0.028-1.11-0.645-0.758-1.31c0.296-0.558,0.785-0.969,1.238-1.396
				c3.092-2.911,6.182-5.824,9.29-8.717c2.407-2.241,4.838-4.456,7.262-6.679c0.275-0.252,0.558-0.502,0.863-0.715
				c0.353-0.247,0.72-0.188,1.028,0.098c0.315,0.291,0.337,0.661,0.166,1.03c-0.198,0.427-0.581,0.701-0.915,1.011
				c-4.367,4.046-8.742,8.083-13.102,12.137c-1.402,1.304-2.767,2.647-4.141,3.982C145.591,143.184,145.35,143.472,144.931,143.48z"
				/>
			<path style="fill:#BABAB8;" d="M160.013,197.005c-0.036,0.446-0.387,0.748-0.736,1.045c-3.107,2.643-6.025,5.492-8.978,8.302
				c-1.597,1.52-3.178,3.056-4.769,4.583c-0.209,0.201-0.411,0.417-0.648,0.581c-0.382,0.265-0.79,0.273-1.136-0.068
				c-0.347-0.342-0.322-0.757-0.094-1.145c0.123-0.21,0.316-0.385,0.495-0.557c4.464-4.299,8.879-8.651,13.54-12.741
				c0.342-0.3,0.688-0.623,1.09-0.818C159.39,195.89,160.023,196.313,160.013,197.005z"/>
			<path style="fill:#BABAB8;" d="M160.641,203.617c-0.044,0.502-0.402,0.808-0.724,1.127c-2.275,2.25-4.551,4.499-6.835,6.74
				c-1.928,1.892-3.865,3.774-5.802,5.657c-0.207,0.201-0.416,0.411-0.658,0.564c-0.357,0.226-0.725,0.17-1.027-0.121
				c-0.301-0.291-0.354-0.642-0.163-1.025c0.21-0.42,0.564-0.717,0.889-1.035c3.42-3.338,6.845-6.669,10.264-10.008
				c0.743-0.726,1.459-1.479,2.198-2.209c0.204-0.202,0.424-0.419,0.68-0.531C160.062,202.514,160.677,202.975,160.641,203.617z"/>
			<path style="fill:#BABAB8;" d="M145.576,135.743c-0.52,0.009-0.807-0.145-0.959-0.477c-0.151-0.329-0.113-0.67,0.147-0.926
				c0.415-0.407,0.867-0.775,1.293-1.172c3.653-3.401,7.302-6.806,10.957-10.205c0.365-0.339,0.734-0.685,1.146-0.959
				c0.422-0.281,0.887-0.269,1.222,0.17c0.29,0.38,0.226,0.782-0.077,1.139c-0.134,0.158-0.286,0.302-0.438,0.443
				c-3.991,3.709-7.982,7.418-11.978,11.121C146.467,135.27,146.067,135.72,145.576,135.743z"/>
			<path style="fill:#BABAB8;" d="M167.239,205.303c-0.027,0.517-0.404,0.794-0.745,1.1c-1.859,1.667-3.724,3.327-5.572,5.007
				c-1.632,1.484-3.244,2.99-4.865,4.486c-0.122,0.113-0.237,0.235-0.363,0.342c-0.627,0.533-1.167,0.594-1.529,0.18
				c-0.362-0.414-0.283-0.969,0.313-1.53c1.787-1.684,3.587-3.354,5.401-5.009c1.752-1.599,3.527-3.173,5.295-4.755
				c0.278-0.249,0.551-0.518,0.92-0.629C166.663,204.326,167.232,204.735,167.239,205.303z"/>
			<path style="fill:#BABAB8;" d="M170.978,207.08c-0.064,0.523-0.476,0.832-0.836,1.172c-1.939,1.827-3.883,3.648-5.822,5.475
				c-0.727,0.685-1.443,1.382-2.172,2.065c-0.273,0.256-0.562,0.505-0.931,0.611c-0.393,0.113-0.749,0.037-1.001-0.31
				c-0.252-0.347-0.223-0.701,0.031-1.036c0.075-0.099,0.168-0.184,0.259-0.269c2.792-2.62,5.583-5.241,8.38-7.855
				c0.271-0.254,0.55-0.532,0.878-0.686C170.359,205.97,171.005,206.429,170.978,207.08z"/>
			<path style="fill:#BABAB8;" d="M153.28,121.354c-0.008,0.359-0.202,0.628-0.444,0.862c-2.146,2.082-4.291,4.164-6.447,6.234
				c-0.204,0.196-0.464,0.357-0.728,0.458c-0.331,0.126-0.659,0.043-0.904-0.238c-0.279-0.322-0.3-0.678-0.075-1.031
				c0.11-0.173,0.257-0.326,0.405-0.469c2.059-1.993,4.119-3.984,6.184-5.969c0.238-0.229,0.485-0.473,0.774-0.617
				C152.619,120.298,153.279,120.732,153.28,121.354z"/>
			<path style="fill:#BABAB8;" d="M175.946,208.281c-0.042,0.36-0.224,0.631-0.465,0.87c-1.355,1.342-2.708,2.686-4.068,4.022
				c-0.331,0.325-0.722,0.561-1.202,0.593c-0.404,0.027-0.756-0.097-0.914-0.494c-0.15-0.376-0.099-0.764,0.246-1.01
				c1.773-1.258,3.133-2.949,4.691-4.432c0.359-0.342,0.738-0.555,1.225-0.34C175.791,207.636,175.933,207.935,175.946,208.281z"/>
		</g>
		<g>
			<path style="fill:#79C0E8;" d="M226.037,272.488c-0.031-0.961,0.501-1.362,1.297-1.071c1.172,0.429,2.342,0.866,3.491,1.351
				c5.486,2.316,11.183,3.859,17.117,4.325c6.923,0.543,13.825,0.345,20.587-1.468c2.414-0.647,4.724-1.606,6.961-2.728
				c0.589-0.295,1.185-0.77,1.845-0.273c0.734,0.552,0.364,1.283,0.165,1.95c-4.1,13.783-10.022,26.805-16.58,39.557
				c-2.171,4.221-4.384,8.421-6.924,12.437c-0.601,0.949-1.225,1.886-1.886,2.795c-1.203,1.657-2.113,1.579-2.965-0.253
				c-0.948-2.038-1.894-4.078-2.783-6.142c-4.199-9.749-8.099-19.62-12.035-29.477c-1.837-4.6-3.931-9.093-5.671-13.733
				c-0.804-2.143-1.584-4.295-2.369-6.445C226.175,273.002,226.095,272.679,226.037,272.488z"/>
			<g>
				<path style="fill:#95D4EF;" d="M254.602,297.638c-0.004,0.499-0.33,0.838-0.6,1.204c-1.902,2.578-3.818,5.147-5.704,7.738
					c-0.906,1.245-1.752,2.532-2.628,3.798c-0.165,0.239-0.315,0.496-0.517,0.701c-0.283,0.286-0.631,0.402-1.02,0.184
					c-0.428-0.24-0.55-0.619-0.41-1.062c0.086-0.272,0.231-0.534,0.389-0.774c2.708-4.101,5.683-8.008,8.633-11.934
					c0.175-0.233,0.346-0.47,0.62-0.601C253.965,296.604,254.591,296.981,254.602,297.638z"/>
				<path style="fill:#95D4EF;" d="M245.932,315.783c0.063-0.741,0.412-1.218,0.731-1.701c1.766-2.672,3.565-5.322,5.464-7.902
					c0.764-1.038,1.524-2.08,2.292-3.116c0.198-0.267,0.394-0.542,0.632-0.77c0.324-0.312,0.71-0.443,1.127-0.152
					c0.459,0.32,0.485,0.768,0.26,1.214c-0.166,0.33-0.421,0.617-0.644,0.917c-2.483,3.338-4.907,6.717-7.198,10.19
					c-0.367,0.555-0.736,1.106-0.986,1.73c-0.179,0.446-0.546,0.623-1.011,0.518C246.038,316.584,245.955,316.133,245.932,315.783z"
					/>
				<path style="fill:#95D4EF;" d="M249.008,320.185c-0.54-0.021-0.872-0.455-0.784-1.04c0.064-0.427,0.332-0.756,0.559-1.102
					c2.556-3.893,5.207-7.721,7.92-11.506c0.169-0.236,0.332-0.483,0.539-0.682c0.339-0.327,0.753-0.37,1.137-0.097
					c0.389,0.277,0.467,0.681,0.253,1.104c-0.149,0.295-0.337,0.573-0.529,0.844c-2.725,3.828-5.404,7.686-7.978,11.618
					C249.854,319.739,249.619,320.207,249.008,320.185z"/>
				<path style="fill:#95D4EF;" d="M243.466,305.586c-0.569,0.002-0.998-0.562-0.817-1.129c0.087-0.271,0.261-0.519,0.425-0.758
					c2.166-3.159,4.333-6.318,6.51-9.469c0.59-0.854,1.091-1.067,1.605-0.747c0.516,0.322,0.497,0.894-0.085,1.742
					c-2.166,3.159-4.338,6.314-6.506,9.472C244.312,305.113,244.036,305.535,243.466,305.586z"/>
				<path style="fill:#95D4EF;" d="M241.385,300.996c-0.689-0.025-1.018-0.464-0.922-1.044c0.056-0.342,0.26-0.61,0.45-0.881
					c2.107-2.995,4.217-5.987,6.328-8.979c0.12-0.169,0.239-0.346,0.392-0.484c0.348-0.312,0.751-0.372,1.142-0.1
					c0.351,0.243,0.422,0.618,0.279,1.001c-0.1,0.268-0.255,0.522-0.42,0.758c-2.102,2.998-4.211,5.991-6.318,8.985
					C242.05,300.63,241.786,301.015,241.385,300.996z"/>
				<path style="fill:#95D4EF;" d="M239.823,295.667c-0.66,0.028-1.117-0.511-0.949-1.071c0.081-0.269,0.259-0.516,0.423-0.753
					c1.581-2.283,3.163-4.565,4.757-6.84c0.6-0.857,1.09-1.057,1.593-0.707c0.505,0.351,0.493,0.89-0.099,1.748
					c-1.577,2.286-3.169,4.561-4.757,6.84C240.529,295.262,240.255,295.63,239.823,295.667z"/>
				<path style="fill:#95D4EF;" d="M243.118,283.988c-0.02,0.516-0.23,0.778-0.42,1.049c-1.357,1.934-2.714,3.866-4.072,5.799
					c-0.095,0.135-0.188,0.276-0.304,0.392c-0.359,0.359-0.776,0.508-1.222,0.179c-0.442-0.326-0.427-0.773-0.21-1.225
					c0.089-0.185,0.216-0.353,0.335-0.523c1.309-1.866,2.62-3.73,3.932-5.594c0.191-0.271,0.382-0.545,0.68-0.714
					c0.27-0.153,0.544-0.179,0.826-0.023C242.987,283.509,243.121,283.79,243.118,283.988z"/>
				<path style="fill:#95D4EF;" d="M240.373,280.965c-0.016,0.302-0.145,0.552-0.319,0.796c-1.156,1.629-2.301,3.265-3.456,4.895
					c-0.119,0.167-0.252,0.344-0.42,0.452c-0.345,0.221-0.723,0.219-1.047-0.046c-0.277-0.227-0.388-0.55-0.272-0.899
					c0.078-0.234,0.199-0.46,0.334-0.667c1.047-1.603,2.138-3.177,3.311-4.691c0.202-0.261,0.398-0.537,0.742-0.641
					C239.832,279.987,240.37,280.368,240.373,280.965z"/>
				<path style="fill:#95D4EF;" d="M234.185,282.872c-0.595,0.03-1.001-0.439-0.949-0.984c0.03-0.307,0.208-0.538,0.378-0.772
					c0.731-1.009,1.465-2.017,2.204-3.02c0.122-0.166,0.26-0.328,0.42-0.456c0.365-0.293,0.768-0.332,1.135-0.023
					c0.314,0.263,0.455,0.647,0.232,1.007c-0.878,1.41-1.868,2.741-2.944,4.006C234.538,282.771,234.301,282.815,234.185,282.872z"
					/>
			</g>
		</g>
		<g>
			<path style="fill:#ED7480;" d="M247.233,212.697c0.113-2.617,0.991-4.89,2.858-6.735c0.689-0.68,1.548-1.173,2.422-1.499
				c6.061-2.26,11.2,1.136,12.314,6.47c0.564,2.698-0.342,5.167-2.324,7.171c-1.802,1.823-3.951,2.835-6.536,2.919
				c-1.67,0.054-3.184-0.306-4.578-1.272c-1.388-0.961-2.564-2.052-3.342-3.602C247.484,215.03,247.271,213.89,247.233,212.697z"/>
			<path style="fill:#ED7480;" d="M287.123,214.926c-0.048-4.518,3.733-8.293,8.267-8.253c0.926,0.008,0.963,0.042,0.836,1.03
				c-0.456,3.55-1.023,7.081-1.807,10.575c-0.264,1.177-0.537,2.352-0.78,3.533c-0.12,0.583-0.368,0.715-0.96,0.534
				C289.569,221.389,287.158,218.199,287.123,214.926z"/>
			<g>
				<path style="fill:#B75141;" d="M270.8,249.498c-0.598,0.377-1.155,0.392-1.685,0.419c-4.975,0.253-9.903-0.167-14.699-1.499
					c-5.905-1.64-11.36-4.263-16.056-8.262c-2.139-1.821-2.053-1.007-1.567-4.049c0.491-3.074,1.016-6.14,1.049-9.265
					c0.001-0.112-0.014-0.266,0.164-0.31c0.336-0.096,0.4,0.199,0.508,0.397c1.309,2.388,3.033,4.449,4.889,6.429
					c2.023,2.158,4.099,4.261,6.475,6.018c4.095,3.029,8.545,5.432,13.304,7.268c2.171,0.838,4.387,1.537,6.59,2.277
					C270.115,249.036,270.489,249.088,270.8,249.498z"/>
				<path style="fill:#B75141;" d="M273.585,215.96c0.254-2.076,0.301-4.484,0.561-6.882c0.232-2.144,0.527-4.284,0.699-6.439
					c0.22-2.771,0.527-5.538,1.001-8.281c0.014-0.082,0.035-0.164,0.065-0.24c0.142-0.363,0.083-0.958,0.646-0.912
					c0.526,0.043,0.462,0.588,0.527,0.987c0.408,2.497,0.734,5.006,1.379,7.461c0.728,2.771,1.384,5.56,2.175,8.317
					c0.745,2.596,1.395,5.219,2.059,7.837c0.253,0.998,0.062,1.176-0.989,1.066c-2.15-0.227-4.298-0.466-6.449-0.681
					C273.652,218.033,273.559,217.942,273.585,215.96z"/>
				<path style="fill:#FFFFFF;" d="M271.894,225.714c3.331,0.09,6.645,0.434,9.967,0.626c1.121,0.065,2.24,0.177,3.359,0.273
					c0.547,0.047,1.104,0.094,1.295,0.754c0.163,0.562-0.08,1.087-0.831,1.518c-1.56,0.895-3.193,1.624-5.017,1.777
					c-2.208,0.185-4.409,0.118-6.593-0.277c-1.982-0.359-3.672-1.295-5.147-2.645c-0.415-0.38-0.784-0.792-0.526-1.405
					c0.257-0.609,0.808-0.633,1.371-0.623C270.479,225.723,271.187,225.714,271.894,225.714z"/>
				<path style="fill:#5E2313;" d="M271.799,192.85c-0.273-0.058-0.647-0.105-1-0.218c-3.667-1.17-7.365-0.992-11.082-0.293
					c-1.141,0.215-2.262,0.549-3.43,0.601c-0.331,0.015-0.671,0.028-0.994-0.031c-0.475-0.085-0.607-0.419-0.331-0.823
					c0.333-0.488,0.798-0.86,1.308-1.135c4.043-2.181,8.258-2.898,12.718-1.446c1.285,0.418,2.38,1.161,3.426,1.989
					c0.315,0.249,0.514,0.579,0.346,0.98C272.605,192.842,272.224,192.803,271.799,192.85z"/>
				<path style="fill:#5E2313;" d="M295.792,195.274c-0.489-0.139-1.124-0.321-1.761-0.499c-1.354-0.377-2.633-1.004-4.046-1.187
					c-1.612-0.209-3.223-0.237-4.833-0.004c-0.581,0.084-1.156,0.161-1.708-0.116c-0.508-0.255-0.583-0.698-0.174-1.093
					c0.243-0.234,0.557-0.342,0.876-0.448c2.778-0.924,5.605-1.073,8.471-0.535c1.161,0.218,2.185,0.771,3.143,1.442
					c0.483,0.339,0.878,0.773,1.02,1.368C296.938,194.858,296.622,195.249,295.792,195.274z"/>
				<path d="M263.896,200.952c-1.528-0.001-2.769-1.242-2.767-2.765c0.002-1.528,1.24-2.76,2.771-2.76
					c1.536,0.001,2.763,1.23,2.761,2.764C266.659,199.724,265.428,200.953,263.896,200.952z"/>
				<path d="M290.283,201.727c-1.546,0.013-2.769-1.188-2.781-2.729c-0.012-1.535,1.204-2.781,2.729-2.796
					c1.52-0.014,2.777,1.221,2.791,2.743C293.036,200.477,291.819,201.714,290.283,201.727z"/>
			</g>
		</g>
		<path style="fill:#FFFFFF;" d="M250.537,329.806c0.395-0.36,0.557-0.79,0.778-1.173c2.832-4.911,5.218-10.04,7.522-15.215
			c3.724-8.364,7.546-16.685,11.32-25.028c2.937-6.492,5.467-13.136,7.434-19.989c0.33-1.15,0.724-1.396,1.916-1.25
			c0.327,0.04,0.658,0.116,0.967,0.229c3.515,1.289,7.094,2.398,10.56,3.82c0.27,0.111,0.54,0.22,0.807,0.335
			c1.928,0.833,2.089,1.406,0.899,3.191c-0.906,1.359-2.013,2.55-3.161,3.698c-3.062,3.063-6.152,6.098-9.23,9.145
			c-0.266,0.264-0.521,0.54-0.798,0.792c-0.353,0.322-0.302,0.597-0.018,0.958c2.624,3.34,5.004,6.866,7.711,10.142
			c1.113,1.347,2.329,2.61,3.434,3.964c1.287,1.578,1.274,2.083-0.039,3.699c-2.944,3.624-6.125,7.035-9.434,10.326
			c-4.991,4.963-10.015,9.892-15.01,14.85c-3.34,3.315-6.548,6.762-10.006,9.957c-0.184,0.17-0.363,0.344-0.549,0.51
			c-1.196,1.071-1.405,1.086-2.85,0.279c-5.696-3.182-10.879-7.089-15.815-11.324c-3.855-3.307-7.718-6.605-11.348-10.17
			c-3.158-3.1-6.099-6.383-8.832-9.854c-2.188-2.778-4.514-5.453-6.313-8.526c-1.352-2.309-1.313-2.796,0.63-4.573
			c2.493-2.282,4.636-4.897,6.928-7.37c1.012-1.092,2.011-2.197,3.015-3.294c-0.299-0.461-0.743-0.62-1.122-0.852
			c-2.663-1.632-5.4-3.13-8.227-4.46c-0.226-0.106-0.459-0.202-0.672-0.331c-0.893-0.543-0.966-1.211-0.163-1.885
			c1.212-1.017,2.457-1.994,3.681-2.997c2.165-1.775,4.125-3.754,5.857-5.955c0.8-1.017,1.489-2.108,2.045-3.279
			c0.107-0.225,0.206-0.458,0.341-0.667c0.616-0.949,1.555-0.925,1.979,0.131c0.607,1.51,1.39,2.932,2.04,4.419
			c5.824,13.305,11.698,26.589,16.972,40.127c2.13,5.468,4.196,10.959,6.217,16.467C250.136,329.03,250.207,329.442,250.537,329.806
			z"/>
		<g>
			<g>
				<path style="fill:#BABAB8;" d="M267.526,394.708c-9.516,0.036-18.266-1.96-26.891-4.872
					c-10.823-3.653-20.274-9.596-29.061-16.738c-6.154-5.002-11.777-10.565-17.28-16.262c-4.575-4.736-9.009-9.592-13.233-14.646
					c-7.811-9.344-14.266-19.574-20.031-30.267c-1.897-3.517-3.968-6.943-5.573-10.613c-0.3-0.685-0.615-1.375-0.806-2.094
					c-0.273-1.031,0.22-1.648,1.281-1.599c2.244,0.103,4.497,0.088,6.722,0.501c1.423,0.264,2.824-0.09,4.214-0.327
					c3.37-0.574,6.639-1.564,9.925-2.485c5.892-1.651,11.66-3.702,17.533-5.414c0.828-0.241,1.623-0.534,2.334-1.121
					c1.051-0.869,3.12-0.52,4.001,0.58c3.594,4.486,7.142,9.01,10.766,13.471c5.649,6.955,11.57,13.667,17.944,19.977
					c3.673,3.636,7.455,7.153,11.291,10.609c3.376,3.041,6.984,5.822,10.825,8.244c6.588,4.154,13.799,5.74,21.592,5.173
					c7.51-0.546,14.347-3.129,21.057-6.25c5.756-2.676,11.133-5.991,16.399-9.523c11.153-7.481,21.747-15.694,32.102-24.228
					c1.236-1.018,1.597-1.044,2.785-0.006c2.764,2.416,5.281,5.083,7.79,7.756c3.649,3.888,7.507,7.575,11.088,11.528
					c1.538,1.698,3.07,3.403,4.483,5.208c0.643,0.821,1.188,1.707,1.739,2.592c0.789,1.27,0.695,2.434-0.26,3.558
					c-0.216,0.254-0.402,0.533-0.618,0.786c-7.644,8.956-15.962,17.226-25.139,24.618c-3.478,2.802-7.344,5.043-10.998,7.591
					c-5.369,3.744-10.953,7.137-16.664,10.326c-6.792,3.792-14.033,6.491-21.408,8.899c-6.112,1.996-12.313,3.554-18.686,4.395
					C273.566,394.496,270.372,394.798,267.526,394.708z"/>
			</g>
			<g>
				<path style="fill:#D6D6D6;" d="M253.108,379.146c0.478,0.017,0.725,0.365,0.975,0.695c0.903,1.192,1.792,2.394,2.701,3.581
					c1.793,2.341,3.593,4.677,5.397,7.009c0.302,0.391,0.588,0.793,1.024,1.074c0.451,0.291,0.552,0.743,0.231,1.184
					c-0.315,0.433-0.784,0.447-1.233,0.223c-0.537-0.268-0.867-0.766-1.222-1.223c-1.631-2.099-3.259-4.2-4.876-6.31
					c-1.086-1.418-2.154-2.849-3.223-4.279c-0.198-0.265-0.411-0.535-0.53-0.838C252.122,379.676,252.519,379.125,253.108,379.146z"
					/>
				<path style="fill:#D6D6D6;" d="M231.174,370.656c0.372,0.013,0.629,0.222,0.795,0.525c0.279,0.511,0.541,1.032,0.79,1.558
					c1.421,3.012,2.934,5.976,4.546,8.89c0.584,1.055,1.154,2.119,1.898,3.079c0.318,0.41,0.324,0.86-0.115,1.214
					c-0.4,0.324-0.784,0.175-1.128-0.117c-0.419-0.355-0.705-0.819-0.98-1.285c-2.377-4.015-4.433-8.197-6.439-12.405
					C230.154,371.302,230.47,370.63,231.174,370.656z"/>
				<path style="fill:#D6D6D6;" d="M250.524,388.659c0.002,0.694-0.583,1.088-1.157,0.916c-0.468-0.14-0.753-0.5-1.008-0.884
					c-2.479-3.734-4.907-7.501-7.236-11.331c-0.065-0.106-0.124-0.216-0.181-0.326c-0.247-0.472-0.199-0.896,0.267-1.19
					c0.493-0.312,0.874-0.057,1.178,0.332c0.203,0.261,0.363,0.555,0.541,0.835c2.006,3.15,4.005,6.305,6.022,9.448
					c0.379,0.59,0.707,1.224,1.253,1.696C250.395,388.32,250.535,388.528,250.524,388.659z"/>
				<path style="fill:#D6D6D6;" d="M256.34,391.159c-0.559-0.031-0.88-0.424-1.18-0.821c-0.926-1.225-1.841-2.459-2.752-3.696
					c-1.674-2.273-3.341-4.551-4.884-6.917c-0.202-0.31-0.46-0.599-0.517-0.983c-0.052-0.352,0.029-0.655,0.358-0.86
					c0.329-0.204,0.65-0.169,0.921,0.065c0.215,0.186,0.395,0.423,0.554,0.662c2.515,3.764,5.186,7.415,7.956,10.994
					c0.272,0.351,0.475,0.689,0.249,1.129C256.902,391.011,256.668,391.165,256.34,391.159z"/>
				<path style="fill:#D6D6D6;" d="M232.054,381.908c0.008,0.756-0.641,1.129-1.225,0.801c-0.385-0.217-0.583-0.593-0.77-0.96
					c-1.909-3.745-3.73-7.531-5.325-11.422c-0.093-0.227-0.176-0.471-0.196-0.713c-0.031-0.369,0.167-0.63,0.504-0.783
					c0.357-0.162,0.671-0.046,0.897,0.221c0.184,0.216,0.313,0.489,0.427,0.754c1.688,3.94,3.463,7.839,5.496,11.615
					C231.958,381.6,232.013,381.802,232.054,381.908z"/>
				<path style="fill:#D6D6D6;" d="M236.415,373.164c0.377-0.022,0.639,0.173,0.818,0.473c0.192,0.32,0.354,0.659,0.525,0.992
					c1.864,3.622,3.764,7.224,5.992,10.642c0.378,0.58,0.37,1.034-0.018,1.322c-0.381,0.284-0.913,0.205-1.323-0.272
					c-0.323-0.376-0.598-0.799-0.85-1.228c-1.918-3.261-3.785-6.551-5.467-9.941c-0.165-0.333-0.34-0.678-0.411-1.037
					C235.578,373.602,235.936,373.188,236.415,373.164z"/>
				<path style="fill:#D6D6D6;" d="M268.52,391.583c-0.005,0.573-0.604,0.958-1.155,0.727c-0.395-0.166-0.664-0.496-0.929-0.813
					c-2.447-2.933-4.85-5.901-7.186-8.924c-0.152-0.196-0.307-0.398-0.413-0.62c-0.193-0.406-0.209-0.826,0.187-1.123
					c0.391-0.293,0.786-0.196,1.122,0.127c0.148,0.142,0.268,0.315,0.395,0.478c2.448,3.146,4.935,6.26,7.515,9.298
					C268.272,390.987,268.526,391.211,268.52,391.583z"/>
				<path style="fill:#D6D6D6;" d="M279.431,391.114c-0.032,0.56-0.618,0.908-1.195,0.688c-0.436-0.166-0.78-0.477-1.089-0.814
					c-2.246-2.446-4.486-4.896-6.72-7.352c-0.163-0.18-0.308-0.398-0.391-0.624c-0.122-0.333-0.057-0.657,0.236-0.898
					c0.292-0.24,0.635-0.263,0.924-0.06c0.301,0.211,0.556,0.494,0.806,0.768c1.874,2.054,3.746,4.111,5.609,6.174
					c0.419,0.464,0.853,0.906,1.35,1.285C279.238,390.491,279.433,390.747,279.431,391.114z"/>
				<path style="fill:#D6D6D6;" d="M273.711,391.462c-0.029,0.62-0.646,0.992-1.18,0.713c-0.211-0.11-0.382-0.312-0.545-0.496
					c-2.15-2.433-4.297-4.87-6.441-7.309c-0.219-0.249-0.44-0.504-0.615-0.784c-0.223-0.357-0.186-0.73,0.126-1.023
					c0.313-0.293,0.692-0.286,1.037-0.07c0.206,0.129,0.372,0.328,0.536,0.514c2.125,2.4,4.248,4.802,6.368,7.207
					C273.328,390.588,273.675,390.957,273.711,391.462z"/>
				<path style="fill:#D6D6D6;" d="M219.665,367.628c0.509,0.047,0.733,0.381,0.905,0.78c0.476,1.105,0.944,2.213,1.437,3.31
					c0.765,1.703,1.548,3.397,2.321,5.097c0.102,0.224,0.225,0.45,0.266,0.688c0.061,0.357-0.089,0.655-0.422,0.824
					c-0.283,0.143-0.566,0.107-0.823-0.071c-0.319-0.22-0.506-0.548-0.668-0.885c-1.317-2.728-2.512-5.511-3.681-8.304
					c-0.094-0.224-0.184-0.484-0.159-0.715C218.892,367.88,219.201,367.629,219.665,367.628z"/>
				<path style="fill:#D6D6D6;" d="M283.757,389.564c0.025,0.573-0.551,0.983-1.12,0.785c-0.322-0.112-0.556-0.356-0.785-0.597
					c-1.976-2.072-3.958-4.139-5.923-6.221c-0.735-0.779-0.823-1.305-0.355-1.694c0.426-0.354,0.901-0.209,1.582,0.501
					c2.009,2.098,4.013,4.201,6.02,6.301C283.432,388.908,283.729,389.151,283.757,389.564z"/>
				<path style="fill:#D6D6D6;" d="M280.561,381.899c0.482-0.021,0.735,0.343,1.03,0.625c1.353,1.292,2.692,2.598,4.051,3.884
					c0.603,0.571,1.228,1.12,1.868,1.65c0.424,0.351,0.718,0.719,0.406,1.272c-0.253,0.449-0.82,0.491-1.43,0.106
					c-0.279-0.176-0.535-0.396-0.779-0.619c-1.78-1.627-3.553-3.262-5.233-4.993c-0.229-0.236-0.474-0.485-0.613-0.776
					C279.589,382.481,279.965,381.904,280.561,381.899z"/>
				<path style="fill:#D6D6D6;" d="M293.281,387.539c0.034,0.522-0.417,0.92-0.981,0.848c-0.382-0.049-0.697-0.261-1.002-0.476
					c-2.04-1.435-3.957-3.028-5.899-4.588c-0.191-0.154-0.375-0.338-0.504-0.544c-0.216-0.347-0.217-0.721,0.085-1.029
					c0.295-0.302,0.651-0.355,1.018-0.123c0.174,0.11,0.331,0.248,0.494,0.376c2.062,1.608,4.027,3.342,6.231,4.764
					C293.01,386.953,293.26,387.163,293.281,387.539z"/>
				<path style="fill:#D6D6D6;" d="M297.591,386.095c-0.028,0.524-0.525,0.884-1.068,0.71c-0.35-0.112-0.684-0.307-0.988-0.518
					c-1.604-1.114-3.204-2.233-4.787-3.376c-0.776-0.561-0.96-1.063-0.656-1.531c0.317-0.489,0.829-0.468,1.623,0.115
					c1.709,1.254,3.427,2.494,5.213,3.636C297.293,385.365,297.61,385.607,297.591,386.095z"/>
				<path style="fill:#D6D6D6;" d="M301.083,383.52c0.015,0.527-0.433,0.921-0.994,0.812c-0.318-0.062-0.631-0.204-0.917-0.364
					c-1.482-0.828-2.923-1.725-4.313-2.698c-0.799-0.559-0.992-1.029-0.686-1.5c0.32-0.492,0.814-0.477,1.621,0.061
					c1.515,1.009,3.023,2.031,4.654,2.85C300.803,382.859,301.068,383.091,301.083,383.52z"/>
			</g>
			<path style="fill:#4E4E4E;" d="M210.378,281.288c0.265,0.353-0.04,0.69-0.162,1.001c-2.025,5.147-4.034,10.299-5.77,15.556
				c-0.783,2.372-1.35,4.799-2.076,7.184c-0.836,2.743-1.65,5.493-2.31,8.285c-0.231,0.979-0.231,1.007,0.735,1.237
				c2.425,0.578,4.854,1.123,7.229,1.909c3.943,1.305,7.051,3.716,9.411,7.063c1.336,1.894,1.864,4.166,2.278,6.417
				c0.582,3.159,0.778,6.359,0.507,9.562c-0.381,4.509-0.851,9.008-1.74,13.455c-1.588,7.944-3.254,15.871-5.22,23.731
				c-0.819,3.273-1.93,6.451-3.753,9.339c-1.229,1.947-3.01,3.082-5.177,3.63c-1.619,0.409-3.28,0.551-4.953,0.306
				c-0.246-0.036-0.5-0.012-0.747-0.044c-0.986-0.129-1.563,0.128-2.084,1.157c-0.771,1.524-2.105,2.577-4.007,2.485
				c-2.379-0.114-3.757-1.317-4.193-3.548c-0.569-2.914,0.064-5.711,1.571-8.259c1.021-1.727,3.284-2.296,5.305-1.444
				c1.833,0.773,3.012,2.043,3.04,4.15c0.004,0.291,0.069,0.582,0.059,0.871c-0.018,0.53,0.281,0.663,0.714,0.572
				c3.381-0.708,6.18-2.247,7.604-5.587c1.191-2.795,1.997-5.708,2.697-8.672c1.005-4.256,1.639-8.574,2.301-12.88
				c0.813-5.294,2.117-10.515,2.54-15.86c0.265-3.352,0.617-6.718,0.32-10.093c-0.345-3.916-1.983-7.18-5.033-9.68
				c-1.439-1.179-3.186-1.762-4.941-2.312c-4.46-1.398-9.031-2.28-13.66-2.838c-1.941-0.234-3.912-0.049-5.841,0.316
				c-2.272,0.429-3.833,1.881-5.132,3.688c-1.645,2.287-2.697,4.85-3.663,7.479c-2.819,7.666-4.646,15.605-6.667,23.495
				c-1.2,4.685-1.93,9.427-2.354,14.237c-0.184,2.087-0.29,4.188,0.104,6.209c0.668,3.424,1.676,4.918,5.101,6.13
				c0.299,0.106,0.454,0.043,0.615-0.201c0.275-0.416,0.547-0.839,0.864-1.222c0.686-0.826,1.552-1.349,2.62-1.578
				c1.563-0.336,2.792,0.151,3.714,1.418c0.572,0.786,0.974,1.687,1.002,2.653c0.074,2.481-0.28,4.897-1.53,7.097
				c-0.818,1.44-2.019,2.404-3.661,2.79c-1.667,0.393-3.304-0.575-3.749-2.242c-0.272-1.02-0.28-2.058-0.143-3.092
				c0.169-1.274,0.324-1.059-0.997-1.48c-0.555-0.177-1.127-0.299-1.676-0.492c-2.924-1.028-5.134-2.793-6.274-5.799
				c-0.703-1.853-1.035-3.742-1.215-5.7c-0.481-5.239,0.359-10.358,1.289-15.471c1.182-6.506,2.683-12.944,4.507-19.295
				c1.565-5.447,3.677-10.706,6.486-15.645c2.856-5.022,7.128-7.882,12.995-8.216c1.997-0.114,3.981-0.248,5.971,0.095
				c0.8,0.138,0.875,0.057,1.076-0.804c1.011-4.333,2.105-8.642,3.505-12.868c1.282-3.867,2.584-7.727,4.031-11.537
				c0.216-0.568,0.522-0.984,1.043-1.327c2.468-1.624,4.919-3.276,7.125-5.257C210.1,281.285,210.202,281.198,210.378,281.288z"/>
			<path style="fill:#4E4E4E;" d="M295.773,340.076c0.008-1.857-0.114-3.458-0.077-5.081c0.113-4.952,0.087-9.91,0.022-14.864
				c-0.032-2.407-0.411-4.799-0.744-7.183c-0.818-5.848-2.022-11.622-3.402-17.362c-1.399-5.821-3.453-11.4-6.477-16.563
				c-2.123-3.625-4.507-7.123-7.749-9.872c-1.9-1.612-4.034-2.941-6.326-3.956c-0.722-0.32-1.069-0.648-1.089-1.531
				c-0.02-0.905-0.091-1.823-0.112-2.736c-0.02-0.868,0.07-0.949,0.931-0.666c1.738,0.571,3.446,1.221,5.045,2.127
				c1.667,0.945,3.307,1.948,4.825,3.106c1.857,1.416,3.44,3.144,4.942,4.93c3.406,4.051,5.868,8.634,7.878,13.524
				c2.335,5.681,4.015,11.54,5.189,17.539c1.019,5.212,1.959,10.441,2.467,15.744c0.465,4.85,0.731,9.698,0.617,14.566
				c-0.034,1.453-0.158,2.903-0.227,4.355c-0.019,0.399-0.12,0.773-0.457,0.977C299.37,338.136,297.708,339.138,295.773,340.076z"/>
		</g>
		<g>
			<g>
				<path style="fill:#5E2313;" d="M275.568,165.316c-0.268,0.523-0.409,0.773-0.527,1.033c-3.353,7.394-8.075,13.762-14.214,19.09
					c-2.106,1.828-4.06,3.834-6.425,5.35c-5.178,3.318-10.606,6.098-16.58,7.702c-0.562,0.151-1.133,0.275-1.706,0.377
					c-0.934,0.167-1.766,0.166-2.423-0.771c-0.491-0.702-1.338-0.967-2.213-0.969c-1.633-0.004-3.004,0.631-4.104,1.812
					c-3.057,3.285-3.475,9.219-0.931,12.914c1.294,1.88,3.049,2.437,5.107,1.49c2.002-0.921,3.774-2.142,4.566-4.356
					c0.16-0.447,0.463-0.698,0.94-0.649c0.511,0.052,0.828,0.372,0.957,0.859c0.278,1.05,0.441,2.119,0.509,3.202
					c0.284,4.582,0.193,9.153-0.21,13.729c-0.476,5.405-1.277,10.747-2.677,15.992c-1.77,6.636-4.572,12.84-7.776,18.896
					c-7.284,13.77-18.468,23.285-32.342,29.913c-3.655,1.746-7.451,3.084-11.377,4.086c-5.847,1.491-11.656,3.146-17.637,4.036
					c-10.363,1.542-20.333,0.203-29.858-4.208c-5.357-2.48-9.418-6.418-12.345-11.475c-3.606-6.23-5.363-12.978-5.01-20.205
					c0.295-6.036,2.172-11.562,5.393-16.683c6.186-9.836,14.86-16.602,25.497-21.032c7.041-2.933,14.288-5.263,21.568-7.499
					c6.099-1.874,12.073-4.049,17.734-7.021c3.884-2.039,7.607-4.327,10.772-7.407c2.668-2.597,4.848-5.603,7.027-8.602
					c1.789-2.462,3.386-5.049,4.829-7.73c1.756-3.263,3.464-6.553,5.274-9.785c3.075-5.49,6.201-10.964,10.493-15.626
					c4.515-4.904,9.795-8.761,16.065-11.163c4.253-1.63,8.668-1.971,13.157-1.533c5.923,0.579,11.323,2.619,16.224,5.986
					c0.36,0.247,0.666,0.38,1.141,0.232c5.467-1.706,10.503-0.501,15.33,2.261c5.942,3.4,9.564,8.646,11.948,14.88
					c1.081,2.826,1.497,5.793,1.684,8.8c0.23,3.708,0.293,7.409-0.373,11.085c-0.089,0.49-0.189,0.987-0.366,1.449
					c-0.289,0.757-0.813,1.005-1.591,0.739c-0.746-0.255-1.491-0.542-2.192-0.901c-11.38-5.818-19.273-14.603-22.92-26.99
					C275.884,166.276,275.766,165.934,275.568,165.316z"/>
			</g>
			<g>
				<path style="fill:#8C5144;" d="M257.465,153.248c3.388,0.024,6.736,0.317,9.949,1.503c0.273,0.101,0.556,0.181,0.818,0.304
					c0.617,0.29,0.86,0.713,0.662,1.156c-0.263,0.587-0.771,0.607-1.273,0.438c-1.538-0.52-3.073-1.017-4.689-1.272
					c-8.644-1.364-16.528,0.516-23.729,5.44c-4.323,2.956-7.754,6.794-10.879,10.932c-3.068,4.065-5.631,8.451-8.058,12.918
					c-2.047,3.768-3.99,7.596-6.258,11.237c-7.522,12.074-17.549,21.343-30.537,27.34c-6.894,3.184-14.045,5.641-21.253,7.97
					c-5.661,1.828-11.356,3.589-16.782,6.047c-6.729,3.048-12.402,7.478-16.591,13.621c-2.625,3.85-4.417,8.104-5.422,12.668
					c-0.161,0.73-0.23,1.48-0.349,2.22c-0.072,0.448-0.292,0.789-0.769,0.865c-0.566,0.09-0.98-0.424-0.893-1.198
					c0.158-1.406,0.374-2.801,0.766-4.17c2.932-10.232,9.144-17.89,18.213-23.337c3.557-2.136,7.412-3.577,11.286-4.983
					c5.711-2.073,11.533-3.814,17.282-5.771c5.283-1.798,10.461-3.856,15.476-6.314c12.09-5.927,21.376-14.885,28.373-26.299
					c2.133-3.48,3.985-7.119,5.936-10.702c3.171-5.823,6.604-11.47,10.911-16.552c4.638-5.472,10.117-9.735,16.915-12.207
					C250.096,153.82,253.721,153.208,257.465,153.248z"/>
				<path style="fill:#8C5144;" d="M266.007,160.27c-7.838,0.341-15.352,1.858-22.109,6.125c-4.583,2.894-8.189,6.785-11.427,11.062
					c-4.152,5.485-7.85,11.277-11.461,17.124c-3.306,5.353-6.792,10.574-10.609,15.586c-7.279,9.556-16.316,16.922-27.045,22.276
					c-7.791,3.888-15.83,7.201-23.885,10.483c-5.022,2.046-9.895,4.346-14.343,7.512c-7.168,5.103-12.329,11.715-15.441,19.937
					c-1.056,2.789-1.528,5.701-1.815,8.652c-0.012,0.124-0.017,0.25-0.034,0.373c-0.111,0.799-0.397,1.113-0.942,1.035
					c-0.514-0.073-0.825-0.514-0.763-1.243c0.262-3.078,0.729-6.12,1.799-9.037c3.211-8.746,8.656-15.761,16.254-21.158
					c4.311-3.062,9.002-5.357,13.868-7.35c7.894-3.234,15.791-6.456,23.461-10.209c7.887-3.859,15.064-8.709,21.204-15.009
					c4.755-4.879,8.795-10.336,12.544-16.007c3.513-5.315,6.716-10.829,10.269-16.119c2.555-3.805,5.185-7.551,8.119-11.08
					c6.218-7.48,14.135-12.005,23.675-13.77c2.956-0.547,5.93-0.869,8.933-0.93c0.414-0.008,0.833,0.025,1.242,0.088
					c0.501,0.077,0.868,0.34,0.836,0.906c-0.034,0.586-0.447,0.746-0.956,0.752C266.923,160.274,266.465,160.27,266.007,160.27z"/>
				<path style="fill:#8C5144;" d="M160.815,293.832c-8.621,0.038-15.591-1.416-22.342-4.002c-1.205-0.461-2.404-0.935-3.611-1.392
					c-0.512-0.194-0.913-0.466-0.774-1.09c0.113-0.506,0.673-0.742,1.329-0.529c0.672,0.217,1.319,0.511,1.983,0.755
					c3.984,1.468,7.969,2.92,12.176,3.653c5.412,0.943,10.835,1.102,16.3,0.52c7.998-0.852,15.779-2.566,23.158-5.816
					c16.99-7.482,29.163-19.714,36.102-36.999c2.148-5.351,3.422-10.96,4.369-16.638c0.747-4.478,1.424-8.966,1.573-13.514
					c0.003-0.083,0-0.167,0.01-0.25c0.092-0.748,0.432-1.144,0.953-1.067c0.629,0.093,0.759,0.563,0.768,1.104
					c0.027,1.629-0.134,3.248-0.316,4.861c-0.691,6.128-1.659,12.208-3.199,18.189c-3.082,11.972-8.932,22.396-17.685,31.112
					c-9.714,9.672-21.35,15.927-34.719,18.961C171.147,292.991,165.334,293.731,160.815,293.832z"/>
				<path style="fill:#8C5144;" d="M155.851,284.195c-6.035,0.066-12.405-0.891-18.724-2.275c-0.279-0.061-0.562-0.165-0.808-0.309
					c-0.319-0.188-0.414-0.512-0.328-0.869c0.089-0.369,0.352-0.575,0.72-0.577c0.329-0.002,0.665,0.044,0.988,0.112
					c3.422,0.722,6.855,1.367,10.337,1.746c4.61,0.502,9.222,0.547,13.846,0.252c6.575-0.42,12.934-1.836,19.066-4.214
					c9.628-3.734,17.552-9.787,23.894-17.909c7.742-9.915,13.249-20.928,16.165-33.2c0.875-3.684,1.949-7.321,2.55-11.068
					c0.086-0.539,0.319-0.968,0.957-0.934c0.519,0.027,0.849,0.497,0.736,1.226c-0.191,1.232-0.426,2.462-0.72,3.674
					c-1.463,6.025-2.756,12.107-5.02,17.898c-4.259,10.893-10.108,20.821-18.393,29.168c-7.672,7.729-16.935,12.672-27.485,15.269
					C167.938,283.586,162.162,284.218,155.851,284.195z"/>
				<path style="fill:#8C5144;" d="M224.283,198.951c0.002,0.308-0.157,0.56-0.295,0.813c-4.558,8.383-9.258,16.662-15.453,24.005
					c-4.677,5.544-9.87,10.478-15.887,14.541c-4.841,3.268-9.909,6.125-15.191,8.614c-4.18,1.97-8.471,3.679-12.706,5.52
					c-7.472,3.248-14.274,7.532-20.202,13.149c-2.794,2.648-5.143,5.671-7.312,8.84c-0.21,0.307-0.433,0.617-0.704,0.866
					c-0.266,0.243-0.618,0.24-0.931,0.05c-0.326-0.198-0.403-0.517-0.33-0.87c0.105-0.508,0.467-0.875,0.74-1.289
					c5.207-7.892,12.246-13.762,20.346-18.471c4.115-2.392,8.492-4.217,12.869-6.047c5.494-2.297,10.865-4.838,16.062-7.761
					c10.073-5.665,18.416-13.222,25.292-22.488c4.46-6.01,8.046-12.534,11.661-19.05c0.201-0.362,0.396-0.738,0.66-1.053
					c0.224-0.268,0.561-0.345,0.909-0.175C224.15,198.31,224.297,198.583,224.283,198.951z"/>
				<path style="fill:#8C5144;" d="M144.365,276.158c-0.525,0.025-0.841-0.149-0.994-0.541c-0.16-0.411,0.005-0.757,0.358-0.962
					c0.356-0.207,0.753-0.348,1.137-0.505c6.819-2.793,13.817-5.085,20.782-7.475c7.377-2.532,14.462-5.732,21.148-9.783
					c8.474-5.133,15.408-11.855,20.937-20.064c4.153-6.166,7.605-12.711,10.74-19.436c0.176-0.377,0.346-0.759,0.561-1.114
					c0.244-0.402,0.621-0.555,1.072-0.361c0.473,0.203,0.523,0.611,0.421,1.05c-0.047,0.2-0.146,0.388-0.233,0.577
					c-3.293,7.159-6.968,14.102-11.396,20.639c-6.439,9.505-14.784,16.863-24.86,22.301c-6.499,3.507-13.26,6.419-20.287,8.678
					c-6.223,2-12.35,4.251-18.426,6.652C144.977,275.949,144.622,276.066,144.365,276.158z"/>
				<path style="fill:#8C5144;" d="M233.508,193.991c-0.584,0.026-0.957-0.127-1.053-0.622c-0.093-0.478,0.147-0.813,0.593-0.967
					c0.51-0.175,1.027-0.344,1.553-0.46c4.084-0.897,7.983-2.313,11.772-4.072c4.448-2.065,8.225-5.053,11.673-8.466
					c5.46-5.405,9.87-11.591,13.361-18.433c0.208-0.408,0.418-0.815,0.64-1.216c0.25-0.449,0.614-0.693,1.136-0.492
					c0.448,0.172,0.581,0.675,0.359,1.283c-0.071,0.194-0.175,0.377-0.268,0.563c-3.706,7.397-8.472,14.026-14.343,19.865
					c-6.221,6.187-13.695,10.074-22.146,12.2C235.656,193.457,234.526,193.737,233.508,193.991z"/>
				<path style="fill:#8C5144;" d="M231.951,188.213c-0.596-0.025-0.921-0.607-0.653-1.181c0.147-0.315,0.426-0.507,0.7-0.696
					c8.645-5.963,16.567-12.861,24.893-19.235c1.585-1.213,3.252-2.319,4.882-3.474c0.136-0.096,0.275-0.189,0.419-0.271
					c0.438-0.252,0.876-0.309,1.241,0.109c0.313,0.359,0.183,0.87-0.302,1.298c-0.124,0.11-0.263,0.204-0.402,0.296
					c-5.522,3.671-10.576,7.953-15.735,12.094c-4.546,3.648-9.17,7.19-13.94,10.539
					C232.717,187.928,232.414,188.242,231.951,188.213z"/>
				<path style="fill:#8C5144;" d="M277.957,160.714c-0.023-0.634,0.143-1.04,0.677-1.173c0.444-0.111,0.87,0.225,0.984,0.888
					c0.385,2.232,1.147,4.339,2.031,6.411c3.5,8.207,8.905,14.886,16.128,20.109c0.405,0.293,0.816,0.582,1.189,0.911
					c0.52,0.459,0.611,0.916,0.275,1.294c-0.423,0.476-0.9,0.359-1.335,0.025c-1.355-1.038-2.718-2.066-4.042-3.144
					c-7.272-5.923-12.199-13.454-15.212-22.285C278.303,162.727,278.031,161.677,277.957,160.714z"/>
				<path style="fill:#8C5144;" d="M299.544,181.96c0.017,0.71-0.254,1.155-0.729,1.191c-0.646,0.049-0.869-0.409-0.971-0.926
					c-0.519-2.621-1.399-5.129-2.35-7.615c-2.794-7.303-7.755-12.69-14.557-16.447c-0.218-0.12-0.452-0.218-0.656-0.358
					c-0.42-0.288-0.651-0.667-0.366-1.166c0.242-0.423,0.639-0.512,1.08-0.351c0.272,0.099,0.528,0.242,0.79,0.369
					c3.001,1.449,5.458,3.609,7.85,5.883c5.443,5.172,8.048,11.799,9.817,18.87C299.501,181.609,299.52,181.817,299.544,181.96z"/>
			</g>
		</g>
	</g>
</g>
</svg>
